SplineFontDB: 3.0
FontName: Olafur
FullName: Olafur
FamilyName: Olafur
Weight: Regular
Copyright: Copyright Olafur Palsson for no reason haha
Version: 0.61
ItalicAngle: 0
UnderlinePosition: -504
UnderlineWidth: 120
Ascent: 1228
Descent: 308
InvalidEm: 0
sfntRevision: 0x00009c28
LayerCount: 2
Layer: 0 1 "Back" 1
Layer: 1 1 "Fore" 0
XUID: [1021 583 -1377662159 16501048]
StyleMap: 0x0040
FSType: 0
OS2Version: 4
OS2_WeightWidthSlopeOnly: 0
OS2_UseTypoMetrics: 1
CreationTime: 1427918972
ModificationTime: 1522600321
PfmFamily: 17
TTFWeight: 400
TTFWidth: 4
LineGap: 0
VLineGap: 0
Panose: 2 11 5 9 4 0 0 2 0 4
OS2TypoAscent: 1664
OS2TypoAOffset: 0
OS2TypoDescent: -384
OS2TypoDOffset: 0
OS2TypoLinegap: 0
OS2WinAscent: 1664
OS2WinAOffset: 0
OS2WinDescent: 384
OS2WinDOffset: 0
HheadAscent: 1664
HheadAOffset: 0
HheadDescent: -384
HheadDOffset: 0
OS2SubXSize: 998
OS2SubYSize: 1075
OS2SubXOff: 0
OS2SubYOff: 215
OS2SupXSize: 998
OS2SupYSize: 1075
OS2SupXOff: 0
OS2SupYOff: 737
OS2StrikeYSize: 76
OS2StrikeYPos: 397
OS2CapHeight: 1408
OS2XHeight: 1024
OS2Vendor: 'PfEd'
OS2CodePages: 0000009f.00000000
OS2UnicodeRanges: 800002ff.10045063.00000000.00000000

StartChar: .notdef
Encoding: 65536 -1 0
Width: 947
VWidth: 1331
Flags: W
LayerCount: 2
Fore
SplineSet
71.400390625 102.400390625 m 1,0,-1
 71.400390625 921.599609375 l 1,1,-1
 438.599609375 921.599609375 l 1,2,-1
 438.599609375 102.400390625 l 1,3,-1
 71.400390625 102.400390625 l 1,0,-1
117.299804688 143.200195312 m 1,4,-1
 392.700195312 143.200195312 l 1,5,-1
 392.700195312 880.799804688 l 1,6,-1
 117.299804688 880.799804688 l 1,7,-1
 117.299804688 143.200195312 l 1,4,-1
EndSplineSet
EndChar

StartChar: exclam
Encoding: 33 33 4
Width: 979
VWidth: 1368
GlyphClass: 2
Flags: W
LayerCount: 2
Fore
SplineSet
576 356.799804688 m 128,-1,1
 633.599609375 356.799804688 633.599609375 356.799804688 669.599609375 324.799804688 c 128,-1,2
 705.599609375 292.799804688 705.599609375 292.799804688 705.599609375 241.599609375 c 128,-1,3
 705.599609375 190.400390625 705.599609375 190.400390625 669.599609375 158.400390625 c 128,-1,4
 633.599609375 126.400390625 633.599609375 126.400390625 576 126.400390625 c 128,-1,5
 518.400390625 126.400390625 518.400390625 126.400390625 482.400390625 158.400390625 c 128,-1,6
 446.400390625 190.400390625 446.400390625 190.400390625 446.400390625 241.599609375 c 128,-1,7
 446.400390625 292.799804688 446.400390625 292.799804688 482.400390625 324.799804688 c 128,-1,0
 518.400390625 356.799804688 518.400390625 356.799804688 576 356.799804688 c 128,-1,1
633.599609375 548.799804688 m 1,8,-1
 518.400390625 548.799804688 l 1,9,-1
 509.400390625 1265.59960938 l 1,10,-1
 642.599609375 1265.59960938 l 1,11,-1
 633.599609375 548.799804688 l 1,8,-1
EndSplineSet
Substitution2: "Single Substitution lookup 81 subtable" exclam.2r
Substitution2: "Single Substitution lookup 80 subtable" exclam.2l
Substitution2: "Single Substitution lookup 28 subtable" liga9
Substitution2: "Single Substitution lookup 25 subtable" liga8
Substitution2: "Single Substitution lookup 6 subtable" liga1
Position2: "Single Positioning lookup 23 subtable" dx=115 dy=0 dh=0 dv=0
Position2: "Single Positioning lookup 21 subtable" dx=-115 dy=0 dh=0 dv=0
Position2: "Single Positioning lookup 15 subtable" dx=115 dy=0 dh=0 dv=0
Position2: "Single Positioning lookup 12 subtable" dx=115 dy=0 dh=0 dv=0
Position2: "Single Positioning lookup 10 subtable" dx=115 dy=0 dh=0 dv=0
Position2: "Single Positioning lookup 5 subtable" dx=115 dy=0 dh=0 dv=0
Position2: "Single Positioning lookup 4 subtable" dx=115 dy=0 dh=0 dv=0
Position2: "Single Positioning lookup 3 subtable" dx=115 dy=0 dh=0 dv=0
Position2: "Single Positioning lookup 1 subtable" dx=115 dy=0 dh=0 dv=0
Position2: "Single Positioning lookup 0 subtable" dx=115 dy=0 dh=0 dv=0
EndChar

StartChar: quotedbl
Encoding: 34 34 5
Width: 985
VWidth: 1446
GlyphClass: 2
Flags: W
LayerCount: 2
Fore
SplineSet
755.200195312 1344 m 1,0,-1
 870.400390625 1344 l 1,1,-1
 870.400390625 832 l 1,2,-1
 755.200195312 832 l 1,3,-1
 755.200195312 1344 l 1,0,-1
409.599609375 1344 m 1,4,-1
 524.799804688 1344 l 1,5,-1
 524.799804688 832 l 1,6,-1
 409.599609375 832 l 1,7,-1
 409.599609375 1344 l 1,4,-1
EndSplineSet
EndChar

StartChar: numbersign
Encoding: 35 35 6
Width: 985
VWidth: 1369
GlyphClass: 2
Flags: W
LayerCount: 2
Fore
SplineSet
524.799804688 864 m 1,0,-1
 524.799804688 544 l 1,1,-1
 755.200195312 544 l 1,2,-1
 755.200195312 864 l 1,3,-1
 524.799804688 864 l 1,0,-1
985.599609375 544 m 1,4,-1
 985.599609375 448 l 1,5,-1
 870.400390625 448 l 1,6,-1
 870.400390625 140.799804688 l 1,7,-1
 755.200195312 140.799804688 l 1,8,-1
 755.200195312 448 l 1,9,-1
 524.799804688 448 l 1,10,-1
 524.799804688 140.799804688 l 1,11,-1
 409.599609375 140.799804688 l 1,12,-1
 409.599609375 448 l 1,13,-1
 294.400390625 448 l 1,14,-1
 294.400390625 544 l 1,15,-1
 409.599609375 544 l 1,16,-1
 409.599609375 864 l 1,17,-1
 294.400390625 864 l 1,18,-1
 294.400390625 960 l 1,19,-1
 409.599609375 960 l 1,20,-1
 409.599609375 1267.20019531 l 1,21,-1
 524.799804688 1267.20019531 l 1,22,-1
 524.799804688 960 l 1,23,-1
 755.200195312 960 l 1,24,-1
 755.200195312 1267.20019531 l 1,25,-1
 870.400390625 1267.20019531 l 1,26,-1
 870.400390625 960 l 1,27,-1
 985.599609375 960 l 1,28,-1
 985.599609375 864 l 1,29,-1
 870.400390625 864 l 1,30,-1
 870.400390625 544 l 1,31,-1
 985.599609375 544 l 1,4,-1
EndSplineSet
EndChar

StartChar: dollar
Encoding: 36 36 7
Width: 985
VWidth: 1369
GlyphClass: 2
Flags: W
LayerCount: 2
Fore
SplineSet
755.200195312 1276 m 1,0,1
 856.900390625 1270.40039062 856.900390625 1270.40039062 955 1260 c 1,2,-1
 955 1163.20019531 l 1,3,4
 826.299804688 1176 826.299804688 1176 755.200195312 1180 c 1,5,-1
 755.200195312 747.200195312 l 1,6,7
 867.700195312 720 867.700195312 720 940.150390625 642.799804688 c 128,-1,8
 1012.59960938 565.599609375 1012.59960938 565.599609375 1012.59960938 448.799804688 c 0,9,10
 1012.59960938 309.599609375 1012.59960938 309.599609375 907.75 221.200195312 c 128,-1,11
 802.900390625 132.799804688 802.900390625 132.799804688 640 128 c 1,12,-1
 640 38.400390625 l 1,13,-1
 524.799804688 38.400390625 l 1,14,-1
 524.799804688 130.400390625 l 1,15,16
 417.700195312 136 417.700195312 136 289 153.599609375 c 1,17,-1
 289 252 l 1,18,19
 417.700195312 233.599609375 417.700195312 233.599609375 524.799804688 227.200195312 c 1,20,-1
 524.799804688 686.400390625 l 1,21,22
 409.599609375 712 409.599609375 712 338.5 787.200195312 c 128,-1,23
 267.400390625 862.400390625 267.400390625 862.400390625 267.400390625 976.799804688 c 0,24,25
 267.400390625 1012.79980469 267.400390625 1012.79980469 275.950195312 1049.59960938 c 128,-1,26
 284.5 1086.40039062 284.5 1086.40039062 309.700195312 1129.20019531 c 128,-1,27
 334.900390625 1172 334.900390625 1172 374.049804688 1204.40039062 c 128,-1,28
 413.200195312 1236.79980469 413.200195312 1236.79980469 482.049804688 1258.40039062 c 128,-1,29
 550.900390625 1280 550.900390625 1280 640 1280 c 1,30,-1
 640 1369.59960938 l 1,31,-1
 755.200195312 1369.59960938 l 1,32,-1
 755.200195312 1276 l 1,0,1
640 1184 m 1,33,34
 575.200195312 1184 575.200195312 1184 526.150390625 1168.79980469 c 128,-1,35
 477.099609375 1153.59960938 477.099609375 1153.59960938 450.549804688 1131.59960938 c 128,-1,36
 424 1109.59960938 424 1109.59960938 407.799804688 1079.59960938 c 128,-1,37
 391.599609375 1049.59960938 391.599609375 1049.59960938 387.099609375 1025.59960938 c 128,-1,38
 382.599609375 1001.59960938 382.599609375 1001.59960938 382.599609375 976.799804688 c 0,39,40
 382.599609375 919.200195312 382.599609375 919.200195312 407.349609375 876.799804688 c 128,-1,41
 432.099609375 834.400390625 432.099609375 834.400390625 473.5 812.400390625 c 128,-1,42
 514.900390625 790.400390625 514.900390625 790.400390625 554.950195312 780 c 128,-1,43
 595 769.599609375 595 769.599609375 640 766.400390625 c 1,44,-1
 640 1184 l 1,33,34
640 224 m 1,45,46
 755.200195312 228.799804688 755.200195312 228.799804688 826.299804688 288.799804688 c 128,-1,47
 897.400390625 348.799804688 897.400390625 348.799804688 897.400390625 448.799804688 c 0,48,49
 897.400390625 504.799804688 897.400390625 504.799804688 875.349609375 547.200195312 c 128,-1,50
 853.299804688 589.599609375 853.299804688 589.599609375 815.5 614.799804688 c 128,-1,51
 777.700195312 640 777.700195312 640 734.049804688 653.599609375 c 128,-1,52
 690.400390625 667.200195312 690.400390625 667.200195312 640 670.400390625 c 1,53,-1
 640 224 l 1,45,46
EndSplineSet
Substitution2: "'ss01' Style Set 1 lookup 102 subtable" dollar.empty
EndChar

StartChar: percent
Encoding: 37 37 8
Width: 979
VWidth: 1369
GlyphClass: 2
Flags: W
LayerCount: 2
Fore
SplineSet
212.400390625 310.400390625 m 1,0,-1
 133.200195312 380.799804688 l 1,1,-1
 939.599609375 1097.59960938 l 1,2,-1
 1018.79980469 1027.20019531 l 1,3,-1
 212.400390625 310.400390625 l 1,0,-1
403.200195312 1184 m 128,-1,5
 344.700195312 1184 344.700195312 1184 309.150390625 1152 c 128,-1,6
 273.599609375 1120 273.599609375 1120 273.599609375 1062.40039062 c 128,-1,7
 273.599609375 1004.79980469 273.599609375 1004.79980469 309.150390625 972.799804688 c 128,-1,8
 344.700195312 940.799804688 344.700195312 940.799804688 403.200195312 940.799804688 c 128,-1,9
 461.700195312 940.799804688 461.700195312 940.799804688 497.25 972.799804688 c 128,-1,10
 532.799804688 1004.79980469 532.799804688 1004.79980469 532.799804688 1062.40039062 c 128,-1,11
 532.799804688 1120 532.799804688 1120 497.25 1152 c 128,-1,4
 461.700195312 1184 461.700195312 1184 403.200195312 1184 c 128,-1,5
403.200195312 1280 m 128,-1,13
 510.299804688 1280 510.299804688 1280 579.150390625 1217.59960938 c 128,-1,14
 648 1155.20019531 648 1155.20019531 648 1062.40039062 c 128,-1,15
 648 969.599609375 648 969.599609375 579.150390625 907.200195312 c 128,-1,16
 510.299804688 844.799804688 510.299804688 844.799804688 403.200195312 844.799804688 c 128,-1,17
 296.099609375 844.799804688 296.099609375 844.799804688 227.25 907.200195312 c 128,-1,18
 158.400390625 969.599609375 158.400390625 969.599609375 158.400390625 1062.40039062 c 128,-1,19
 158.400390625 1155.20019531 158.400390625 1155.20019531 227.25 1217.59960938 c 128,-1,12
 296.099609375 1280 296.099609375 1280 403.200195312 1280 c 128,-1,13
748.799804688 467.200195312 m 128,-1,21
 690.299804688 467.200195312 690.299804688 467.200195312 654.75 435.200195312 c 128,-1,22
 619.200195312 403.200195312 619.200195312 403.200195312 619.200195312 345.599609375 c 128,-1,23
 619.200195312 288 619.200195312 288 654.75 256 c 128,-1,24
 690.299804688 224 690.299804688 224 748.799804688 224 c 128,-1,25
 807.299804688 224 807.299804688 224 842.849609375 256 c 128,-1,26
 878.400390625 288 878.400390625 288 878.400390625 345.599609375 c 128,-1,27
 878.400390625 403.200195312 878.400390625 403.200195312 842.849609375 435.200195312 c 128,-1,20
 807.299804688 467.200195312 807.299804688 467.200195312 748.799804688 467.200195312 c 128,-1,21
748.799804688 563.200195312 m 128,-1,29
 855.900390625 563.200195312 855.900390625 563.200195312 924.75 500.799804688 c 128,-1,30
 993.599609375 438.400390625 993.599609375 438.400390625 993.599609375 345.599609375 c 128,-1,31
 993.599609375 252.799804688 993.599609375 252.799804688 924.75 190.400390625 c 128,-1,32
 855.900390625 128 855.900390625 128 748.799804688 128 c 128,-1,33
 641.700195312 128 641.700195312 128 572.849609375 190.400390625 c 128,-1,34
 504 252.799804688 504 252.799804688 504 345.599609375 c 128,-1,35
 504 438.400390625 504 438.400390625 572.849609375 500.799804688 c 128,-1,28
 641.700195312 563.200195312 641.700195312 563.200195312 748.799804688 563.200195312 c 128,-1,29
EndSplineSet
EndChar

StartChar: ampersand
Encoding: 38 38 9
Width: 981
VWidth: 1370
GlyphClass: 2
Flags: W
LayerCount: 2
Fore
SplineSet
464.900390625 686 m 1,0,1
 374 658.799804688 374 658.799804688 317.75 600.799804688 c 128,-1,2
 261.5 542.799804688 261.5 542.799804688 261.5 458 c 0,3,4
 261.5 358 261.5 358 346.549804688 291.200195312 c 128,-1,5
 431.599609375 224.400390625 431.599609375 224.400390625 578.299804688 224.400390625 c 0,6,7
 716 224.400390625 716 224.400390625 793.400390625 286.799804688 c 1,8,-1
 464.900390625 686 l 1,0,1
514.400390625 796.400390625 m 1,9,10
 567.5 808.400390625 567.5 808.400390625 608.450195312 824.400390625 c 128,-1,11
 649.400390625 840.400390625 649.400390625 840.400390625 687.200195312 866 c 128,-1,12
 725 891.599609375 725 891.599609375 745.700195312 930 c 128,-1,13
 766.400390625 968.400390625 766.400390625 968.400390625 766.400390625 1017.20019531 c 0,14,15
 766.400390625 1092.40039062 766.400390625 1092.40039062 715.099609375 1140 c 128,-1,16
 663.799804688 1187.59960938 663.799804688 1187.59960938 578.299804688 1187.59960938 c 0,17,18
 493.700195312 1187.59960938 493.700195312 1187.59960938 441.950195312 1140.79980469 c 128,-1,19
 390.200195312 1094 390.200195312 1094 390.200195312 1016.40039062 c 0,20,21
 390.200195312 1003.59960938 390.200195312 1003.59960938 391.099609375 992.799804688 c 128,-1,22
 392 982 392 982 396.049804688 970 c 128,-1,23
 400.099609375 958 400.099609375 958 402.349609375 950 c 128,-1,24
 404.599609375 942 404.599609375 942 413.599609375 928 c 128,-1,25
 422.599609375 914 422.599609375 914 426.200195312 907.599609375 c 128,-1,26
 429.799804688 901.200195312 429.799804688 901.200195312 443.75 883.599609375 c 128,-1,27
 457.700195312 866 457.700195312 866 463.099609375 859.200195312 c 128,-1,28
 468.5 852.400390625 468.5 852.400390625 487.400390625 829.200195312 c 128,-1,29
 506.299804688 806 506.299804688 806 514.400390625 796.400390625 c 1,9,10
855.5 380.400390625 m 1,30,31
 866.299804688 414.799804688 866.299804688 414.799804688 866.299804688 486 c 2,32,-1
 866.299804688 653.200195312 l 1,33,-1
 981.5 653.200195312 l 1,34,-1
 981.5 486 l 2,35,36
 981.5 353.200195312 981.5 353.200195312 933.799804688 284.400390625 c 1,37,-1
 1051.70019531 141.200195312 l 1,38,-1
 912.200195312 141.200195312 l 1,39,-1
 859.099609375 206.799804688 l 1,40,41
 751.099609375 128.400390625 751.099609375 128.400390625 578.299804688 128.400390625 c 0,42,43
 380.299804688 128.400390625 380.299804688 128.400390625 263.299804688 224.400390625 c 128,-1,44
 146.299804688 320.400390625 146.299804688 320.400390625 146.299804688 458 c 0,45,46
 146.299804688 565.200195312 146.299804688 565.200195312 216.5 647.599609375 c 128,-1,47
 286.700195312 730 286.700195312 730 398.299804688 766.799804688 c 1,48,49
 361.400390625 812.400390625 361.400390625 812.400390625 347 831.200195312 c 128,-1,50
 332.599609375 850 332.599609375 850 311.450195312 884.799804688 c 128,-1,51
 290.299804688 919.599609375 290.299804688 919.599609375 282.650390625 949.599609375 c 128,-1,52
 275 979.599609375 275 979.599609375 275 1015.59960938 c 0,53,54
 275 1134.79980469 275 1134.79980469 360.950195312 1209.20019531 c 128,-1,55
 446.900390625 1283.59960938 446.900390625 1283.59960938 578.299804688 1283.59960938 c 0,56,57
 711.5 1283.59960938 711.5 1283.59960938 796.549804688 1207.59960938 c 128,-1,58
 881.599609375 1131.59960938 881.599609375 1131.59960938 881.599609375 1017.20019531 c 0,59,60
 881.599609375 911.599609375 881.599609375 911.599609375 803.75 829.599609375 c 128,-1,61
 725.900390625 747.599609375 725.900390625 747.599609375 581.900390625 714 c 1,62,-1
 855.5 380.400390625 l 1,30,31
EndSplineSet
Substitution2: "Single Substitution lookup 76 subtable" ampersand.method
Substitution2: "Single Substitution lookup 75 subtable" liga1
Substitution2: "Single Substitution lookup 74 subtable" ampamp
EndChar

StartChar: quotesingle
Encoding: 39 39 10
Width: 979
VWidth: 1446
GlyphClass: 2
Flags: W
LayerCount: 2
Fore
SplineSet
518.400390625 1344 m 1,0,-1
 633.599609375 1344 l 1,1,-1
 633.599609375 832 l 1,2,-1
 518.400390625 832 l 1,3,-1
 518.400390625 1344 l 1,0,-1
EndSplineSet
EndChar

StartChar: parenleft
Encoding: 40 40 11
Width: 984
VWidth: 1369
GlyphClass: 2
Flags: W
LayerCount: 2
Fore
SplineSet
501.700195312 703 m 128,-1,1
 501.700195312 486.200195312 501.700195312 486.200195312 596.200195312 337.799804688 c 128,-1,2
 690.700195312 189.400390625 690.700195312 189.400390625 863.5 112.599609375 c 1,3,-1
 814 28.599609375 l 1,4,5
 611.5 115.799804688 611.5 115.799804688 499 286.200195312 c 128,-1,6
 386.5 456.599609375 386.5 456.599609375 386.5 703 c 128,-1,7
 386.5 949.400390625 386.5 949.400390625 499 1119.40039062 c 128,-1,8
 611.5 1289.40039062 611.5 1289.40039062 814 1377.40039062 c 1,9,-1
 863.5 1293.40039062 l 1,10,11
 690.700195312 1215.79980469 690.700195312 1215.79980469 596.200195312 1067.79980469 c 128,-1,0
 501.700195312 919.799804688 501.700195312 919.799804688 501.700195312 703 c 128,-1,1
EndSplineSet
Substitution2: "Single Substitution lookup 2 subtable" parenleft.shrug
EndChar

StartChar: parenright
Encoding: 41 41 12
Width: 974
VWidth: 1369
GlyphClass: 2
Flags: W
LayerCount: 2
Fore
SplineSet
650.299804688 703 m 128,-1,1
 650.299804688 919.799804688 650.299804688 919.799804688 555.799804688 1067.79980469 c 128,-1,2
 461.299804688 1215.79980469 461.299804688 1215.79980469 288.5 1293.40039062 c 1,3,-1
 338 1377.40039062 l 1,4,5
 540.5 1289.40039062 540.5 1289.40039062 653 1119.40039062 c 128,-1,6
 765.5 949.400390625 765.5 949.400390625 765.5 703 c 128,-1,7
 765.5 456.599609375 765.5 456.599609375 653 286.200195312 c 128,-1,8
 540.5 115.799804688 540.5 115.799804688 338 28.599609375 c 1,9,-1
 288.5 112.599609375 l 1,10,11
 461.299804688 189.400390625 461.299804688 189.400390625 555.799804688 337.799804688 c 128,-1,0
 650.299804688 486.200195312 650.299804688 486.200195312 650.299804688 703 c 128,-1,1
EndSplineSet
Substitution2: "Single Substitution lookup 3 subtable" parenright.shrug
EndChar

StartChar: asterisk
Encoding: 42 42 13
Width: 979
VWidth: 1344
GlyphClass: 2
Flags: W
LayerCount: 2
Fore
SplineSet
518.400390625 619.200195312 m 1,0,-1
 518.400390625 934.400390625 l 1,1,-1
 633.599609375 934.400390625 l 1,2,-1
 633.599609375 619.200195312 l 1,3,-1
 964.799804688 715.200195312 l 1,4,-1
 1002.59960938 624.799804688 l 1,5,-1
 666 527.200195312 l 1,6,-1
 875.700195312 271.200195312 l 1,7,-1
 780.299804688 217.599609375 l 1,8,-1
 576 466.400390625 l 1,9,-1
 372.599609375 217.599609375 l 1,10,-1
 277.200195312 271.200195312 l 1,11,-1
 486 527.200195312 l 1,12,-1
 149.400390625 624.799804688 l 1,13,-1
 187.200195312 715.200195312 l 1,14,-1
 518.400390625 619.200195312 l 1,0,-1
EndSplineSet
Substitution2: "'ss02' Style Set 2 lookup 103 subtable" asterisk.multi
Substitution2: "Single Substitution lookup 100 subtable" asterisk.commentend
Substitution2: "Single Substitution lookup 99 subtable" asterisk.commentstart
Substitution2: "Single Substitution lookup 98 subtable" asterisk.commentstart
Substitution2: "Single Substitution lookup 77 subtable" asterisk.period
EndChar

StartChar: plus
Encoding: 43 43 14
Width: 979
VWidth: 1344
GlyphClass: 2
Flags: W
LayerCount: 2
Fore
SplineSet
633.599609375 624 m 1,0,-1
 979.200195312 624 l 1,1,-1
 979.200195312 528 l 1,2,-1
 633.599609375 528 l 1,3,-1
 633.599609375 217.599609375 l 1,4,-1
 518.400390625 217.599609375 l 1,5,-1
 518.400390625 528 l 1,6,-1
 172.799804688 528 l 1,7,-1
 172.799804688 624 l 1,8,-1
 518.400390625 624 l 1,9,-1
 518.400390625 934.400390625 l 1,10,-1
 633.599609375 934.400390625 l 1,11,-1
 633.599609375 624 l 1,0,-1
EndSplineSet
EndChar

StartChar: comma
Encoding: 44 44 15
Width: 972
VWidth: 1238
GlyphClass: 2
Flags: W
LayerCount: 2
Fore
SplineSet
396.799804688 304 m 1,0,-1
 627.200195312 304 l 1,1,-1
 627.200195312 28 l 2,2,3
 627.200195312 -4.7998046875 627.200195312 -4.7998046875 625.849609375 -24 c 128,-1,4
 624.5 -43.2001953125 624.5 -43.2001953125 613.25 -74.7998046875 c 128,-1,5
 602 -106.400390625 602 -106.400390625 580.400390625 -132 c 0,6,7
 517.400390625 -208 517.400390625 -208 396.799804688 -208 c 1,8,-1
 396.799804688 -112 l 1,9,10
 456.200195312 -112 456.200195312 -112 486.799804688 -76 c 0,11,12
 498.5 -62.400390625 498.5 -62.400390625 504.349609375 -43.599609375 c 128,-1,13
 510.200195312 -24.7998046875 510.200195312 -24.7998046875 511.099609375 -11.599609375 c 128,-1,14
 512 1.599609375 512 1.599609375 512 28 c 2,15,-1
 512 112 l 1,16,-1
 396.799804688 112 l 1,17,-1
 396.799804688 304 l 1,0,-1
EndSplineSet
Position2: "Single Positioning lookup 23 subtable" dx=115 dy=0 dh=0 dv=0
Position2: "Single Positioning lookup 21 subtable" dx=-115 dy=0 dh=0 dv=0
Position2: "Single Positioning lookup 15 subtable" dx=115 dy=0 dh=0 dv=0
Position2: "Single Positioning lookup 12 subtable" dx=115 dy=0 dh=0 dv=0
Position2: "Single Positioning lookup 10 subtable" dx=115 dy=0 dh=0 dv=0
Position2: "Single Positioning lookup 5 subtable" dx=115 dy=0 dh=0 dv=0
Position2: "Single Positioning lookup 4 subtable" dx=115 dy=0 dh=0 dv=0
Position2: "Single Positioning lookup 3 subtable" dx=115 dy=0 dh=0 dv=0
Position2: "Single Positioning lookup 1 subtable" dx=115 dy=0 dh=0 dv=0
Position2: "Single Positioning lookup 0 subtable" dx=115 dy=0 dh=0 dv=0
EndChar

StartChar: hyphen
Encoding: 45 45 16
Width: 979
VWidth: 1344
GlyphClass: 2
Flags: W
LayerCount: 2
Fore
SplineSet
172.799804688 624 m 1,0,-1
 979.200195312 624 l 1,1,-1
 979.200195312 528 l 1,2,-1
 172.799804688 528 l 1,3,-1
 172.799804688 624 l 1,0,-1
EndSplineSet
Substitution2: "Single Substitution lookup 66 subtable" hyphen.more
Substitution2: "Single Substitution lookup 65 subtable" hyphen.more
Substitution2: "Single Substitution lookup 64 subtable" hyphen.operator
Substitution2: "Single Substitution lookup 23 subtable" liga7
Substitution2: "Single Substitution lookup 20 subtable" liga6
Substitution2: "Single Substitution lookup 18 subtable" liga5
Substitution2: "Single Substitution lookup 17 subtable" liga5
Substitution2: "Single Substitution lookup 16 subtable" arrowleft.liga
Substitution2: "Single Substitution lookup 14 subtable" ligaarrowlefttwoheads
Substitution2: "Single Substitution lookup 11 subtable" ligaarrowleftlong
Substitution2: "Single Substitution lookup 10 subtable" liga2
Substitution2: "Single Substitution lookup 8 subtable" commentstart
Substitution2: "Single Substitution lookup 7 subtable" liga1
EndChar

StartChar: period
Encoding: 46 46 17
Width: 972
VWidth: 1252
GlyphClass: 2
Flags: W
LayerCount: 2
Fore
SplineSet
396.799804688 216 m 1,0,-1
 627.200195312 216 l 1,1,-1
 627.200195312 24 l 1,2,-1
 396.799804688 24 l 1,3,-1
 396.799804688 216 l 1,0,-1
EndSplineSet
Substitution2: "Single Substitution lookup 91 subtable" period.2r
Substitution2: "Single Substitution lookup 90 subtable" period.2l
Substitution2: "Single Substitution lookup 88 subtable" larsenwork
Substitution2: "Single Substitution lookup 87 subtable" larsenwork
Substitution2: "Single Substitution lookup 86 subtable" period.x3
Substitution2: "Single Substitution lookup 85 subtable" larsenwork
Substitution2: "Single Substitution lookup 84 subtable" larsenwork
Position2: "Single Positioning lookup 23 subtable" dx=115 dy=0 dh=0 dv=0
Position2: "Single Positioning lookup 21 subtable" dx=-115 dy=0 dh=0 dv=0
Position2: "Single Positioning lookup 15 subtable" dx=115 dy=0 dh=0 dv=0
Position2: "Single Positioning lookup 12 subtable" dx=115 dy=0 dh=0 dv=0
Position2: "Single Positioning lookup 10 subtable" dx=115 dy=0 dh=0 dv=0
Position2: "Single Positioning lookup 5 subtable" dx=115 dy=0 dh=0 dv=0
Position2: "Single Positioning lookup 4 subtable" dx=115 dy=0 dh=0 dv=0
Position2: "Single Positioning lookup 3 subtable" dx=115 dy=0 dh=0 dv=0
Position2: "Single Positioning lookup 1 subtable" dx=115 dy=0 dh=0 dv=0
Position2: "Single Positioning lookup 0 subtable" dx=115 dy=0 dh=0 dv=0
EndChar

StartChar: slash
Encoding: 47 47 18
Width: 979
VWidth: 1369
GlyphClass: 2
Flags: W
LayerCount: 2
Fore
SplineSet
271.799804688 16.7998046875 m 1,0,-1
 170.099609375 59.2001953125 l 1,1,-1
 880.200195312 1391.20019531 l 1,2,-1
 981.900390625 1348.79980469 l 1,3,-1
 271.799804688 16.7998046875 l 1,0,-1
EndSplineSet
Substitution2: "Single Substitution lookup 97 subtable" ligadoubleslash
Substitution2: "Single Substitution lookup 96 subtable" larsenwork
Substitution2: "Single Substitution lookup 4 subtable" slash.shrug
Position2: "Single Positioning lookup 24 subtable" dx=115 dy=0 dh=0 dv=0
EndChar

StartChar: zero
Encoding: 48 48 19
Width: 979
VWidth: 1369
GlyphClass: 2
Flags: W
LayerCount: 2
Fore
SplineSet
428.400390625 333.599609375 m 1,0,1
 476.099609375 225.599609375 476.099609375 225.599609375 576 225.599609375 c 0,2,3
 633.599609375 225.599609375 633.599609375 225.599609375 671.849609375 260 c 128,-1,4
 710.099609375 294.400390625 710.099609375 294.400390625 730.799804688 352 c 0,5,6
 742.5 383.200195312 742.5 383.200195312 747.900390625 444.400390625 c 128,-1,7
 753.299804688 505.599609375 753.299804688 505.599609375 754.200195312 555.200195312 c 128,-1,8
 755.099609375 604.799804688 755.099609375 604.799804688 755.099609375 704 c 0,9,10
 755.099609375 872.799804688 755.099609375 872.799804688 750.599609375 938.400390625 c 1,11,-1
 428.400390625 333.599609375 l 1,0,1
576 1182.40039062 m 0,12,13
 518.400390625 1182.40039062 518.400390625 1182.40039062 480.150390625 1148 c 128,-1,14
 441.900390625 1113.59960938 441.900390625 1113.59960938 421.200195312 1056 c 0,15,16
 409.5 1024.79980469 409.5 1024.79980469 404.099609375 963.599609375 c 128,-1,17
 398.700195312 902.400390625 398.700195312 902.400390625 397.799804688 852.799804688 c 128,-1,18
 396.900390625 803.200195312 396.900390625 803.200195312 396.900390625 704 c 0,19,20
 396.900390625 535.200195312 396.900390625 535.200195312 401.400390625 469.599609375 c 1,21,-1
 723.599609375 1074.40039062 l 1,22,23
 675.900390625 1182.40039062 675.900390625 1182.40039062 576 1182.40039062 c 0,12,13
576 1281.59960938 m 128,-1,25
 757.799804688 1281.59960938 757.799804688 1281.59960938 831.599609375 1108 c 0,26,27
 847.799804688 1068.79980469 847.799804688 1068.79980469 855.900390625 1000 c 128,-1,28
 864 931.200195312 864 931.200195312 865.349609375 874.799804688 c 128,-1,29
 866.700195312 818.400390625 866.700195312 818.400390625 866.700195312 704 c 128,-1,30
 866.700195312 589.599609375 866.700195312 589.599609375 865.349609375 533.200195312 c 128,-1,31
 864 476.799804688 864 476.799804688 855.900390625 408 c 128,-1,32
 847.799804688 339.200195312 847.799804688 339.200195312 831.599609375 300 c 0,33,34
 757.799804688 126.400390625 757.799804688 126.400390625 576 126.400390625 c 128,-1,35
 394.200195312 126.400390625 394.200195312 126.400390625 320.400390625 300 c 0,36,37
 304.200195312 339.200195312 304.200195312 339.200195312 296.099609375 408 c 128,-1,38
 288 476.799804688 288 476.799804688 286.650390625 533.200195312 c 128,-1,39
 285.299804688 589.599609375 285.299804688 589.599609375 285.299804688 704 c 128,-1,40
 285.299804688 818.400390625 285.299804688 818.400390625 286.650390625 874.799804688 c 128,-1,41
 288 931.200195312 288 931.200195312 296.099609375 1000 c 128,-1,42
 304.200195312 1068.79980469 304.200195312 1068.79980469 320.400390625 1108 c 0,43,24
 394.200195312 1281.59960938 394.200195312 1281.59960938 576 1281.59960938 c 128,-1,25
EndSplineSet
Substitution2: "'ss04' Style Set 4 lookup 105 subtable" zero.clear
Substitution2: "'ss03' Style Set 3 lookup 104 subtable" zero.dot
EndChar

StartChar: one
Encoding: 49 49 20
Width: 972
VWidth: 1369
GlyphClass: 2
Flags: W
LayerCount: 2
Fore
SplineSet
645.200195312 1267.20019531 m 1,0,-1
 742.400390625 1267.20019531 l 1,1,-1
 742.400390625 140.799804688 l 1,2,-1
 627.200195312 140.799804688 l 1,3,-1
 627.200195312 1137.59960938 l 1,4,-1
 618.200195312 1137.59960938 l 1,5,-1
 338.299804688 958.400390625 l 1,6,-1
 281.599609375 1032 l 1,7,-1
 645.200195312 1267.20019531 l 1,0,-1
EndSplineSet
Substitution2: "'ss05' Style Set 5 lookup 106 subtable" one.base
EndChar

StartChar: two
Encoding: 50 50 21
Width: 981
VWidth: 1371
GlyphClass: 2
Flags: W
LayerCount: 2
Fore
SplineSet
290.700195312 1256.79980469 m 1,0,1
 433.799804688 1281.59960938 433.799804688 1281.59960938 549.900390625 1281.59960938 c 0,2,3
 636.299804688 1281.59960938 636.299804688 1281.59960938 701.549804688 1259.20019531 c 128,-1,4
 766.799804688 1236.79980469 766.799804688 1236.79980469 804.150390625 1198.40039062 c 128,-1,5
 841.5 1160 841.5 1160 859.5 1114.40039062 c 128,-1,6
 877.5 1068.79980469 877.5 1068.79980469 877.5 1016.79980469 c 0,7,8
 877.5 956 877.5 956 860.849609375 913.200195312 c 128,-1,9
 844.200195312 870.400390625 844.200195312 870.400390625 809.099609375 816.799804688 c 2,10,-1
 436.5 238.400390625 l 1,11,-1
 915.299804688 238.400390625 l 1,12,-1
 915.299804688 142.400390625 l 1,13,-1
 290.700195312 142.400390625 l 1,14,-1
 290.700195312 213.599609375 l 1,15,-1
 706.5 861.599609375 l 2,16,17
 727.200195312 893.599609375 727.200195312 893.599609375 736.200195312 910.400390625 c 128,-1,18
 745.200195312 927.200195312 745.200195312 927.200195312 753.75 956 c 128,-1,19
 762.299804688 984.799804688 762.299804688 984.799804688 762.299804688 1016.79980469 c 128,-1,20
 762.299804688 1048.79980469 762.299804688 1048.79980469 753.299804688 1076 c 128,-1,21
 744.299804688 1103.20019531 744.299804688 1103.20019531 722.700195312 1129.20019531 c 128,-1,22
 701.099609375 1155.20019531 701.099609375 1155.20019531 657 1170.40039062 c 128,-1,23
 612.900390625 1185.59960938 612.900390625 1185.59960938 549.900390625 1185.59960938 c 0,24,25
 441 1185.59960938 441 1185.59960938 290.700195312 1160.79980469 c 1,26,-1
 290.700195312 1256.79980469 l 1,0,1
EndSplineSet
EndChar

StartChar: three
Encoding: 51 51 22
Width: 980
VWidth: 1368
GlyphClass: 2
Flags: W
LayerCount: 2
Fore
SplineSet
779.200195312 482.400390625 m 0,0,1
 779.200195312 614.400390625 779.200195312 614.400390625 732.400390625 673.599609375 c 128,-1,2
 685.599609375 732.799804688 685.599609375 732.799804688 574 732.799804688 c 0,3,4
 538 732.799804688 538 732.799804688 503.799804688 724 c 1,5,-1
 450.700195312 784.799804688 l 1,6,-1
 725.200195312 1169.59960938 l 1,7,-1
 289.599609375 1169.59960938 l 1,8,-1
 289.599609375 1265.59960938 l 1,9,-1
 865.599609375 1265.59960938 l 1,10,-1
 865.599609375 1177.59960938 l 1,11,-1
 584.799804688 809.599609375 l 1,12,-1
 591.099609375 804 l 1,13,14
 620.799804688 812 620.799804688 812 649.599609375 812 c 0,15,16
 707.200195312 812 707.200195312 812 751.299804688 792.400390625 c 128,-1,17
 795.400390625 772.799804688 795.400390625 772.799804688 821.950195312 741.599609375 c 128,-1,18
 848.5 710.400390625 848.5 710.400390625 865.599609375 665.599609375 c 128,-1,19
 882.700195312 620.799804688 882.700195312 620.799804688 888.549804688 576.400390625 c 128,-1,20
 894.400390625 532 894.400390625 532 894.400390625 480.799804688 c 0,21,22
 894.400390625 300 894.400390625 300 811.599609375 213.200195312 c 128,-1,23
 728.799804688 126.400390625 728.799804688 126.400390625 563.200195312 126.400390625 c 0,24,25
 453.400390625 126.400390625 453.400390625 126.400390625 289.599609375 151.200195312 c 1,26,-1
 289.599609375 248.799804688 l 1,27,28
 446.200195312 222.400390625 446.200195312 222.400390625 563.200195312 222.400390625 c 0,29,30
 616.299804688 222.400390625 616.299804688 222.400390625 655.450195312 236 c 128,-1,31
 694.599609375 249.599609375 694.599609375 249.599609375 718 272.400390625 c 128,-1,32
 741.400390625 295.200195312 741.400390625 295.200195312 755.349609375 330 c 128,-1,33
 769.299804688 364.799804688 769.299804688 364.799804688 774.25 400.400390625 c 128,-1,34
 779.200195312 436 779.200195312 436 779.200195312 482.400390625 c 0,0,1
EndSplineSet
Substitution2: "'ss06' Style Set 6 lookup 107 subtable" three.boob
EndChar

StartChar: four
Encoding: 52 52 23
Width: 982
VWidth: 1372
GlyphClass: 2
Flags: W
LayerCount: 2
Fore
SplineSet
867.200195312 143.599609375 m 1,0,-1
 752 143.599609375 l 1,1,-1
 752 450.799804688 l 1,2,-1
 233.599609375 450.799804688 l 1,3,-1
 233.599609375 530.799804688 l 1,4,-1
 673.700195312 1292.40039062 l 1,5,-1
 771.799804688 1247.59960938 l 1,6,-1
 372.200195312 554.799804688 l 1,7,-1
 372.200195312 546.799804688 l 1,8,-1
 752 546.799804688 l 1,9,-1
 752 758 l 1,10,-1
 867.200195312 758 l 1,11,-1
 867.200195312 546.799804688 l 1,12,-1
 982.400390625 546.799804688 l 1,13,-1
 982.400390625 450.799804688 l 1,14,-1
 867.200195312 450.799804688 l 1,15,-1
 867.200195312 143.599609375 l 1,0,-1
EndSplineSet
Substitution2: "'ss12' Style Set 12 lookup 113 subtable" four.triangle
EndChar

StartChar: five
Encoding: 53 53 24
Width: 980
VWidth: 1368
GlyphClass: 2
Flags: W
LayerCount: 2
Fore
SplineSet
289.599609375 248.799804688 m 1,0,1
 446.200195312 222.400390625 446.200195312 222.400390625 563.200195312 222.400390625 c 0,2,3
 616.299804688 222.400390625 616.299804688 222.400390625 655.450195312 237.200195312 c 128,-1,4
 694.599609375 252 694.599609375 252 718 275.599609375 c 128,-1,5
 741.400390625 299.200195312 741.400390625 299.200195312 755.349609375 336.400390625 c 128,-1,6
 769.299804688 373.599609375 769.299804688 373.599609375 774.25 411.200195312 c 128,-1,7
 779.200195312 448.799804688 779.200195312 448.799804688 779.200195312 498.400390625 c 0,8,9
 779.200195312 556 779.200195312 556 771.099609375 601.200195312 c 128,-1,10
 763 646.400390625 763 646.400390625 743.650390625 687.200195312 c 128,-1,11
 724.299804688 728 724.299804688 728 686.049804688 750.400390625 c 128,-1,12
 647.799804688 772.799804688 647.799804688 772.799804688 592 772.799804688 c 0,13,14
 473.200195312 772.799804688 473.200195312 772.799804688 403.900390625 685.599609375 c 1,15,-1
 289.599609375 712.799804688 l 1,16,-1
 289.599609375 1265.59960938 l 1,17,-1
 865.599609375 1265.59960938 l 1,18,-1
 865.599609375 1169.59960938 l 1,19,-1
 404.799804688 1169.59960938 l 1,20,-1
 404.799804688 792 l 1,21,-1
 413.799804688 792 l 1,22,23
 458.799804688 829.599609375 458.799804688 829.599609375 503.799804688 849.200195312 c 128,-1,24
 548.799804688 868.799804688 548.799804688 868.799804688 610 868.799804688 c 0,25,26
 894.400390625 868.799804688 894.400390625 868.799804688 894.400390625 496.799804688 c 0,27,28
 894.400390625 308 894.400390625 308 812.049804688 217.200195312 c 128,-1,29
 729.700195312 126.400390625 729.700195312 126.400390625 563.200195312 126.400390625 c 0,30,31
 453.400390625 126.400390625 453.400390625 126.400390625 289.599609375 151.200195312 c 1,32,-1
 289.599609375 248.799804688 l 1,0,1
EndSplineSet
EndChar

StartChar: six
Encoding: 54 54 25
Width: 980
VWidth: 1370
GlyphClass: 2
Flags: W
LayerCount: 2
Fore
SplineSet
681.099609375 1242 m 1,0,1
 529 1011.59960938 529 1011.59960938 457 833.200195312 c 1,2,-1
 465.099609375 830 l 1,3,4
 526.299804688 871.599609375 526.299804688 871.599609375 610 871.599609375 c 0,5,6
 706.299804688 871.599609375 706.299804688 871.599609375 772.450195312 828.400390625 c 128,-1,7
 838.599609375 785.200195312 838.599609375 785.200195312 869.200195312 711.599609375 c 0,8,9
 880.900390625 682.799804688 880.900390625 682.799804688 886.75 645.200195312 c 128,-1,10
 892.599609375 607.599609375 892.599609375 607.599609375 893.5 580.400390625 c 128,-1,11
 894.400390625 553.200195312 894.400390625 553.200195312 894.400390625 500.400390625 c 0,12,13
 894.400390625 358.799804688 894.400390625 358.799804688 865.599609375 289.200195312 c 0,14,15
 835.900390625 216.400390625 835.900390625 216.400390625 767.049804688 172.799804688 c 128,-1,16
 698.200195312 129.200195312 698.200195312 129.200195312 601 129.200195312 c 0,17,18
 492.099609375 129.200195312 492.099609375 129.200195312 421 172 c 128,-1,19
 349.900390625 214.799804688 349.900390625 214.799804688 318.400390625 289.200195312 c 0,20,21
 300.400390625 331.599609375 300.400390625 331.599609375 295 377.599609375 c 128,-1,22
 289.599609375 423.599609375 289.599609375 423.599609375 289.599609375 500.400390625 c 0,23,24
 289.599609375 723.599609375 289.599609375 723.599609375 367 902 c 0,25,26
 441.700195312 1076.40039062 441.700195312 1076.40039062 582.099609375 1290.79980469 c 1,27,-1
 681.099609375 1242 l 1,0,1
404.799804688 500.400390625 m 128,-1,29
 404.799804688 449.200195312 404.799804688 449.200195312 407.950195312 413.599609375 c 128,-1,30
 411.099609375 378 411.099609375 378 422.349609375 339.599609375 c 128,-1,31
 433.599609375 301.200195312 433.599609375 301.200195312 453.400390625 278 c 128,-1,32
 473.200195312 254.799804688 473.200195312 254.799804688 508.299804688 240 c 128,-1,33
 543.400390625 225.200195312 543.400390625 225.200195312 592 225.200195312 c 128,-1,34
 640.599609375 225.200195312 640.599609375 225.200195312 675.700195312 240 c 128,-1,35
 710.799804688 254.799804688 710.799804688 254.799804688 730.599609375 278 c 128,-1,36
 750.400390625 301.200195312 750.400390625 301.200195312 761.650390625 339.599609375 c 128,-1,37
 772.900390625 378 772.900390625 378 776.049804688 413.599609375 c 128,-1,38
 779.200195312 449.200195312 779.200195312 449.200195312 779.200195312 500.400390625 c 128,-1,39
 779.200195312 551.599609375 779.200195312 551.599609375 776.049804688 587.200195312 c 128,-1,40
 772.900390625 622.799804688 772.900390625 622.799804688 761.650390625 661.200195312 c 128,-1,41
 750.400390625 699.599609375 750.400390625 699.599609375 730.599609375 722.799804688 c 128,-1,42
 710.799804688 746 710.799804688 746 675.700195312 760.799804688 c 128,-1,43
 640.599609375 775.599609375 640.599609375 775.599609375 592 775.599609375 c 128,-1,44
 543.400390625 775.599609375 543.400390625 775.599609375 508.299804688 760.799804688 c 128,-1,45
 473.200195312 746 473.200195312 746 453.400390625 722.799804688 c 128,-1,46
 433.599609375 699.599609375 433.599609375 699.599609375 422.349609375 661.200195312 c 128,-1,47
 411.099609375 622.799804688 411.099609375 622.799804688 407.950195312 587.200195312 c 128,-1,28
 404.799804688 551.599609375 404.799804688 551.599609375 404.799804688 500.400390625 c 128,-1,29
EndSplineSet
Substitution2: "'ss13' Style Set 13 lookup 114 subtable" six.round
EndChar

StartChar: seven
Encoding: 55 55 26
Width: 979
VWidth: 1369
GlyphClass: 2
Flags: W
LayerCount: 2
Fore
SplineSet
230.400390625 1171.20019531 m 1,0,-1
 230.400390625 1267.20019531 l 1,1,-1
 921.599609375 1267.20019531 l 1,2,-1
 921.599609375 1195.20019531 l 1,3,-1
 500.400390625 140.799804688 l 1,4,-1
 384.299804688 140.799804688 l 1,5,-1
 800.099609375 1163.20019531 l 1,6,-1
 800.099609375 1171.20019531 l 1,7,-1
 230.400390625 1171.20019531 l 1,0,-1
EndSplineSet
EndChar

StartChar: eight
Encoding: 56 56 27
Width: 979
VWidth: 1369
GlyphClass: 2
Flags: W
LayerCount: 2
Fore
SplineSet
576 1184 m 128,-1,1
 483.299804688 1184 483.299804688 1184 437.849609375 1126.40039062 c 128,-1,2
 392.400390625 1068.79980469 392.400390625 1068.79980469 392.400390625 976.799804688 c 0,3,4
 392.400390625 884 392.400390625 884 438.75 822 c 128,-1,5
 485.099609375 760 485.099609375 760 576 760 c 128,-1,6
 666.900390625 760 666.900390625 760 713.25 822 c 128,-1,7
 759.599609375 884 759.599609375 884 759.599609375 976.799804688 c 0,8,9
 759.599609375 1068.79980469 759.599609375 1068.79980469 714.150390625 1126.40039062 c 128,-1,0
 668.700195312 1184 668.700195312 1184 576 1184 c 128,-1,1
576 1280 m 128,-1,11
 718.200195312 1280 718.200195312 1280 796.5 1194 c 128,-1,12
 874.799804688 1108 874.799804688 1108 874.799804688 976.799804688 c 0,13,14
 874.799804688 794.400390625 874.799804688 794.400390625 733.5 719.200195312 c 1,15,-1
 733.5 711.200195312 l 1,16,17
 892.799804688 634.400390625 892.799804688 634.400390625 892.799804688 440 c 0,18,19
 892.799804688 304 892.799804688 304 809.099609375 216 c 128,-1,20
 725.400390625 128 725.400390625 128 576 128 c 128,-1,21
 426.599609375 128 426.599609375 128 342.900390625 216 c 128,-1,22
 259.200195312 304 259.200195312 304 259.200195312 440 c 0,23,24
 259.200195312 634.400390625 259.200195312 634.400390625 418.5 711.200195312 c 1,25,-1
 418.5 719.200195312 l 1,26,27
 277.200195312 794.400390625 277.200195312 794.400390625 277.200195312 976.799804688 c 0,28,29
 277.200195312 1108 277.200195312 1108 355.5 1194 c 128,-1,10
 433.799804688 1280 433.799804688 1280 576 1280 c 128,-1,11
576 664 m 128,-1,31
 476.099609375 664 476.099609375 664 425.25 600.799804688 c 128,-1,32
 374.400390625 537.599609375 374.400390625 537.599609375 374.400390625 440 c 0,33,34
 374.400390625 343.200195312 374.400390625 343.200195312 424.799804688 283.599609375 c 128,-1,35
 475.200195312 224 475.200195312 224 576 224 c 128,-1,36
 676.799804688 224 676.799804688 224 727.200195312 283.599609375 c 128,-1,37
 777.599609375 343.200195312 777.599609375 343.200195312 777.599609375 440 c 0,38,39
 777.599609375 537.599609375 777.599609375 537.599609375 726.75 600.799804688 c 128,-1,30
 675.900390625 664 675.900390625 664 576 664 c 128,-1,31
EndSplineSet
EndChar

StartChar: nine
Encoding: 57 57 28
Width: 977
VWidth: 1368
GlyphClass: 2
Flags: W
LayerCount: 2
Fore
SplineSet
560 1278.79980469 m 128,-1,1
 662.599609375 1278.79980469 662.599609375 1278.79980469 732.799804688 1235.59960938 c 128,-1,2
 803 1192.40039062 803 1192.40039062 833.599609375 1118.79980469 c 0,3,4
 851.599609375 1076.40039062 851.599609375 1076.40039062 857 1030.79980469 c 128,-1,5
 862.400390625 985.200195312 862.400390625 985.200195312 862.400390625 907.599609375 c 0,6,7
 862.400390625 684.400390625 862.400390625 684.400390625 785 506 c 0,8,9
 710.299804688 331.599609375 710.299804688 331.599609375 569.900390625 117.200195312 c 1,10,-1
 470.900390625 166 l 1,11,12
 623 396.400390625 623 396.400390625 695 574.799804688 c 1,13,-1
 686.900390625 578 l 1,14,15
 625.700195312 536.400390625 625.700195312 536.400390625 542 536.400390625 c 0,16,17
 445.700195312 536.400390625 445.700195312 536.400390625 379.549804688 579.599609375 c 128,-1,18
 313.400390625 622.799804688 313.400390625 622.799804688 282.799804688 696.400390625 c 0,19,20
 271.099609375 725.200195312 271.099609375 725.200195312 265.25 762.799804688 c 128,-1,21
 259.400390625 800.400390625 259.400390625 800.400390625 258.5 827.599609375 c 128,-1,22
 257.599609375 854.799804688 257.599609375 854.799804688 257.599609375 907.599609375 c 0,23,24
 257.599609375 1049.20019531 257.599609375 1049.20019531 286.400390625 1118.79980469 c 0,25,26
 317 1192.40039062 317 1192.40039062 387.200195312 1235.59960938 c 128,-1,0
 457.400390625 1278.79980469 457.400390625 1278.79980469 560 1278.79980469 c 128,-1,1
560 1182.79980469 m 128,-1,28
 511.400390625 1182.79980469 511.400390625 1182.79980469 476.299804688 1168 c 128,-1,29
 441.200195312 1153.20019531 441.200195312 1153.20019531 421.400390625 1130 c 128,-1,30
 401.599609375 1106.79980469 401.599609375 1106.79980469 390.349609375 1068.40039062 c 128,-1,31
 379.099609375 1030 379.099609375 1030 375.950195312 994.400390625 c 128,-1,32
 372.799804688 958.799804688 372.799804688 958.799804688 372.799804688 907.599609375 c 128,-1,33
 372.799804688 856.400390625 372.799804688 856.400390625 375.950195312 820.799804688 c 128,-1,34
 379.099609375 785.200195312 379.099609375 785.200195312 390.349609375 746.799804688 c 128,-1,35
 401.599609375 708.400390625 401.599609375 708.400390625 421.400390625 685.200195312 c 128,-1,36
 441.200195312 662 441.200195312 662 476.299804688 647.200195312 c 128,-1,37
 511.400390625 632.400390625 511.400390625 632.400390625 560 632.400390625 c 128,-1,38
 608.599609375 632.400390625 608.599609375 632.400390625 643.700195312 647.200195312 c 128,-1,39
 678.799804688 662 678.799804688 662 698.599609375 685.200195312 c 128,-1,40
 718.400390625 708.400390625 718.400390625 708.400390625 729.650390625 746.799804688 c 128,-1,41
 740.900390625 785.200195312 740.900390625 785.200195312 744.049804688 820.799804688 c 128,-1,42
 747.200195312 856.400390625 747.200195312 856.400390625 747.200195312 907.599609375 c 128,-1,43
 747.200195312 958.799804688 747.200195312 958.799804688 744.049804688 994.400390625 c 128,-1,44
 740.900390625 1030 740.900390625 1030 729.650390625 1068.40039062 c 128,-1,45
 718.400390625 1106.79980469 718.400390625 1106.79980469 698.599609375 1130 c 128,-1,46
 678.799804688 1153.20019531 678.799804688 1153.20019531 643.700195312 1168 c 128,-1,27
 608.599609375 1182.79980469 608.599609375 1182.79980469 560 1182.79980469 c 128,-1,28
EndSplineSet
Substitution2: "'ss13' Style Set 13 lookup 114 subtable" nine.round
EndChar

StartChar: colon
Encoding: 58 58 29
Width: 972
VWidth: 1331
GlyphClass: 2
Flags: W
LayerCount: 2
Fore
SplineSet
396.799804688 294.400390625 m 1,0,-1
 627.200195312 294.400390625 l 1,1,-1
 627.200195312 102.400390625 l 1,2,-1
 396.799804688 102.400390625 l 1,3,-1
 396.799804688 294.400390625 l 1,0,-1
396.799804688 921.599609375 m 1,4,-1
 627.200195312 921.599609375 l 1,5,-1
 627.200195312 729.599609375 l 1,6,-1
 396.799804688 729.599609375 l 1,7,-1
 396.799804688 921.599609375 l 1,4,-1
EndSplineSet
Substitution2: "Single Substitution lookup 83 subtable" colon.2r
Substitution2: "Single Substitution lookup 82 subtable" colon.2l
Substitution2: "Single Substitution lookup 47 subtable" liga15
Position2: "Single Positioning lookup 23 subtable" dx=115 dy=0 dh=0 dv=0
Position2: "Single Positioning lookup 21 subtable" dx=-115 dy=0 dh=0 dv=0
Position2: "Single Positioning lookup 15 subtable" dx=115 dy=0 dh=0 dv=0
Position2: "Single Positioning lookup 12 subtable" dx=115 dy=0 dh=0 dv=0
Position2: "Single Positioning lookup 10 subtable" dx=115 dy=0 dh=0 dv=0
Position2: "Single Positioning lookup 5 subtable" dx=115 dy=0 dh=0 dv=0
Position2: "Single Positioning lookup 4 subtable" dx=115 dy=0 dh=0 dv=0
Position2: "Single Positioning lookup 3 subtable" dx=115 dy=0 dh=0 dv=0
Position2: "Single Positioning lookup 1 subtable" dx=115 dy=0 dh=0 dv=0
Position2: "Single Positioning lookup 0 subtable" dx=115 dy=0 dh=0 dv=0
EndChar

StartChar: semicolon
Encoding: 59 59 30
Width: 972
VWidth: 1304
GlyphClass: 2
Flags: W
LayerCount: 2
Fore
SplineSet
396.799804688 894.400390625 m 1,0,-1
 627.200195312 894.400390625 l 1,1,-1
 627.200195312 702.400390625 l 1,2,-1
 396.799804688 702.400390625 l 1,3,-1
 396.799804688 894.400390625 l 1,0,-1
396.799804688 369.599609375 m 1,4,-1
 627.200195312 369.599609375 l 1,5,-1
 627.200195312 93.599609375 l 2,6,7
 627.200195312 60.7998046875 627.200195312 60.7998046875 625.849609375 41.599609375 c 128,-1,8
 624.5 22.400390625 624.5 22.400390625 613.25 -9.2001953125 c 128,-1,9
 602 -40.7998046875 602 -40.7998046875 580.400390625 -66.400390625 c 0,10,11
 517.400390625 -142.400390625 517.400390625 -142.400390625 396.799804688 -142.400390625 c 1,12,-1
 396.799804688 -46.400390625 l 1,13,14
 456.200195312 -46.400390625 456.200195312 -46.400390625 486.799804688 -10.400390625 c 0,15,16
 498.5 3.2001953125 498.5 3.2001953125 504.349609375 22 c 128,-1,17
 510.200195312 40.7998046875 510.200195312 40.7998046875 511.099609375 54 c 128,-1,18
 512 67.2001953125 512 67.2001953125 512 93.599609375 c 2,19,-1
 512 177.599609375 l 1,20,-1
 396.799804688 177.599609375 l 1,21,-1
 396.799804688 369.599609375 l 1,4,-1
EndSplineSet
Position2: "Single Positioning lookup 23 subtable" dx=115 dy=0 dh=0 dv=0
Position2: "Single Positioning lookup 21 subtable" dx=-115 dy=0 dh=0 dv=0
Position2: "Single Positioning lookup 15 subtable" dx=115 dy=0 dh=0 dv=0
Position2: "Single Positioning lookup 12 subtable" dx=115 dy=0 dh=0 dv=0
Position2: "Single Positioning lookup 10 subtable" dx=115 dy=0 dh=0 dv=0
Position2: "Single Positioning lookup 5 subtable" dx=115 dy=0 dh=0 dv=0
Position2: "Single Positioning lookup 4 subtable" dx=115 dy=0 dh=0 dv=0
Position2: "Single Positioning lookup 3 subtable" dx=115 dy=0 dh=0 dv=0
Position2: "Single Positioning lookup 1 subtable" dx=115 dy=0 dh=0 dv=0
Position2: "Single Positioning lookup 0 subtable" dx=115 dy=0 dh=0 dv=0
EndChar

StartChar: less
Encoding: 60 60 31
Width: 979
VWidth: 1344
GlyphClass: 2
Flags: W
LayerCount: 2
Fore
SplineSet
407.900390625 572 m 1,0,-1
 867.799804688 191.200195312 l 1,1,-1
 790.400390625 119.200195312 l 1,2,-1
 288.200195312 540 l 1,3,-1
 288.200195312 612 l 1,4,-1
 790.400390625 1032.79980469 l 1,5,-1
 867.799804688 960.799804688 l 1,6,-1
 407.900390625 580 l 1,7,-1
 407.900390625 572 l 1,0,-1
EndSplineSet
Substitution2: "Single Substitution lookup 95 subtable" less2
Substitution2: "Single Substitution lookup 94 subtable" less1
Substitution2: "Single Substitution lookup 89 subtable" rangeless
Substitution2: "Single Substitution lookup 57 subtable" equallessless
Substitution2: "Single Substitution lookup 56 subtable" liga18
Substitution2: "Single Substitution lookup 50 subtable" liga16
Substitution2: "Single Substitution lookup 43 subtable" liga14
Substitution2: "Single Substitution lookup 36 subtable" liga12
Substitution2: "Single Substitution lookup 33 subtable" liga11
Substitution2: "Single Substitution lookup 15 subtable" liga4
Substitution2: "Single Substitution lookup 13 subtable" liga3
Substitution2: "Single Substitution lookup 12 subtable" liga3
Substitution2: "Single Substitution lookup 9 subtable" liga2
Substitution2: "Single Substitution lookup 5 subtable" liga1
EndChar

StartChar: equal
Encoding: 61 61 32
Width: 979
VWidth: 1344
GlyphClass: 2
Flags: W
LayerCount: 2
Fore
SplineSet
288 419.200195312 m 1,0,-1
 864 419.200195312 l 1,1,-1
 864 323.200195312 l 1,2,-1
 288 323.200195312 l 1,3,-1
 288 419.200195312 l 1,0,-1
288 828.799804688 m 1,4,-1
 864 828.799804688 l 1,5,-1
 864 732.799804688 l 1,6,-1
 288 732.799804688 l 1,7,-1
 288 828.799804688 l 1,4,-1
EndSplineSet
Substitution2: "Single Substitution lookup 101 subtable" equal.wide
Substitution2: "Single Substitution lookup 63 subtable" equalcompare
Substitution2: "Single Substitution lookup 62 subtable" liga20
Substitution2: "Single Substitution lookup 60 subtable" liga19
Substitution2: "Single Substitution lookup 59 subtable" greaterequalliga
Substitution2: "Single Substitution lookup 55 subtable" liga18
Substitution2: "Single Substitution lookup 54 subtable" greatergreaterequal
Substitution2: "Single Substitution lookup 51 subtable" lessequalliga
Substitution2: "Single Substitution lookup 49 subtable" equal.after
Substitution2: "Single Substitution lookup 48 subtable" equalcolonequal
Substitution2: "Single Substitution lookup 46 subtable" liga15
Substitution2: "Single Substitution lookup 45 subtable" leftarrowequallong
Substitution2: "Single Substitution lookup 44 subtable" liga14
Substitution2: "Single Substitution lookup 41 subtable" liga13
Substitution2: "Single Substitution lookup 40 subtable" liga13
Substitution2: "Single Substitution lookup 38 subtable" liga12
Substitution2: "Single Substitution lookup 37 subtable" liga12
Substitution2: "Single Substitution lookup 34 subtable" liga11
Substitution2: "Single Substitution lookup 32 subtable" equaltypeliga
Substitution2: "Single Substitution lookup 31 subtable" liga10
Substitution2: "Single Substitution lookup 30 subtable" liga10
Substitution2: "Single Substitution lookup 29 subtable" notequalliga
Substitution2: "Single Substitution lookup 27 subtable" notequaltypeliga
Substitution2: "Single Substitution lookup 26 subtable" liga8
EndChar

StartChar: greater
Encoding: 62 62 33
Width: 979
VWidth: 1344
GlyphClass: 2
Flags: W
LayerCount: 2
Fore
SplineSet
744.099609375 572 m 1,0,-1
 744.099609375 580 l 1,1,-1
 284.200195312 960.799804688 l 1,2,-1
 361.599609375 1032.79980469 l 1,3,-1
 863.799804688 612 l 1,4,-1
 863.799804688 540 l 1,5,-1
 361.599609375 119.200195312 l 1,6,-1
 284.200195312 191.200195312 l 1,7,-1
 744.099609375 572 l 1,0,-1
EndSplineSet
Substitution2: "Single Substitution lookup 93 subtable" greater2
Substitution2: "Single Substitution lookup 92 subtable" greater1
Substitution2: "Single Substitution lookup 61 subtable" ligaequalarrow
Substitution2: "Single Substitution lookup 58 subtable" liga18
Substitution2: "Single Substitution lookup 53 subtable" liga17
Substitution2: "Single Substitution lookup 52 subtable" liga17
Substitution2: "Single Substitution lookup 42 subtable" rightarrowequallong
Substitution2: "Single Substitution lookup 39 subtable" lessequalequalgreater
Substitution2: "Single Substitution lookup 35 subtable" lessequalgreater
Substitution2: "Single Substitution lookup 24 subtable" arrowright.liga
Substitution2: "Single Substitution lookup 22 subtable" ligaarrowrighttwoheads
Substitution2: "Single Substitution lookup 21 subtable" liga6
Substitution2: "Single Substitution lookup 19 subtable" ligaarrowrightlong
EndChar

StartChar: question
Encoding: 63 63 34
Width: 980
VWidth: 1369
GlyphClass: 2
Flags: W
LayerCount: 2
Fore
SplineSet
577.700195312 358.400390625 m 128,-1,1
 635.299804688 358.400390625 635.299804688 358.400390625 671.299804688 326.400390625 c 128,-1,2
 707.299804688 294.400390625 707.299804688 294.400390625 707.299804688 243.200195312 c 128,-1,3
 707.299804688 192 707.299804688 192 671.299804688 160 c 128,-1,4
 635.299804688 128 635.299804688 128 577.700195312 128 c 128,-1,5
 520.099609375 128 520.099609375 128 484.099609375 160 c 128,-1,6
 448.099609375 192 448.099609375 192 448.099609375 243.200195312 c 128,-1,7
 448.099609375 294.400390625 448.099609375 294.400390625 484.099609375 326.400390625 c 128,-1,0
 520.099609375 358.400390625 520.099609375 358.400390625 577.700195312 358.400390625 c 128,-1,1
520.099609375 550.400390625 m 1,8,9
 520.099609375 613.599609375 520.099609375 613.599609375 538.099609375 665.200195312 c 128,-1,10
 556.099609375 716.799804688 556.099609375 716.799804688 609.200195312 765.599609375 c 0,11,12
 650.599609375 803.200195312 650.599609375 803.200195312 671.75 824.799804688 c 128,-1,13
 692.900390625 846.400390625 692.900390625 846.400390625 717.200195312 878.400390625 c 128,-1,14
 741.5 910.400390625 741.5 910.400390625 751.400390625 942.799804688 c 128,-1,15
 761.299804688 975.200195312 761.299804688 975.200195312 761.299804688 1014.40039062 c 0,16,17
 761.299804688 1098.40039062 761.299804688 1098.40039062 708.200195312 1141.20019531 c 128,-1,18
 655.099609375 1184 655.099609375 1184 539.900390625 1184 c 0,19,20
 456.200195312 1184 456.200195312 1184 309.5 1154.40039062 c 1,21,-1
 309.5 1250.40039062 l 1,22,23
 451.700195312 1280 451.700195312 1280 539.900390625 1280 c 0,24,25
 701.900390625 1280 701.900390625 1280 789.200195312 1209.59960938 c 128,-1,26
 876.5 1139.20019531 876.5 1139.20019531 876.5 1014.40039062 c 0,27,28
 876.5 965.599609375 876.5 965.599609375 863.450195312 922.799804688 c 128,-1,29
 850.400390625 880 850.400390625 880 822.950195312 840.799804688 c 128,-1,30
 795.5 801.599609375 795.5 801.599609375 767.599609375 771.599609375 c 128,-1,31
 739.700195312 741.599609375 739.700195312 741.599609375 695.599609375 701.599609375 c 0,32,33
 667.700195312 676 667.700195312 676 653.299804688 646.799804688 c 128,-1,34
 638.900390625 617.599609375 638.900390625 617.599609375 637.099609375 599.599609375 c 128,-1,35
 635.299804688 581.599609375 635.299804688 581.599609375 635.299804688 550.400390625 c 1,36,-1
 520.099609375 550.400390625 l 1,8,9
EndSplineSet
EndChar

StartChar: at
Encoding: 64 64 35
Width: 979
VWidth: 1369
GlyphClass: 2
Flags: W
LayerCount: 2
Fore
SplineSet
864 857.599609375 m 1,0,-1
 716.400390625 857.599609375 l 2,1,2
 683.099609375 857.599609375 683.099609375 857.599609375 664.650390625 856 c 128,-1,3
 646.200195312 854.400390625 646.200195312 854.400390625 618.299804688 844.400390625 c 128,-1,4
 590.400390625 834.400390625 590.400390625 834.400390625 568.799804688 814.400390625 c 0,5,6
 518.400390625 767.200195312 518.400390625 767.200195312 518.400390625 690.400390625 c 0,7,8
 518.400390625 622.400390625 518.400390625 622.400390625 558.900390625 576.799804688 c 128,-1,9
 599.400390625 531.200195312 599.400390625 531.200195312 669.599609375 531.200195312 c 0,10,11
 709.200195312 531.200195312 709.200195312 531.200195312 740.25 542.400390625 c 128,-1,12
 771.299804688 553.599609375 771.299804688 553.599609375 791.099609375 570.400390625 c 128,-1,13
 810.900390625 587.200195312 810.900390625 587.200195312 825.75 614.400390625 c 128,-1,14
 840.599609375 641.599609375 840.599609375 641.599609375 847.799804688 665.200195312 c 128,-1,15
 855 688.799804688 855 688.799804688 858.599609375 722 c 128,-1,16
 862.200195312 755.200195312 862.200195312 755.200195312 863.099609375 775.599609375 c 128,-1,17
 864 796 864 796 864 824.799804688 c 2,18,-1
 864 857.599609375 l 1,0,-1
979.200195312 953.599609375 m 2,19,-1
 979.200195312 448 l 1,20,-1
 864 448 l 1,21,-1
 864 546.400390625 l 1,22,-1
 855 546.400390625 l 1,23,24
 771.299804688 435.200195312 771.299804688 435.200195312 648 435.200195312 c 0,25,26
 544.5 435.200195312 544.5 435.200195312 473.849609375 507.200195312 c 128,-1,27
 403.200195312 579.200195312 403.200195312 579.200195312 403.200195312 688.799804688 c 0,28,29
 403.200195312 804 403.200195312 804 482.400390625 874.400390625 c 0,30,31
 511.200195312 899.200195312 511.200195312 899.200195312 543.599609375 915.200195312 c 128,-1,32
 576 931.200195312 576 931.200195312 611.549804688 937.200195312 c 128,-1,33
 647.099609375 943.200195312 647.099609375 943.200195312 667.349609375 944.400390625 c 128,-1,34
 687.599609375 945.599609375 687.599609375 945.599609375 718.200195312 945.599609375 c 2,35,-1
 864 945.599609375 l 1,36,37
 864 1020.79980469 864 1020.79980469 855 1052 c 0,38,39
 829.799804688 1140 829.799804688 1140 730.799804688 1163.20019531 c 0,40,41
 696.599609375 1171.20019531 696.599609375 1171.20019531 621.900390625 1171.20019531 c 0,42,43
 522.900390625 1171.20019531 522.900390625 1171.20019531 477 1160.79980469 c 0,44,45
 336.599609375 1128.79980469 336.599609375 1128.79980469 299.700195312 1000.79980469 c 0,46,47
 288 960 288 960 288 871.200195312 c 2,48,-1
 288 536.799804688 l 2,49,50
 288 448 288 448 299.700195312 407.200195312 c 0,51,52
 334.799804688 280 334.799804688 280 477 247.200195312 c 0,53,54
 522.900390625 236.799804688 522.900390625 236.799804688 621.900390625 236.799804688 c 0,55,56
 747 236.799804688 747 236.799804688 909.900390625 253.599609375 c 1,57,-1
 909.900390625 157.599609375 l 1,58,59
 748.799804688 140.799804688 748.799804688 140.799804688 621.900390625 140.799804688 c 0,60,61
 508.5 140.799804688 508.5 140.799804688 447.299804688 154.400390625 c 0,62,63
 349.200195312 176 349.200195312 176 280.349609375 235.599609375 c 128,-1,64
 211.5 295.200195312 211.5 295.200195312 187.200195312 386.400390625 c 0,65,66
 172.799804688 440 172.799804688 440 172.799804688 536.799804688 c 2,67,-1
 172.799804688 871.200195312 l 2,68,69
 172.799804688 968 172.799804688 968 187.200195312 1021.59960938 c 0,70,71
 211.5 1112.79980469 211.5 1112.79980469 280.349609375 1172.40039062 c 128,-1,72
 349.200195312 1232 349.200195312 1232 447.299804688 1253.59960938 c 0,73,74
 508.5 1267.20019531 508.5 1267.20019531 621.900390625 1267.20019531 c 0,75,76
 711 1267.20019531 711 1267.20019531 760.5 1256 c 0,77,78
 840.599609375 1237.59960938 840.599609375 1237.59960938 894.150390625 1190 c 128,-1,79
 947.700195312 1142.40039062 947.700195312 1142.40039062 967.5 1072 c 0,80,81
 979.200195312 1030.40039062 979.200195312 1030.40039062 979.200195312 953.599609375 c 2,19,-1
EndSplineSet
EndChar

StartChar: A
Encoding: 65 65 36
Width: 979
VWidth: 1369
GlyphClass: 2
Flags: W
LayerCount: 2
Fore
SplineSet
150.299804688 140.799804688 m 1,0,1
 230.400390625 811.200195312 230.400390625 811.200195312 517.5 1267.20019531 c 1,2,-1
 634.5 1267.20019531 l 1,3,4
 921.599609375 811.200195312 921.599609375 811.200195312 1001.70019531 140.799804688 c 1,5,-1
 880.200195312 140.799804688 l 1,6,7
 866.700195312 285.599609375 866.700195312 285.599609375 830.700195312 451.200195312 c 1,8,-1
 321.299804688 451.200195312 l 1,9,10
 316.799804688 426.400390625 316.799804688 426.400390625 307.799804688 378 c 128,-1,11
 298.799804688 329.599609375 298.799804688 329.599609375 293.400390625 298.400390625 c 128,-1,12
 288 267.200195312 288 267.200195312 281.700195312 223.200195312 c 128,-1,13
 275.400390625 179.200195312 275.400390625 179.200195312 271.799804688 140.799804688 c 1,14,-1
 150.299804688 140.799804688 l 1,0,1
811.799804688 547.200195312 m 1,15,16
 759.599609375 743.200195312 759.599609375 743.200195312 706.5 891.200195312 c 128,-1,17
 653.400390625 1039.20019531 653.400390625 1039.20019531 580.5 1164 c 1,18,-1
 571.5 1164 l 1,19,20
 498.599609375 1039.20019531 498.599609375 1039.20019531 445.5 891.200195312 c 128,-1,21
 392.400390625 743.200195312 392.400390625 743.200195312 340.200195312 547.200195312 c 1,22,-1
 811.799804688 547.200195312 l 1,15,16
EndSplineSet
Position2: "Single Positioning lookup 22 subtable" dx=115 dy=0 dh=0 dv=0
Position2: "Single Positioning lookup 20 subtable" dx=-115 dy=0 dh=0 dv=0
Position2: "Single Positioning lookup 19 subtable" dx=0 dy=0 dh=0 dv=0
Position2: "Single Positioning lookup 14 subtable" dx=0 dy=0 dh=0 dv=0
EndChar

StartChar: B
Encoding: 66 66 37
Width: 978
VWidth: 1369
GlyphClass: 2
Flags: W
LayerCount: 2
Fore
SplineSet
460.5 755.200195312 m 2,0,1
 561.299804688 755.200195312 561.299804688 755.200195312 597.299804688 763.200195312 c 0,2,3
 672 779.200195312 672 779.200195312 717 832.400390625 c 128,-1,4
 762 885.599609375 762 885.599609375 762 963.200195312 c 0,5,6
 762 1041.59960938 762 1041.59960938 716.549804688 1095.20019531 c 128,-1,7
 671.099609375 1148.79980469 671.099609375 1148.79980469 597.299804688 1163.20019531 c 0,8,9
 556.799804688 1171.20019531 556.799804688 1171.20019531 460.5 1171.20019531 c 2,10,-1
 286.799804688 1171.20019531 l 1,11,-1
 286.799804688 755.200195312 l 1,12,-1
 460.5 755.200195312 l 2,0,1
727.799804688 721.599609375 m 1,13,14
 830.400390625 696.799804688 830.400390625 696.799804688 893.400390625 622.799804688 c 128,-1,15
 956.400390625 548.799804688 956.400390625 548.799804688 956.400390625 448 c 0,16,17
 956.400390625 336 956.400390625 336 890.25 256.400390625 c 128,-1,18
 824.099609375 176.799804688 824.099609375 176.799804688 718.799804688 153.599609375 c 0,19,20
 661.200195312 140.799804688 661.200195312 140.799804688 527.099609375 140.799804688 c 2,21,-1
 171.599609375 140.799804688 l 1,22,-1
 171.599609375 1267.20019531 l 1,23,-1
 460.5 1267.20019531 l 2,24,25
 576.599609375 1267.20019531 576.599609375 1267.20019531 626.099609375 1256.79980469 c 0,26,27
 736.799804688 1233.59960938 736.799804688 1233.59960938 807 1155.20019531 c 128,-1,28
 877.200195312 1076.79980469 877.200195312 1076.79980469 877.200195312 963.200195312 c 0,29,30
 877.200195312 883.200195312 877.200195312 883.200195312 837.150390625 822.799804688 c 128,-1,31
 797.099609375 762.400390625 797.099609375 762.400390625 727.799804688 729.599609375 c 1,32,-1
 727.799804688 721.599609375 l 1,13,14
286.799804688 659.200195312 m 1,33,-1
 286.799804688 236.799804688 l 1,34,-1
 527.099609375 236.799804688 l 2,35,36
 649.5 236.799804688 649.5 236.799804688 690 246.400390625 c 0,37,38
 757.5 262.400390625 757.5 262.400390625 799.349609375 316.799804688 c 128,-1,39
 841.200195312 371.200195312 841.200195312 371.200195312 841.200195312 448 c 0,40,41
 841.200195312 525.599609375 841.200195312 525.599609375 799.799804688 580.400390625 c 128,-1,42
 758.400390625 635.200195312 758.400390625 635.200195312 690 649.599609375 c 0,43,44
 645.900390625 659.200195312 645.900390625 659.200195312 527.099609375 659.200195312 c 2,45,-1
 286.799804688 659.200195312 l 1,33,-1
EndSplineSet
Position2: "Single Positioning lookup 22 subtable" dx=115 dy=0 dh=0 dv=0
Position2: "Single Positioning lookup 20 subtable" dx=-115 dy=0 dh=0 dv=0
Position2: "Single Positioning lookup 19 subtable" dx=0 dy=0 dh=0 dv=0
Position2: "Single Positioning lookup 14 subtable" dx=0 dy=0 dh=0 dv=0
EndChar

StartChar: C
Encoding: 67 67 38
Width: 978
VWidth: 1369
GlyphClass: 2
Flags: W
LayerCount: 2
Fore
SplineSet
978.400390625 247.200195312 m 1,0,-1
 978.400390625 151.200195312 l 1,1,2
 797.5 128 797.5 128 653.5 128 c 0,3,4
 461.799804688 128 461.799804688 128 344.349609375 210 c 128,-1,5
 226.900390625 292 226.900390625 292 185.5 432 c 0,6,7
 157.599609375 529.599609375 157.599609375 529.599609375 157.599609375 704 c 128,-1,8
 157.599609375 878.400390625 157.599609375 878.400390625 185.5 976 c 0,9,10
 227.799804688 1116.79980469 227.799804688 1116.79980469 341.200195312 1198.40039062 c 128,-1,11
 454.599609375 1280 454.599609375 1280 644.5 1280 c 0,12,13
 788.5 1280 788.5 1280 951.400390625 1256.79980469 c 1,14,-1
 951.400390625 1160.79980469 l 1,15,16
 782.200195312 1184 782.200195312 1184 644.5 1184 c 0,17,18
 365.5 1184 365.5 1184 298 953.599609375 c 0,19,20
 272.799804688 866.400390625 272.799804688 866.400390625 272.799804688 704 c 128,-1,21
 272.799804688 541.599609375 272.799804688 541.599609375 298 454.400390625 c 0,22,23
 367.299804688 224 367.299804688 224 653.5 224 c 0,24,25
 791.200195312 224 791.200195312 224 978.400390625 247.200195312 c 1,0,-1
EndSplineSet
Position2: "Single Positioning lookup 22 subtable" dx=115 dy=0 dh=0 dv=0
Position2: "Single Positioning lookup 20 subtable" dx=-115 dy=0 dh=0 dv=0
Position2: "Single Positioning lookup 19 subtable" dx=0 dy=0 dh=0 dv=0
Position2: "Single Positioning lookup 14 subtable" dx=0 dy=0 dh=0 dv=0
EndChar

StartChar: D
Encoding: 68 68 39
Width: 980
VWidth: 1369
GlyphClass: 2
Flags: W
LayerCount: 2
Fore
SplineSet
485 1267.20019531 m 2,0,1
 774.799804688 1267.20019531 774.799804688 1267.20019531 907.099609375 1077.59960938 c 0,2,3
 958.400390625 1005.59960938 958.400390625 1005.59960938 976.400390625 914.400390625 c 128,-1,4
 994.400390625 823.200195312 994.400390625 823.200195312 994.400390625 704 c 128,-1,5
 994.400390625 584.799804688 994.400390625 584.799804688 976.400390625 493.599609375 c 128,-1,6
 958.400390625 402.400390625 958.400390625 402.400390625 907.099609375 330.400390625 c 0,7,8
 774.799804688 140.799804688 774.799804688 140.799804688 485 140.799804688 c 2,9,-1
 173.599609375 140.799804688 l 1,10,-1
 173.599609375 1267.20019531 l 1,11,-1
 485 1267.20019531 l 2,0,1
879.200195312 704 m 128,-1,13
 879.200195312 822.400390625 879.200195312 822.400390625 861.650390625 904.799804688 c 128,-1,14
 844.099609375 987.200195312 844.099609375 987.200195312 800.900390625 1041.59960938 c 0,15,16
 698.299804688 1171.20019531 698.299804688 1171.20019531 485 1171.20019531 c 2,17,-1
 288.799804688 1171.20019531 l 1,18,-1
 288.799804688 236.799804688 l 1,19,-1
 485 236.799804688 l 2,20,21
 698.299804688 236.799804688 698.299804688 236.799804688 800.900390625 366.400390625 c 0,22,23
 844.099609375 420.799804688 844.099609375 420.799804688 861.650390625 503.200195312 c 128,-1,12
 879.200195312 585.599609375 879.200195312 585.599609375 879.200195312 704 c 128,-1,13
EndSplineSet
Position2: "Single Positioning lookup 22 subtable" dx=115 dy=0 dh=0 dv=0
Position2: "Single Positioning lookup 20 subtable" dx=-115 dy=0 dh=0 dv=0
Position2: "Single Positioning lookup 19 subtable" dx=0 dy=0 dh=0 dv=0
Position2: "Single Positioning lookup 14 subtable" dx=0 dy=0 dh=0 dv=0
EndChar

StartChar: E
Encoding: 69 69 40
Width: 985
VWidth: 1369
GlyphClass: 2
Flags: W
LayerCount: 2
Fore
SplineSet
294.400390625 1267.20019531 m 1,0,-1
 985.599609375 1267.20019531 l 1,1,-1
 985.599609375 1171.20019531 l 1,2,-1
 409.599609375 1171.20019531 l 1,3,-1
 409.599609375 755.200195312 l 1,4,-1
 870.400390625 755.200195312 l 1,5,-1
 870.400390625 659.200195312 l 1,6,-1
 409.599609375 659.200195312 l 1,7,-1
 409.599609375 236.799804688 l 1,8,-1
 985.599609375 236.799804688 l 1,9,-1
 985.599609375 140.799804688 l 1,10,-1
 294.400390625 140.799804688 l 1,11,-1
 294.400390625 1267.20019531 l 1,0,-1
EndSplineSet
Position2: "Single Positioning lookup 22 subtable" dx=115 dy=0 dh=0 dv=0
Position2: "Single Positioning lookup 20 subtable" dx=-115 dy=0 dh=0 dv=0
Position2: "Single Positioning lookup 19 subtable" dx=0 dy=0 dh=0 dv=0
Position2: "Single Positioning lookup 14 subtable" dx=0 dy=0 dh=0 dv=0
EndChar

StartChar: F
Encoding: 70 70 41
Width: 985
VWidth: 1369
GlyphClass: 2
Flags: W
LayerCount: 2
Fore
SplineSet
294.400390625 1267.20019531 m 1,0,-1
 985.599609375 1267.20019531 l 1,1,-1
 985.599609375 1171.20019531 l 1,2,-1
 409.599609375 1171.20019531 l 1,3,-1
 409.599609375 748.799804688 l 1,4,-1
 870.400390625 748.799804688 l 1,5,-1
 870.400390625 652.799804688 l 1,6,-1
 409.599609375 652.799804688 l 1,7,-1
 409.599609375 140.799804688 l 1,8,-1
 294.400390625 140.799804688 l 1,9,-1
 294.400390625 1267.20019531 l 1,0,-1
EndSplineSet
EndChar

StartChar: G
Encoding: 71 71 42
Width: 978
VWidth: 1369
GlyphClass: 2
Flags: W
LayerCount: 2
Fore
SplineSet
662.5 1280 m 0,0,1
 792.099609375 1280 792.099609375 1280 933.400390625 1262.40039062 c 1,2,-1
 933.400390625 1166.40039062 l 1,3,4
 785.799804688 1184 785.799804688 1184 662.5 1184 c 0,5,6
 512.200195312 1184 512.200195312 1184 420.849609375 1122.79980469 c 128,-1,7
 329.5 1061.59960938 329.5 1061.59960938 298 953.599609375 c 0,8,9
 272.799804688 866.400390625 272.799804688 866.400390625 272.799804688 704 c 128,-1,10
 272.799804688 541.599609375 272.799804688 541.599609375 298 454.400390625 c 0,11,12
 329.5 346.400390625 329.5 346.400390625 413.200195312 285.200195312 c 128,-1,13
 496.900390625 224 496.900390625 224 635.5 224 c 0,14,15
 740.799804688 224 740.799804688 224 863.200195312 243.200195312 c 1,16,-1
 863.200195312 659.200195312 l 1,17,-1
 632.799804688 659.200195312 l 1,18,-1
 632.799804688 755.200195312 l 1,19,-1
 978.400390625 755.200195312 l 1,20,-1
 978.400390625 168 l 1,21,22
 790.299804688 128 790.299804688 128 635.5 128 c 0,23,24
 454.599609375 128 454.599609375 128 339.849609375 210.400390625 c 128,-1,25
 225.099609375 292.799804688 225.099609375 292.799804688 185.5 432 c 0,26,27
 157.599609375 529.599609375 157.599609375 529.599609375 157.599609375 704 c 128,-1,28
 157.599609375 878.400390625 157.599609375 878.400390625 185.5 976 c 0,29,30
 225.099609375 1115.20019531 225.099609375 1115.20019531 347.950195312 1197.59960938 c 128,-1,31
 470.799804688 1280 470.799804688 1280 662.5 1280 c 0,0,1
EndSplineSet
Position2: "Single Positioning lookup 22 subtable" dx=115 dy=0 dh=0 dv=0
Position2: "Single Positioning lookup 20 subtable" dx=-115 dy=0 dh=0 dv=0
Position2: "Single Positioning lookup 19 subtable" dx=0 dy=0 dh=0 dv=0
Position2: "Single Positioning lookup 14 subtable" dx=0 dy=0 dh=0 dv=0
EndChar

StartChar: H
Encoding: 72 72 43
Width: 979
VWidth: 1369
GlyphClass: 2
Flags: W
LayerCount: 2
Fore
SplineSet
172.799804688 1267.20019531 m 1,0,-1
 288 1267.20019531 l 1,1,-1
 288 748.799804688 l 1,2,-1
 864 748.799804688 l 1,3,-1
 864 1267.20019531 l 1,4,-1
 979.200195312 1267.20019531 l 1,5,-1
 979.200195312 140.799804688 l 1,6,-1
 864 140.799804688 l 1,7,-1
 864 652.799804688 l 1,8,-1
 288 652.799804688 l 1,9,-1
 288 140.799804688 l 1,10,-1
 172.799804688 140.799804688 l 1,11,-1
 172.799804688 1267.20019531 l 1,0,-1
EndSplineSet
Position2: "Single Positioning lookup 22 subtable" dx=115 dy=0 dh=0 dv=0
Position2: "Single Positioning lookup 20 subtable" dx=-115 dy=0 dh=0 dv=0
Position2: "Single Positioning lookup 19 subtable" dx=0 dy=0 dh=0 dv=0
Position2: "Single Positioning lookup 14 subtable" dx=0 dy=0 dh=0 dv=0
EndChar

StartChar: I
Encoding: 73 73 44
Width: 979
VWidth: 1369
GlyphClass: 2
Flags: W
LayerCount: 2
Fore
SplineSet
864 1267.20019531 m 1,0,-1
 864 1171.20019531 l 1,1,-1
 633.599609375 1171.20019531 l 1,2,-1
 633.599609375 236.799804688 l 1,3,-1
 864 236.799804688 l 1,4,-1
 864 140.799804688 l 1,5,-1
 288 140.799804688 l 1,6,-1
 288 236.799804688 l 1,7,-1
 518.400390625 236.799804688 l 1,8,-1
 518.400390625 1171.20019531 l 1,9,-1
 288 1171.20019531 l 1,10,-1
 288 1267.20019531 l 1,11,-1
 864 1267.20019531 l 1,0,-1
EndSplineSet
EndChar

StartChar: J
Encoding: 74 74 45
Width: 980
VWidth: 1368
GlyphClass: 2
Flags: W
LayerCount: 2
Fore
SplineSet
865.150390625 1170 m 1,0,-1
 289.150390625 1170 l 1,1,-1
 289.150390625 1266 l 1,2,-1
 980.349609375 1266 l 1,3,-1
 980.349609375 540.400390625 l 2,4,5
 980.349609375 498.799804688 980.349609375 498.799804688 978.549804688 474 c 128,-1,6
 976.75 449.200195312 976.75 449.200195312 969.549804688 407.599609375 c 128,-1,7
 962.349609375 366 962.349609375 366 943 328 c 128,-1,8
 923.650390625 290 923.650390625 290 892.150390625 254.799804688 c 0,9,10
 841.75 197.200195312 841.75 197.200195312 756.700195312 163.599609375 c 128,-1,11
 671.650390625 130 671.650390625 130 567.25 130 c 0,12,13
 455.650390625 130 455.650390625 130 360.700195312 165.599609375 c 128,-1,14
 265.75 201.200195312 265.75 201.200195312 194.650390625 256.400390625 c 1,15,-1
 261.25 332.400390625 l 1,16,17
 400.75 226 400.75 226 567.25 226 c 0,18,19
 642.849609375 226 642.849609375 226 703.599609375 249.200195312 c 128,-1,20
 764.349609375 272.400390625 764.349609375 272.400390625 800.349609375 313.200195312 c 0,21,22
 830.950195312 346.799804688 830.950195312 346.799804688 845.799804688 390 c 128,-1,23
 860.650390625 433.200195312 860.650390625 433.200195312 862.900390625 461.200195312 c 128,-1,24
 865.150390625 489.200195312 865.150390625 489.200195312 865.150390625 540.400390625 c 2,25,-1
 865.150390625 1170 l 1,0,-1
EndSplineSet
EndChar

StartChar: K
Encoding: 75 75 46
Width: 981
VWidth: 1369
GlyphClass: 2
Flags: W
LayerCount: 2
Fore
SplineSet
289.900390625 140.799804688 m 1,0,-1
 174.700195312 140.799804688 l 1,1,-1
 174.700195312 1267.20019531 l 1,2,-1
 289.900390625 1267.20019531 l 1,3,-1
 289.900390625 716 l 1,4,-1
 806.5 1267.20019531 l 1,5,-1
 931.599609375 1267.20019531 l 1,6,-1
 492.400390625 791.200195312 l 1,7,-1
 1015.29980469 140.799804688 l 1,8,-1
 874 140.799804688 l 1,9,-1
 415.900390625 717.599609375 l 1,10,-1
 289.900390625 587.200195312 l 1,11,-1
 289.900390625 140.799804688 l 1,0,-1
EndSplineSet
EndChar

StartChar: L
Encoding: 76 76 47
Width: 985
VWidth: 1369
GlyphClass: 2
Flags: W
LayerCount: 2
Fore
SplineSet
294.400390625 140.799804688 m 1,0,-1
 294.400390625 1267.20019531 l 1,1,-1
 409.599609375 1267.20019531 l 1,2,-1
 409.599609375 236.799804688 l 1,3,-1
 985.599609375 236.799804688 l 1,4,-1
 985.599609375 140.799804688 l 1,5,-1
 294.400390625 140.799804688 l 1,0,-1
EndSplineSet
EndChar

StartChar: M
Encoding: 77 77 48
Width: 979
VWidth: 1369
GlyphClass: 2
Flags: W
LayerCount: 2
Fore
SplineSet
288 140.799804688 m 1,0,-1
 172.799804688 140.799804688 l 1,1,-1
 172.799804688 1267.20019531 l 1,2,-1
 288 1267.20019531 l 1,3,-1
 571.5 764.799804688 l 1,4,-1
 581.400390625 764.799804688 l 1,5,-1
 864 1267.20019531 l 1,6,-1
 979.200195312 1267.20019531 l 1,7,-1
 979.200195312 140.799804688 l 1,8,-1
 864 140.799804688 l 1,9,-1
 864 1060.79980469 l 1,10,-1
 855 1060.79980469 l 1,11,-1
 625.5 652.799804688 l 1,12,-1
 526.5 652.799804688 l 1,13,-1
 297 1060.79980469 l 1,14,-1
 288 1060.79980469 l 1,15,-1
 288 140.799804688 l 1,0,-1
EndSplineSet
Position2: "Single Positioning lookup 22 subtable" dx=115 dy=0 dh=0 dv=0
Position2: "Single Positioning lookup 20 subtable" dx=-115 dy=0 dh=0 dv=0
Position2: "Single Positioning lookup 19 subtable" dx=0 dy=0 dh=0 dv=0
Position2: "Single Positioning lookup 14 subtable" dx=0 dy=0 dh=0 dv=0
EndChar

StartChar: N
Encoding: 78 78 49
Width: 979
VWidth: 1369
GlyphClass: 2
Flags: W
LayerCount: 2
Fore
SplineSet
288 140.799804688 m 1,0,-1
 172.799804688 140.799804688 l 1,1,-1
 172.799804688 1267.20019531 l 1,2,-1
 287.099609375 1267.20019531 l 1,3,-1
 855 340.799804688 l 1,4,-1
 864 340.799804688 l 1,5,-1
 864 1267.20019531 l 1,6,-1
 979.200195312 1267.20019531 l 1,7,-1
 979.200195312 140.799804688 l 1,8,-1
 864 140.799804688 l 1,9,-1
 297 1067.20019531 l 1,10,-1
 288 1067.20019531 l 1,11,-1
 288 140.799804688 l 1,0,-1
EndSplineSet
Position2: "Single Positioning lookup 22 subtable" dx=115 dy=0 dh=0 dv=0
Position2: "Single Positioning lookup 20 subtable" dx=-115 dy=0 dh=0 dv=0
Position2: "Single Positioning lookup 19 subtable" dx=0 dy=0 dh=0 dv=0
Position2: "Single Positioning lookup 14 subtable" dx=0 dy=0 dh=0 dv=0
EndChar

StartChar: O
Encoding: 79 79 50
Width: 979
VWidth: 1369
GlyphClass: 2
Flags: W
LayerCount: 2
Fore
SplineSet
273.599609375 704 m 128,-1,1
 273.599609375 533.599609375 273.599609375 533.599609375 296.099609375 446.400390625 c 0,2,3
 323.099609375 348.799804688 323.099609375 348.799804688 392.849609375 286.400390625 c 128,-1,4
 462.599609375 224 462.599609375 224 576 224 c 128,-1,5
 689.400390625 224 689.400390625 224 759.150390625 286.400390625 c 128,-1,6
 828.900390625 348.799804688 828.900390625 348.799804688 855.900390625 446.400390625 c 0,7,8
 878.400390625 533.599609375 878.400390625 533.599609375 878.400390625 704 c 128,-1,9
 878.400390625 874.400390625 878.400390625 874.400390625 855.900390625 961.599609375 c 0,10,11
 828.900390625 1059.20019531 828.900390625 1059.20019531 759.150390625 1121.59960938 c 128,-1,12
 689.400390625 1184 689.400390625 1184 576 1184 c 128,-1,13
 462.599609375 1184 462.599609375 1184 392.849609375 1121.59960938 c 128,-1,14
 323.099609375 1059.20019531 323.099609375 1059.20019531 296.099609375 961.599609375 c 0,15,0
 273.599609375 874.400390625 273.599609375 874.400390625 273.599609375 704 c 128,-1,1
158.400390625 704 m 128,-1,17
 158.400390625 894.400390625 158.400390625 894.400390625 183.599609375 983.200195312 c 0,18,19
 219.599609375 1112.79980469 219.599609375 1112.79980469 319.5 1196.40039062 c 128,-1,20
 419.400390625 1280 419.400390625 1280 576 1280 c 128,-1,21
 732.599609375 1280 732.599609375 1280 832.5 1196.40039062 c 128,-1,22
 932.400390625 1112.79980469 932.400390625 1112.79980469 968.400390625 983.200195312 c 0,23,24
 993.599609375 894.400390625 993.599609375 894.400390625 993.599609375 704 c 128,-1,25
 993.599609375 513.599609375 993.599609375 513.599609375 968.400390625 424.799804688 c 0,26,27
 932.400390625 295.200195312 932.400390625 295.200195312 832.5 211.599609375 c 128,-1,28
 732.599609375 128 732.599609375 128 576 128 c 128,-1,29
 419.400390625 128 419.400390625 128 319.5 211.599609375 c 128,-1,30
 219.599609375 295.200195312 219.599609375 295.200195312 183.599609375 424.799804688 c 0,31,16
 158.400390625 513.599609375 158.400390625 513.599609375 158.400390625 704 c 128,-1,17
EndSplineSet
Position2: "Single Positioning lookup 22 subtable" dx=115 dy=0 dh=0 dv=0
Position2: "Single Positioning lookup 20 subtable" dx=-115 dy=0 dh=0 dv=0
Position2: "Single Positioning lookup 19 subtable" dx=0 dy=0 dh=0 dv=0
Position2: "Single Positioning lookup 14 subtable" dx=0 dy=0 dh=0 dv=0
EndChar

StartChar: P
Encoding: 80 80 51
Width: 986
VWidth: 1369
GlyphClass: 2
Flags: W
LayerCount: 2
Fore
SplineSet
544.5 1267.20019531 m 2,0,1
 588.599609375 1267.20019531 588.599609375 1267.20019531 616.950195312 1265.59960938 c 128,-1,2
 645.299804688 1264 645.299804688 1264 693.450195312 1257.20019531 c 128,-1,3
 741.599609375 1250.40039062 741.599609375 1250.40039062 785.25 1231.59960938 c 128,-1,4
 828.900390625 1212.79980469 828.900390625 1212.79980469 866.700195312 1183.20019531 c 0,5,6
 1000.79980469 1077.59960938 1000.79980469 1077.59960938 1000.79980469 912 c 128,-1,7
 1000.79980469 746.400390625 1000.79980469 746.400390625 866.700195312 640.799804688 c 0,8,9
 828.900390625 611.200195312 828.900390625 611.200195312 785.25 592.400390625 c 128,-1,10
 741.599609375 573.599609375 741.599609375 573.599609375 693.450195312 566.799804688 c 128,-1,11
 645.299804688 560 645.299804688 560 616.950195312 558.400390625 c 128,-1,12
 588.599609375 556.799804688 588.599609375 556.799804688 544.5 556.799804688 c 2,13,-1
 410.400390625 556.799804688 l 1,14,-1
 410.400390625 140.799804688 l 1,15,-1
 295.200195312 140.799804688 l 1,16,-1
 295.200195312 1267.20019531 l 1,17,-1
 544.5 1267.20019531 l 2,0,1
885.599609375 912 m 128,-1,19
 885.599609375 974.400390625 885.599609375 974.400390625 859.5 1026.79980469 c 128,-1,20
 833.400390625 1079.20019531 833.400390625 1079.20019531 789.299804688 1112.79980469 c 0,21,22
 762.299804688 1133.59960938 762.299804688 1133.59960938 731.25 1146.40039062 c 128,-1,23
 700.200195312 1159.20019531 700.200195312 1159.20019531 664.200195312 1164 c 128,-1,24
 628.200195312 1168.79980469 628.200195312 1168.79980469 605.700195312 1170 c 128,-1,25
 583.200195312 1171.20019531 583.200195312 1171.20019531 544.5 1171.20019531 c 2,26,-1
 410.400390625 1171.20019531 l 1,27,-1
 410.400390625 652.799804688 l 1,28,-1
 544.5 652.799804688 l 2,29,30
 583.200195312 652.799804688 583.200195312 652.799804688 605.700195312 654 c 128,-1,31
 628.200195312 655.200195312 628.200195312 655.200195312 664.200195312 660 c 128,-1,32
 700.200195312 664.799804688 700.200195312 664.799804688 731.25 677.599609375 c 128,-1,33
 762.299804688 690.400390625 762.299804688 690.400390625 789.299804688 711.200195312 c 0,34,35
 833.400390625 744.799804688 833.400390625 744.799804688 859.5 797.200195312 c 128,-1,18
 885.599609375 849.599609375 885.599609375 849.599609375 885.599609375 912 c 128,-1,19
EndSplineSet
Position2: "Single Positioning lookup 22 subtable" dx=115 dy=0 dh=0 dv=0
Position2: "Single Positioning lookup 20 subtable" dx=-115 dy=0 dh=0 dv=0
Position2: "Single Positioning lookup 19 subtable" dx=0 dy=0 dh=0 dv=0
Position2: "Single Positioning lookup 14 subtable" dx=0 dy=0 dh=0 dv=0
EndChar

StartChar: Q
Encoding: 81 81 52
Width: 979
VWidth: 1344
GlyphClass: 2
Flags: W
LayerCount: 2
Fore
SplineSet
158.400390625 678.400390625 m 0,0,1
 158.400390625 865.599609375 158.400390625 865.599609375 183.599609375 957.599609375 c 0,2,3
 219.599609375 1087.20019531 219.599609375 1087.20019531 319.5 1170.79980469 c 128,-1,4
 419.400390625 1254.40039062 419.400390625 1254.40039062 576 1254.40039062 c 0,5,6
 731.700195312 1254.40039062 731.700195312 1254.40039062 831.599609375 1171.20019531 c 128,-1,7
 931.5 1088 931.5 1088 968.400390625 957.599609375 c 0,8,9
 993.599609375 868.799804688 993.599609375 868.799804688 993.599609375 678.400390625 c 0,10,11
 993.599609375 491.200195312 993.599609375 491.200195312 968.400390625 399.200195312 c 0,12,13
 937.799804688 288 937.799804688 288 858.599609375 208.799804688 c 128,-1,14
 779.400390625 129.599609375 779.400390625 129.599609375 657.900390625 108.799804688 c 1,15,16
 705.599609375 -6.400390625 705.599609375 -6.400390625 841.5 -6.400390625 c 0,17,18
 894.599609375 -6.400390625 894.599609375 -6.400390625 979.200195312 0.7998046875 c 1,19,-1
 979.200195312 -95.2001953125 l 1,20,21
 890.099609375 -102.400390625 890.099609375 -102.400390625 835.200195312 -102.400390625 c 0,22,23
 720 -102.400390625 720 -102.400390625 644.400390625 -44.7998046875 c 128,-1,24
 568.799804688 12.7998046875 568.799804688 12.7998046875 539.099609375 104 c 1,25,26
 398.700195312 114.400390625 398.700195312 114.400390625 308.700195312 196 c 128,-1,27
 218.700195312 277.599609375 218.700195312 277.599609375 183.599609375 399.200195312 c 0,28,29
 158.400390625 488 158.400390625 488 158.400390625 678.400390625 c 0,0,1
273.599609375 678.400390625 m 0,30,31
 273.599609375 504 273.599609375 504 296.099609375 420.799804688 c 0,32,33
 319.5 336.799804688 319.5 336.799804688 376.200195312 277.200195312 c 128,-1,34
 432.900390625 217.599609375 432.900390625 217.599609375 522 202.400390625 c 1,35,36
 518.400390625 240 518.400390625 240 518.400390625 320 c 2,37,-1
 518.400390625 422.400390625 l 1,38,-1
 633.599609375 422.400390625 l 1,39,-1
 633.599609375 320 l 2,40,41
 633.599609375 240.799804688 633.599609375 240.799804688 637.200195312 204 c 1,42,43
 723.599609375 220 723.599609375 220 778.049804688 278.799804688 c 128,-1,44
 832.5 337.599609375 832.5 337.599609375 855.900390625 420.799804688 c 0,45,46
 878.400390625 500.799804688 878.400390625 500.799804688 878.400390625 678.400390625 c 0,47,48
 878.400390625 852.799804688 878.400390625 852.799804688 855.900390625 936 c 0,49,50
 828.900390625 1033.59960938 828.900390625 1033.59960938 759.150390625 1096 c 128,-1,51
 689.400390625 1158.40039062 689.400390625 1158.40039062 576 1158.40039062 c 0,52,53
 461.700195312 1158.40039062 461.700195312 1158.40039062 391.5 1096 c 128,-1,54
 321.299804688 1033.59960938 321.299804688 1033.59960938 296.099609375 936 c 0,55,56
 273.599609375 848.799804688 273.599609375 848.799804688 273.599609375 678.400390625 c 0,30,31
EndSplineSet
Position2: "Single Positioning lookup 22 subtable" dx=115 dy=0 dh=0 dv=0
Position2: "Single Positioning lookup 20 subtable" dx=-115 dy=0 dh=0 dv=0
Position2: "Single Positioning lookup 19 subtable" dx=0 dy=0 dh=0 dv=0
Position2: "Single Positioning lookup 14 subtable" dx=0 dy=0 dh=0 dv=0
EndChar

StartChar: R
Encoding: 82 82 53
Width: 987
VWidth: 1369
GlyphClass: 2
Flags: W
LayerCount: 2
Fore
SplineSet
886.849609375 912 m 128,-1,1
 886.849609375 974.400390625 886.849609375 974.400390625 860.75 1026.79980469 c 128,-1,2
 834.650390625 1079.20019531 834.650390625 1079.20019531 790.549804688 1112.79980469 c 0,3,4
 763.549804688 1133.59960938 763.549804688 1133.59960938 732.5 1146.40039062 c 128,-1,5
 701.450195312 1159.20019531 701.450195312 1159.20019531 665.450195312 1164 c 128,-1,6
 629.450195312 1168.79980469 629.450195312 1168.79980469 606.950195312 1170 c 128,-1,7
 584.450195312 1171.20019531 584.450195312 1171.20019531 545.75 1171.20019531 c 2,8,-1
 411.650390625 1171.20019531 l 1,9,-1
 411.650390625 652.799804688 l 1,10,-1
 545.75 652.799804688 l 2,11,12
 596.150390625 652.799804688 596.150390625 652.799804688 627.650390625 654.799804688 c 128,-1,13
 659.150390625 656.799804688 659.150390625 656.799804688 707.299804688 670.799804688 c 128,-1,14
 755.450195312 684.799804688 755.450195312 684.799804688 790.549804688 711.200195312 c 0,15,16
 834.650390625 744.799804688 834.650390625 744.799804688 860.75 797.200195312 c 128,-1,0
 886.849609375 849.599609375 886.849609375 849.599609375 886.849609375 912 c 128,-1,1
545.75 1267.20019531 m 2,17,18
 589.849609375 1267.20019531 589.849609375 1267.20019531 618.200195312 1265.59960938 c 128,-1,19
 646.549804688 1264 646.549804688 1264 694.700195312 1257.20019531 c 128,-1,20
 742.849609375 1250.40039062 742.849609375 1250.40039062 786.5 1231.59960938 c 128,-1,21
 830.150390625 1212.79980469 830.150390625 1212.79980469 867.950195312 1183.20019531 c 0,22,23
 1002.04980469 1077.59960938 1002.04980469 1077.59960938 1002.04980469 912 c 128,-1,24
 1002.04980469 746.400390625 1002.04980469 746.400390625 867.950195312 640.799804688 c 0,25,26
 836.450195312 616 836.450195312 616 797.75 598.400390625 c 1,27,-1
 1024.54980469 140.799804688 l 1,28,-1
 902.150390625 140.799804688 l 1,29,-1
 688.849609375 565.599609375 l 1,30,31
 634.849609375 556.799804688 634.849609375 556.799804688 545.75 556.799804688 c 2,32,-1
 411.650390625 556.799804688 l 1,33,-1
 411.650390625 140.799804688 l 1,34,-1
 296.450195312 140.799804688 l 1,35,-1
 296.450195312 1267.20019531 l 1,36,-1
 545.75 1267.20019531 l 2,17,18
EndSplineSet
Position2: "Single Positioning lookup 22 subtable" dx=115 dy=0 dh=0 dv=0
Position2: "Single Positioning lookup 20 subtable" dx=-115 dy=0 dh=0 dv=0
Position2: "Single Positioning lookup 19 subtable" dx=0 dy=0 dh=0 dv=0
Position2: "Single Positioning lookup 14 subtable" dx=0 dy=0 dh=0 dv=0
EndChar

StartChar: S
Encoding: 83 83 54
Width: 985
VWidth: 1369
GlyphClass: 2
Flags: W
LayerCount: 2
Fore
SplineSet
622 128 m 0,0,1
 474.400390625 128 474.400390625 128 289 153.599609375 c 1,2,-1
 289 252 l 1,3,4
 488.799804688 224 488.799804688 224 622 224 c 0,5,6
 748.900390625 224 748.900390625 224 823.150390625 284.799804688 c 128,-1,7
 897.400390625 345.599609375 897.400390625 345.599609375 897.400390625 448.799804688 c 0,8,9
 897.400390625 507.200195312 897.400390625 507.200195312 867.25 555.200195312 c 128,-1,10
 837.099609375 603.200195312 837.099609375 603.200195312 784 631.200195312 c 0,11,12
 737.200195312 655.200195312 737.200195312 655.200195312 632.799804688 668.400390625 c 128,-1,13
 528.400390625 681.599609375 528.400390625 681.599609375 482.5 696 c 0,14,15
 384.400390625 728 384.400390625 728 325.900390625 800.400390625 c 128,-1,16
 267.400390625 872.799804688 267.400390625 872.799804688 267.400390625 976.799804688 c 0,17,18
 267.400390625 1108 267.400390625 1108 366.400390625 1194 c 128,-1,19
 465.400390625 1280 465.400390625 1280 622 1280 c 0,20,21
 743.5 1280 743.5 1280 955 1260 c 1,22,-1
 955 1163.20019531 l 1,23,24
 736.299804688 1184 736.299804688 1184 622 1184 c 0,25,26
 513.099609375 1184 513.099609375 1184 447.849609375 1125.20019531 c 128,-1,27
 382.599609375 1066.40039062 382.599609375 1066.40039062 382.599609375 976.799804688 c 0,28,29
 382.599609375 913.599609375 382.599609375 913.599609375 413.650390625 866.799804688 c 128,-1,30
 444.700195312 820 444.700195312 820 497.799804688 796 c 0,31,32
 539.200195312 776.799804688 539.200195312 776.799804688 655.299804688 762.400390625 c 128,-1,33
 771.400390625 748 771.400390625 748 829 720.799804688 c 0,34,35
 912.700195312 681.599609375 912.700195312 681.599609375 962.650390625 609.599609375 c 128,-1,36
 1012.59960938 537.599609375 1012.59960938 537.599609375 1012.59960938 448.799804688 c 0,37,38
 1012.59960938 305.599609375 1012.59960938 305.599609375 904.599609375 216.799804688 c 128,-1,39
 796.599609375 128 796.599609375 128 622 128 c 0,0,1
EndSplineSet
Position2: "Single Positioning lookup 22 subtable" dx=115 dy=0 dh=0 dv=0
Position2: "Single Positioning lookup 20 subtable" dx=-115 dy=0 dh=0 dv=0
Position2: "Single Positioning lookup 19 subtable" dx=0 dy=0 dh=0 dv=0
Position2: "Single Positioning lookup 14 subtable" dx=0 dy=0 dh=0 dv=0
EndChar

StartChar: T
Encoding: 84 84 55
Width: 979
VWidth: 1369
GlyphClass: 2
Flags: W
LayerCount: 2
Fore
SplineSet
979.200195312 1267.20019531 m 1,0,-1
 979.200195312 1171.20019531 l 1,1,-1
 633.599609375 1171.20019531 l 1,2,-1
 633.599609375 140.799804688 l 1,3,-1
 518.400390625 140.799804688 l 1,4,-1
 518.400390625 1171.20019531 l 1,5,-1
 172.799804688 1171.20019531 l 1,6,-1
 172.799804688 1267.20019531 l 1,7,-1
 979.200195312 1267.20019531 l 1,0,-1
EndSplineSet
EndChar

StartChar: U
Encoding: 85 85 56
Width: 979
VWidth: 1368
GlyphClass: 2
Flags: W
LayerCount: 2
Fore
SplineSet
172.799804688 1265.59960938 m 1,0,-1
 288 1265.59960938 l 1,1,-1
 288 548.799804688 l 2,2,3
 288 441.599609375 288 441.599609375 298.799804688 403.200195312 c 0,4,5
 321.299804688 321.599609375 321.299804688 321.599609375 395.549804688 272 c 128,-1,6
 469.799804688 222.400390625 469.799804688 222.400390625 576 222.400390625 c 128,-1,7
 682.200195312 222.400390625 682.200195312 222.400390625 756.450195312 272 c 128,-1,8
 830.700195312 321.599609375 830.700195312 321.599609375 853.200195312 403.200195312 c 0,9,10
 864 441.599609375 864 441.599609375 864 548.799804688 c 2,11,-1
 864 1265.59960938 l 1,12,-1
 979.200195312 1265.59960938 l 1,13,-1
 979.200195312 548.799804688 l 2,14,15
 979.200195312 436 979.200195312 436 964.799804688 381.599609375 c 0,16,17
 934.200195312 268.799804688 934.200195312 268.799804688 828.450195312 197.599609375 c 128,-1,18
 722.700195312 126.400390625 722.700195312 126.400390625 576 126.400390625 c 128,-1,19
 429.299804688 126.400390625 429.299804688 126.400390625 323.099609375 197.599609375 c 128,-1,20
 216.900390625 268.799804688 216.900390625 268.799804688 187.200195312 381.599609375 c 0,21,22
 172.799804688 436 172.799804688 436 172.799804688 548.799804688 c 2,23,-1
 172.799804688 1265.59960938 l 1,0,-1
EndSplineSet
Position2: "Single Positioning lookup 22 subtable" dx=115 dy=0 dh=0 dv=0
Position2: "Single Positioning lookup 20 subtable" dx=-115 dy=0 dh=0 dv=0
Position2: "Single Positioning lookup 19 subtable" dx=0 dy=0 dh=0 dv=0
Position2: "Single Positioning lookup 14 subtable" dx=0 dy=0 dh=0 dv=0
EndChar

StartChar: V
Encoding: 86 86 57
Width: 979
VWidth: 1369
GlyphClass: 2
Flags: W
LayerCount: 2
Fore
SplineSet
580.5 266.400390625 m 1,0,1
 684.900390625 486.400390625 684.900390625 486.400390625 756 731.599609375 c 128,-1,2
 827.099609375 976.799804688 827.099609375 976.799804688 882.900390625 1267.20019531 c 1,3,-1
 999.900390625 1267.20019531 l 1,4,5
 935.099609375 939.200195312 935.099609375 939.200195312 848.700195312 663.599609375 c 128,-1,6
 762.299804688 388 762.299804688 388 628.200195312 140.799804688 c 1,7,-1
 523.799804688 140.799804688 l 1,8,9
 389.700195312 388 389.700195312 388 303.299804688 663.599609375 c 128,-1,10
 216.900390625 939.200195312 216.900390625 939.200195312 152.099609375 1267.20019531 c 1,11,-1
 269.099609375 1267.20019531 l 1,12,13
 387.900390625 652 387.900390625 652 571.5 266.400390625 c 1,14,-1
 580.5 266.400390625 l 1,0,1
EndSplineSet
Position2: "Single Positioning lookup 22 subtable" dx=115 dy=0 dh=0 dv=0
Position2: "Single Positioning lookup 20 subtable" dx=-115 dy=0 dh=0 dv=0
Position2: "Single Positioning lookup 19 subtable" dx=0 dy=0 dh=0 dv=0
Position2: "Single Positioning lookup 14 subtable" dx=0 dy=0 dh=0 dv=0
EndChar

StartChar: W
Encoding: 87 87 58
Width: 979
VWidth: 1369
GlyphClass: 2
Flags: W
LayerCount: 2
Fore
SplineSet
520.200195312 857.599609375 m 1,0,-1
 631.799804688 857.599609375 l 1,1,-1
 788.400390625 308.799804688 l 1,2,-1
 797.400390625 308.799804688 l 1,3,4
 872.099609375 685.599609375 872.099609375 685.599609375 872.099609375 1267.20019531 c 1,5,-1
 987.299804688 1267.20019531 l 1,6,7
 987.299804688 704 987.299804688 704 862.200195312 140.799804688 c 1,8,-1
 750.599609375 140.799804688 l 1,9,-1
 580.5 729.599609375 l 1,10,-1
 571.5 729.599609375 l 1,11,-1
 401.400390625 140.799804688 l 1,12,-1
 289.799804688 140.799804688 l 1,13,14
 164.700195312 704 164.700195312 704 164.700195312 1267.20019531 c 1,15,-1
 279.900390625 1267.20019531 l 1,16,17
 279.900390625 692 279.900390625 692 354.599609375 308.799804688 c 1,18,-1
 363.599609375 308.799804688 l 1,19,-1
 520.200195312 857.599609375 l 1,0,-1
EndSplineSet
Substitution2: "'ss10' Style Set 10 lookup 111 subtable" W.straight
Position2: "Single Positioning lookup 22 subtable" dx=115 dy=0 dh=0 dv=0
Position2: "Single Positioning lookup 20 subtable" dx=-115 dy=0 dh=0 dv=0
Position2: "Single Positioning lookup 19 subtable" dx=0 dy=0 dh=0 dv=0
Position2: "Single Positioning lookup 14 subtable" dx=0 dy=0 dh=0 dv=0
EndChar

StartChar: X
Encoding: 88 88 59
Width: 979
VWidth: 1369
GlyphClass: 2
Flags: W
LayerCount: 2
Fore
SplineSet
571.5 800 m 1,0,-1
 580.5 800 l 1,1,-1
 853.200195312 1267.20019531 l 1,2,-1
 985.5 1267.20019531 l 1,3,-1
 651.599609375 717.599609375 l 1,4,-1
 651.599609375 709.599609375 l 1,5,-1
 1014.29980469 140.799804688 l 1,6,-1
 881.099609375 140.799804688 l 1,7,-1
 580.5 627.200195312 l 1,8,-1
 571.5 627.200195312 l 1,9,-1
 270.900390625 140.799804688 l 1,10,-1
 137.700195312 140.799804688 l 1,11,-1
 500.400390625 709.599609375 l 1,12,-1
 500.400390625 717.599609375 l 1,13,-1
 166.5 1267.20019531 l 1,14,-1
 298.799804688 1267.20019531 l 1,15,-1
 571.5 800 l 1,0,-1
EndSplineSet
Position2: "Single Positioning lookup 22 subtable" dx=115 dy=0 dh=0 dv=0
Position2: "Single Positioning lookup 20 subtable" dx=-115 dy=0 dh=0 dv=0
Position2: "Single Positioning lookup 19 subtable" dx=0 dy=0 dh=0 dv=0
Position2: "Single Positioning lookup 14 subtable" dx=0 dy=0 dh=0 dv=0
EndChar

StartChar: Y
Encoding: 89 89 60
Width: 979
VWidth: 1369
GlyphClass: 2
Flags: W
LayerCount: 2
Fore
SplineSet
585 733.599609375 m 1,0,1
 743.400390625 940.799804688 743.400390625 940.799804688 882 1267.20019531 c 1,2,-1
 1004.40039062 1267.20019531 l 1,3,4
 922.5 1077.59960938 922.5 1077.59960938 834.75 922.400390625 c 128,-1,5
 747 767.200195312 747 767.200195312 633.599609375 633.599609375 c 1,6,-1
 633.599609375 140.799804688 l 1,7,-1
 518.400390625 140.799804688 l 1,8,-1
 518.400390625 633.599609375 l 1,9,10
 405 767.200195312 405 767.200195312 317.25 922.400390625 c 128,-1,11
 229.5 1077.59960938 229.5 1077.59960938 147.599609375 1267.20019531 c 1,12,-1
 270 1267.20019531 l 1,13,14
 407.700195312 942.400390625 407.700195312 942.400390625 567 733.599609375 c 1,15,-1
 585 733.599609375 l 1,0,1
EndSplineSet
EndChar

StartChar: Z
Encoding: 90 90 61
Width: 979
VWidth: 1369
GlyphClass: 2
Flags: W
LayerCount: 2
Fore
SplineSet
190.799804688 1171.20019531 m 1,0,-1
 190.799804688 1267.20019531 l 1,1,-1
 961.200195312 1267.20019531 l 1,2,-1
 961.200195312 1195.20019531 l 1,3,-1
 321.299804688 244.799804688 l 1,4,-1
 321.299804688 236.799804688 l 1,5,-1
 979.200195312 236.799804688 l 1,6,-1
 979.200195312 140.799804688 l 1,7,-1
 172.799804688 140.799804688 l 1,8,-1
 172.799804688 214.400390625 l 1,9,-1
 812.700195312 1163.20019531 l 1,10,-1
 812.700195312 1171.20019531 l 1,11,-1
 190.799804688 1171.20019531 l 1,0,-1
EndSplineSet
Position2: "Single Positioning lookup 22 subtable" dx=115 dy=0 dh=0 dv=0
Position2: "Single Positioning lookup 20 subtable" dx=-115 dy=0 dh=0 dv=0
Position2: "Single Positioning lookup 19 subtable" dx=0 dy=0 dh=0 dv=0
Position2: "Single Positioning lookup 14 subtable" dx=0 dy=0 dh=0 dv=0
EndChar

StartChar: bracketleft
Encoding: 91 91 62
Width: 985
VWidth: 1369
GlyphClass: 2
Flags: W
LayerCount: 2
Fore
SplineSet
409.599609375 1369.59960938 m 1,0,-1
 870.400390625 1369.59960938 l 1,1,-1
 870.400390625 1273.59960938 l 1,2,-1
 524.799804688 1273.59960938 l 1,3,-1
 524.799804688 134.400390625 l 1,4,-1
 870.400390625 134.400390625 l 1,5,-1
 870.400390625 38.400390625 l 1,6,7
 870.400390625 38.400390625 870.400390625 38.400390625 409.599609375 38.400390625 c 1,8,9
 409.599609375 38.400390625 409.599609375 38.400390625 409.599609375 1369.59960938 c 1,0,-1
EndSplineSet
EndChar

StartChar: backslash
Encoding: 92 92 63
Width: 979
VWidth: 1369
GlyphClass: 2
Flags: W
LayerCount: 2
Fore
SplineSet
880.200195312 16.7998046875 m 1,0,-1
 170.099609375 1348.79980469 l 1,1,-1
 271.799804688 1391.20019531 l 1,2,-1
 981.900390625 59.2001953125 l 1,3,-1
 880.200195312 16.7998046875 l 1,0,-1
EndSplineSet
Substitution2: "Single Substitution lookup 1 subtable" backslash.shrug
EndChar

StartChar: bracketright
Encoding: 93 93 64
Width: 972
VWidth: 1369
GlyphClass: 2
Flags: W
LayerCount: 2
Fore
SplineSet
742.400390625 1369.59960938 m 1,0,1
 742.400390625 1369.59960938 742.400390625 1369.59960938 742.400390625 38.400390625 c 1,2,3
 742.400390625 38.400390625 742.400390625 38.400390625 281.599609375 38.400390625 c 1,4,-1
 281.599609375 134.400390625 l 1,5,-1
 627.200195312 134.400390625 l 1,6,-1
 627.200195312 1273.59960938 l 1,7,-1
 281.599609375 1273.59960938 l 1,8,-1
 281.599609375 1369.59960938 l 1,9,-1
 742.400390625 1369.59960938 l 1,0,1
EndSplineSet
EndChar

StartChar: asciicircum
Encoding: 94 94 65
Width: 979
VWidth: 1459
GlyphClass: 2
Flags: W
LayerCount: 2
Fore
SplineSet
238.5 947.200195312 m 1,0,1
 314.099609375 1192.79980469 314.099609375 1192.79980469 504 1356.79980469 c 1,2,-1
 648 1356.79980469 l 1,3,4
 837.900390625 1192.79980469 837.900390625 1192.79980469 913.5 947.200195312 c 1,5,-1
 792 947.200195312 l 1,6,7
 727.200195312 1142.40039062 727.200195312 1142.40039062 598.5 1269.59960938 c 1,8,-1
 553.5 1269.59960938 l 1,9,10
 424.799804688 1142.40039062 424.799804688 1142.40039062 360 947.200195312 c 1,11,-1
 238.5 947.200195312 l 1,0,1
EndSplineSet
EndChar

StartChar: underscore
Encoding: 95 95 66
Width: 979
VWidth: 1216
GlyphClass: 2
Flags: W
LayerCount: 2
Fore
SplineSet
172.799804688 -12 m 1,0,-1
 979.200195312 -12 l 1,1,-1
 979.200195312 -108 l 1,2,-1
 172.799804688 -108 l 1,3,-1
 172.799804688 -12 l 1,0,-1
EndSplineSet
Substitution2: "Single Substitution lookup 71 subtable" underscore.2r
Substitution2: "Single Substitution lookup 70 subtable" underscore.2l
Substitution2: "Single Substitution lookup 69 subtable" underscore.more
Substitution2: "Single Substitution lookup 68 subtable" underscore.more
Substitution2: "Single Substitution lookup 67 subtable" underscore.more
EndChar

StartChar: grave
Encoding: 96 96 67
Width: 972
VWidth: 1472
GlyphClass: 2
Flags: W
LayerCount: 2
Fore
SplineSet
647.799804688 1062.40039062 m 1,0,-1
 523.599609375 1062.40039062 l 1,1,-1
 374.200195312 1369.59960938 l 1,2,-1
 498.400390625 1369.59960938 l 1,3,-1
 647.799804688 1062.40039062 l 1,0,-1
EndSplineSet
EndChar

StartChar: a
Encoding: 97 97 68
Width: 977
VWidth: 1331
GlyphClass: 2
Flags: W
LayerCount: 2
Fore
SplineSet
747.200195312 512 m 1,0,-1
 570.799804688 512 l 2,1,2
 537.5 512 537.5 512 519.049804688 510.400390625 c 128,-1,3
 500.599609375 508.799804688 500.599609375 508.799804688 472.700195312 498.799804688 c 128,-1,4
 444.799804688 488.799804688 444.799804688 488.799804688 423.200195312 468.799804688 c 0,5,6
 372.799804688 421.599609375 372.799804688 421.599609375 372.799804688 344.799804688 c 0,7,8
 372.799804688 276.799804688 372.799804688 276.799804688 416.450195312 231.200195312 c 128,-1,9
 460.099609375 185.599609375 460.099609375 185.599609375 534.799804688 185.599609375 c 0,10,11
 578 185.599609375 578 185.599609375 611.75 196.799804688 c 128,-1,12
 645.5 208 645.5 208 667.549804688 224.799804688 c 128,-1,13
 689.599609375 241.599609375 689.599609375 241.599609375 705.349609375 268.799804688 c 128,-1,14
 721.099609375 296 721.099609375 296 728.75 319.599609375 c 128,-1,15
 736.400390625 343.200195312 736.400390625 343.200195312 740.900390625 376 c 128,-1,16
 745.400390625 408.799804688 745.400390625 408.799804688 746.299804688 429.599609375 c 128,-1,17
 747.200195312 450.400390625 747.200195312 450.400390625 747.200195312 479.200195312 c 2,18,-1
 747.200195312 512 l 1,0,-1
603.200195312 934.400390625 m 0,19,20
 680.599609375 934.400390625 680.599609375 934.400390625 739.099609375 913.200195312 c 128,-1,21
 797.599609375 892 797.599609375 892 835.400390625 832.799804688 c 0,22,23
 862.400390625 790.400390625 862.400390625 790.400390625 862.400390625 701.599609375 c 2,24,-1
 862.400390625 102.400390625 l 1,25,-1
 747.200195312 102.400390625 l 1,26,-1
 747.200195312 200.799804688 l 1,27,-1
 738.200195312 200.799804688 l 1,28,29
 647.299804688 89.599609375 647.299804688 89.599609375 513.200195312 89.599609375 c 0,30,31
 405.200195312 89.599609375 405.200195312 89.599609375 331.400390625 161.599609375 c 128,-1,32
 257.599609375 233.599609375 257.599609375 233.599609375 257.599609375 343.200195312 c 0,33,34
 257.599609375 458.400390625 257.599609375 458.400390625 336.799804688 528.799804688 c 0,35,36
 365.599609375 553.599609375 365.599609375 553.599609375 398 569.599609375 c 128,-1,37
 430.400390625 585.599609375 430.400390625 585.599609375 465.950195312 591.599609375 c 128,-1,38
 501.5 597.599609375 501.5 597.599609375 521.75 598.799804688 c 128,-1,39
 542 600 542 600 572.599609375 600 c 2,40,-1
 747.200195312 600 l 1,41,-1
 747.200195312 697.599609375 l 2,42,43
 747.200195312 767.200195312 747.200195312 767.200195312 731 792 c 0,44,45
 715.700195312 815.200195312 715.700195312 815.200195312 687.349609375 826.799804688 c 128,-1,46
 659 838.400390625 659 838.400390625 603.200195312 838.400390625 c 0,47,48
 495.200195312 838.400390625 495.200195312 838.400390625 344 821.599609375 c 1,49,-1
 344 919.200195312 l 1,50,51
 492.5 934.400390625 492.5 934.400390625 603.200195312 934.400390625 c 0,19,20
EndSplineSet
Position2: "Single Positioning lookup 18 subtable" dx=-115 dy=0 dh=0 dv=0
Position2: "Single Positioning lookup 17 subtable" dx=-115 dy=0 dh=0 dv=0
Position2: "Single Positioning lookup 16 subtable" dx=0 dy=0 dh=0 dv=0
Position2: "Single Positioning lookup 13 subtable" dx=-115 dy=0 dh=0 dv=0
Position2: "Single Positioning lookup 8 subtable" dx=115 dy=0 dh=0 dv=0
Position2: "Single Positioning lookup 7 subtable" dx=115 dy=0 dh=0 dv=0
Position2: "Single Positioning lookup 6 subtable" dx=0 dy=0 dh=0 dv=0
Position2: "Single Positioning lookup 2 subtable" dx=115 dy=0 dh=0 dv=0
EndChar

StartChar: b
Encoding: 98 98 69
Width: 980
VWidth: 1368
GlyphClass: 2
Flags: W
LayerCount: 2
Fore
SplineSet
610 971.200195312 m 0,0,1
 699.099609375 971.200195312 699.099609375 971.200195312 768.400390625 921.200195312 c 128,-1,2
 837.700195312 871.200195312 837.700195312 871.200195312 869.200195312 781.599609375 c 0,3,4
 880.900390625 748 880.900390625 748 886.75 706.400390625 c 128,-1,5
 892.599609375 664.799804688 892.599609375 664.799804688 893.5 635.599609375 c 128,-1,6
 894.400390625 606.400390625 894.400390625 606.400390625 894.400390625 548.799804688 c 128,-1,7
 894.400390625 491.200195312 894.400390625 491.200195312 893.5 462 c 128,-1,8
 892.599609375 432.799804688 892.599609375 432.799804688 886.75 391.200195312 c 128,-1,9
 880.900390625 349.599609375 880.900390625 349.599609375 869.200195312 316 c 0,10,11
 837.700195312 226.400390625 837.700195312 226.400390625 768.400390625 176.400390625 c 128,-1,12
 699.099609375 126.400390625 699.099609375 126.400390625 610 126.400390625 c 0,13,14
 494.799804688 126.400390625 494.799804688 126.400390625 413.799804688 239.200195312 c 1,15,-1
 404.799804688 239.200195312 l 1,16,-1
 404.799804688 139.200195312 l 1,17,-1
 289.599609375 139.200195312 l 1,18,-1
 289.599609375 1265.59960938 l 1,19,-1
 404.799804688 1265.59960938 l 1,20,-1
 404.799804688 858.400390625 l 1,21,-1
 413.799804688 858.400390625 l 1,22,23
 494.799804688 971.200195312 494.799804688 971.200195312 610 971.200195312 c 0,0,1
592 875.200195312 m 128,-1,25
 531.700195312 875.200195312 531.700195312 875.200195312 489.849609375 840.400390625 c 128,-1,26
 448 805.599609375 448 805.599609375 428.200195312 753.599609375 c 0,27,28
 404.799804688 690.400390625 404.799804688 690.400390625 404.799804688 548.799804688 c 128,-1,29
 404.799804688 407.200195312 404.799804688 407.200195312 428.200195312 344 c 0,30,31
 448 292 448 292 489.849609375 257.200195312 c 128,-1,32
 531.700195312 222.400390625 531.700195312 222.400390625 592 222.400390625 c 128,-1,33
 652.299804688 222.400390625 652.299804688 222.400390625 694.150390625 257.200195312 c 128,-1,34
 736 292 736 292 755.799804688 344 c 0,35,36
 779.200195312 407.200195312 779.200195312 407.200195312 779.200195312 548.799804688 c 128,-1,37
 779.200195312 690.400390625 779.200195312 690.400390625 755.799804688 753.599609375 c 0,38,39
 736 805.599609375 736 805.599609375 694.150390625 840.400390625 c 128,-1,24
 652.299804688 875.200195312 652.299804688 875.200195312 592 875.200195312 c 128,-1,25
EndSplineSet
Position2: "Single Positioning lookup 18 subtable" dx=-115 dy=0 dh=0 dv=0
Position2: "Single Positioning lookup 17 subtable" dx=-115 dy=0 dh=0 dv=0
Position2: "Single Positioning lookup 16 subtable" dx=0 dy=0 dh=0 dv=0
Position2: "Single Positioning lookup 13 subtable" dx=-115 dy=0 dh=0 dv=0
Position2: "Single Positioning lookup 8 subtable" dx=115 dy=0 dh=0 dv=0
Position2: "Single Positioning lookup 7 subtable" dx=115 dy=0 dh=0 dv=0
Position2: "Single Positioning lookup 6 subtable" dx=0 dy=0 dh=0 dv=0
Position2: "Single Positioning lookup 2 subtable" dx=115 dy=0 dh=0 dv=0
EndChar

StartChar: c
Encoding: 99 99 70
Width: 977
VWidth: 1331
GlyphClass: 2
Flags: W
LayerCount: 2
Fore
SplineSet
257.599609375 512 m 128,-1,1
 257.599609375 601.599609375 257.599609375 601.599609375 264.349609375 659.200195312 c 128,-1,2
 271.099609375 716.799804688 271.099609375 716.799804688 296.299804688 767.200195312 c 0,3,4
 378.200195312 934.400390625 378.200195312 934.400390625 601.400390625 934.400390625 c 0,5,6
 691.400390625 934.400390625 691.400390625 934.400390625 844.400390625 920.799804688 c 1,7,-1
 844.400390625 824.799804688 l 1,8,9
 689.599609375 838.400390625 689.599609375 838.400390625 601.400390625 838.400390625 c 0,10,11
 524 838.400390625 524 838.400390625 478.549804688 812.400390625 c 128,-1,12
 433.099609375 786.400390625 433.099609375 786.400390625 404.299804688 733.599609375 c 0,13,14
 389.900390625 706.400390625 389.900390625 706.400390625 382.25 665.599609375 c 128,-1,15
 374.599609375 624.799804688 374.599609375 624.799804688 373.700195312 595.599609375 c 128,-1,16
 372.799804688 566.400390625 372.799804688 566.400390625 372.799804688 512 c 128,-1,17
 372.799804688 457.599609375 372.799804688 457.599609375 373.700195312 428.400390625 c 128,-1,18
 374.599609375 399.200195312 374.599609375 399.200195312 382.25 358.400390625 c 128,-1,19
 389.900390625 317.599609375 389.900390625 317.599609375 404.299804688 290.400390625 c 0,20,21
 433.099609375 237.599609375 433.099609375 237.599609375 478.549804688 211.599609375 c 128,-1,22
 524 185.599609375 524 185.599609375 601.400390625 185.599609375 c 0,23,24
 706.700195312 185.599609375 706.700195312 185.599609375 862.400390625 206.400390625 c 1,25,-1
 862.400390625 110.400390625 l 1,26,27
 707.599609375 89.599609375 707.599609375 89.599609375 601.400390625 89.599609375 c 0,28,29
 378.200195312 89.599609375 378.200195312 89.599609375 296.299804688 256.799804688 c 0,30,31
 271.099609375 307.200195312 271.099609375 307.200195312 264.349609375 364.799804688 c 128,-1,0
 257.599609375 422.400390625 257.599609375 422.400390625 257.599609375 512 c 128,-1,1
EndSplineSet
Position2: "Single Positioning lookup 18 subtable" dx=-115 dy=0 dh=0 dv=0
Position2: "Single Positioning lookup 17 subtable" dx=-115 dy=0 dh=0 dv=0
Position2: "Single Positioning lookup 16 subtable" dx=0 dy=0 dh=0 dv=0
Position2: "Single Positioning lookup 13 subtable" dx=-115 dy=0 dh=0 dv=0
Position2: "Single Positioning lookup 8 subtable" dx=115 dy=0 dh=0 dv=0
Position2: "Single Positioning lookup 7 subtable" dx=115 dy=0 dh=0 dv=0
Position2: "Single Positioning lookup 6 subtable" dx=0 dy=0 dh=0 dv=0
Position2: "Single Positioning lookup 2 subtable" dx=115 dy=0 dh=0 dv=0
EndChar

StartChar: d
Encoding: 100 100 71
Width: 977
VWidth: 1368
GlyphClass: 2
Flags: W
LayerCount: 2
Fore
SplineSet
542 971.200195312 m 0,0,1
 602.299804688 971.200195312 602.299804688 971.200195312 654.5 943.599609375 c 128,-1,2
 706.700195312 916 706.700195312 916 738.200195312 858.400390625 c 1,3,-1
 747.200195312 858.400390625 l 1,4,-1
 747.200195312 1265.59960938 l 1,5,-1
 862.400390625 1265.59960938 l 1,6,-1
 862.400390625 139.200195312 l 1,7,-1
 747.200195312 139.200195312 l 1,8,-1
 747.200195312 239.200195312 l 1,9,-1
 738.200195312 239.200195312 l 1,10,11
 706.700195312 181.599609375 706.700195312 181.599609375 654.5 154 c 128,-1,12
 602.299804688 126.400390625 602.299804688 126.400390625 542 126.400390625 c 0,13,14
 452.900390625 126.400390625 452.900390625 126.400390625 383.599609375 176.400390625 c 128,-1,15
 314.299804688 226.400390625 314.299804688 226.400390625 282.799804688 316 c 0,16,17
 271.099609375 349.599609375 271.099609375 349.599609375 265.25 391.200195312 c 128,-1,18
 259.400390625 432.799804688 259.400390625 432.799804688 258.5 462 c 128,-1,19
 257.599609375 491.200195312 257.599609375 491.200195312 257.599609375 548.799804688 c 128,-1,20
 257.599609375 606.400390625 257.599609375 606.400390625 258.5 635.599609375 c 128,-1,21
 259.400390625 664.799804688 259.400390625 664.799804688 265.25 706.400390625 c 128,-1,22
 271.099609375 748 271.099609375 748 282.799804688 781.599609375 c 0,23,24
 314.299804688 871.200195312 314.299804688 871.200195312 383.599609375 921.200195312 c 128,-1,25
 452.900390625 971.200195312 452.900390625 971.200195312 542 971.200195312 c 0,0,1
560 875.200195312 m 128,-1,27
 499.700195312 875.200195312 499.700195312 875.200195312 457.849609375 840.400390625 c 128,-1,28
 416 805.599609375 416 805.599609375 396.200195312 753.599609375 c 0,29,30
 372.799804688 690.400390625 372.799804688 690.400390625 372.799804688 548.799804688 c 128,-1,31
 372.799804688 407.200195312 372.799804688 407.200195312 396.200195312 344 c 0,32,33
 416 292 416 292 457.849609375 257.200195312 c 128,-1,34
 499.700195312 222.400390625 499.700195312 222.400390625 560 222.400390625 c 128,-1,35
 620.299804688 222.400390625 620.299804688 222.400390625 662.150390625 257.200195312 c 128,-1,36
 704 292 704 292 723.799804688 344 c 0,37,38
 747.200195312 407.200195312 747.200195312 407.200195312 747.200195312 548.799804688 c 128,-1,39
 747.200195312 690.400390625 747.200195312 690.400390625 723.799804688 753.599609375 c 0,40,41
 704 805.599609375 704 805.599609375 662.150390625 840.400390625 c 128,-1,26
 620.299804688 875.200195312 620.299804688 875.200195312 560 875.200195312 c 128,-1,27
EndSplineSet
Position2: "Single Positioning lookup 18 subtable" dx=-115 dy=0 dh=0 dv=0
Position2: "Single Positioning lookup 17 subtable" dx=-115 dy=0 dh=0 dv=0
Position2: "Single Positioning lookup 16 subtable" dx=0 dy=0 dh=0 dv=0
Position2: "Single Positioning lookup 13 subtable" dx=-115 dy=0 dh=0 dv=0
Position2: "Single Positioning lookup 8 subtable" dx=115 dy=0 dh=0 dv=0
Position2: "Single Positioning lookup 7 subtable" dx=115 dy=0 dh=0 dv=0
Position2: "Single Positioning lookup 6 subtable" dx=0 dy=0 dh=0 dv=0
Position2: "Single Positioning lookup 2 subtable" dx=115 dy=0 dh=0 dv=0
EndChar

StartChar: e
Encoding: 101 101 72
Width: 979
VWidth: 1331
GlyphClass: 2
Flags: W
LayerCount: 2
Fore
SplineSet
576 838.400390625 m 128,-1,1
 511.200195312 838.400390625 511.200195312 838.400390625 465.75 812.799804688 c 128,-1,2
 420.299804688 787.200195312 420.299804688 787.200195312 400.5 741.599609375 c 0,3,4
 381.599609375 703.200195312 381.599609375 703.200195312 376.200195312 608 c 1,5,-1
 775.799804688 608 l 1,6,7
 770.400390625 703.200195312 770.400390625 703.200195312 751.5 741.599609375 c 0,8,9
 731.700195312 787.200195312 731.700195312 787.200195312 686.25 812.799804688 c 128,-1,0
 640.799804688 838.400390625 640.799804688 838.400390625 576 838.400390625 c 128,-1,1
576 934.400390625 m 128,-1,11
 681.299804688 934.400390625 681.299804688 934.400390625 755.549804688 889.599609375 c 128,-1,12
 829.799804688 844.799804688 829.799804688 844.799804688 859.5 773.599609375 c 0,13,14
 874.799804688 739.200195312 874.799804688 739.200195312 882.450195312 692.799804688 c 128,-1,15
 890.099609375 646.400390625 890.099609375 646.400390625 891.450195312 610.799804688 c 128,-1,16
 892.799804688 575.200195312 892.799804688 575.200195312 892.799804688 512 c 1,17,-1
 374.400390625 512 l 1,18,19
 374.400390625 457.599609375 374.400390625 457.599609375 375.299804688 428.400390625 c 128,-1,20
 376.200195312 399.200195312 376.200195312 399.200195312 382.950195312 358.400390625 c 128,-1,21
 389.700195312 317.599609375 389.700195312 317.599609375 403.200195312 290.400390625 c 0,22,23
 455.400390625 185.599609375 455.400390625 185.599609375 594 185.599609375 c 0,24,25
 698.400390625 185.599609375 698.400390625 185.599609375 864 202.400390625 c 1,26,-1
 864 106.400390625 l 1,27,28
 700.200195312 89.599609375 700.200195312 89.599609375 594 89.599609375 c 0,29,30
 482.400390625 89.599609375 482.400390625 89.599609375 405.900390625 136 c 128,-1,31
 329.400390625 182.400390625 329.400390625 182.400390625 295.200195312 256.799804688 c 0,32,33
 271.799804688 307.200195312 271.799804688 307.200195312 265.5 364.799804688 c 128,-1,34
 259.200195312 422.400390625 259.200195312 422.400390625 259.200195312 512 c 0,35,36
 259.200195312 575.200195312 259.200195312 575.200195312 260.549804688 610.799804688 c 128,-1,37
 261.900390625 646.400390625 261.900390625 646.400390625 269.549804688 692.799804688 c 128,-1,38
 277.200195312 739.200195312 277.200195312 739.200195312 292.5 773.599609375 c 0,39,40
 322.200195312 844.799804688 322.200195312 844.799804688 396.450195312 889.599609375 c 128,-1,10
 470.700195312 934.400390625 470.700195312 934.400390625 576 934.400390625 c 128,-1,11
EndSplineSet
Position2: "Single Positioning lookup 18 subtable" dx=-115 dy=0 dh=0 dv=0
Position2: "Single Positioning lookup 17 subtable" dx=-115 dy=0 dh=0 dv=0
Position2: "Single Positioning lookup 16 subtable" dx=0 dy=0 dh=0 dv=0
Position2: "Single Positioning lookup 13 subtable" dx=-115 dy=0 dh=0 dv=0
Position2: "Single Positioning lookup 8 subtable" dx=115 dy=0 dh=0 dv=0
Position2: "Single Positioning lookup 7 subtable" dx=115 dy=0 dh=0 dv=0
Position2: "Single Positioning lookup 6 subtable" dx=0 dy=0 dh=0 dv=0
Position2: "Single Positioning lookup 2 subtable" dx=115 dy=0 dh=0 dv=0
EndChar

StartChar: f
Encoding: 102 102 73
Width: 972
VWidth: 1371
GlyphClass: 2
Flags: W
LayerCount: 2
Fore
SplineSet
512 142.400390625 m 1,0,-1
 396.799804688 142.400390625 l 1,1,-1
 396.799804688 763.200195312 l 1,2,-1
 166.400390625 763.200195312 l 1,3,-1
 166.400390625 859.200195312 l 1,4,-1
 396.799804688 859.200195312 l 1,5,-1
 396.799804688 1045.59960938 l 2,6,7
 396.799804688 1076 396.799804688 1076 398.150390625 1094.79980469 c 128,-1,8
 399.5 1113.59960938 399.5 1113.59960938 410.75 1146.79980469 c 128,-1,9
 422 1180 422 1180 443.599609375 1205.59960938 c 0,10,11
 473.299804688 1241.59960938 473.299804688 1241.59960938 525.950195312 1261.59960938 c 128,-1,12
 578.599609375 1281.59960938 578.599609375 1281.59960938 645.200195312 1281.59960938 c 0,13,14
 729.799804688 1281.59960938 729.799804688 1281.59960938 857.599609375 1268.79980469 c 1,15,-1
 857.599609375 1172.79980469 l 1,16,17
 729.799804688 1185.59960938 729.799804688 1185.59960938 645.200195312 1185.59960938 c 0,18,19
 567.799804688 1185.59960938 567.799804688 1185.59960938 537.200195312 1149.59960938 c 0,20,21
 512 1120 512 1120 512 1045.59960938 c 2,22,-1
 512 859.200195312 l 1,23,-1
 857.599609375 859.200195312 l 1,24,-1
 857.599609375 763.200195312 l 1,25,-1
 512 763.200195312 l 1,26,-1
 512 142.400390625 l 1,0,-1
EndSplineSet
Position2: "Single Positioning lookup 18 subtable" dx=-115 dy=0 dh=0 dv=0
Position2: "Single Positioning lookup 17 subtable" dx=-115 dy=0 dh=0 dv=0
Position2: "Single Positioning lookup 16 subtable" dx=0 dy=0 dh=0 dv=0
Position2: "Single Positioning lookup 13 subtable" dx=-115 dy=0 dh=0 dv=0
Position2: "Single Positioning lookup 8 subtable" dx=115 dy=0 dh=0 dv=0
Position2: "Single Positioning lookup 7 subtable" dx=115 dy=0 dh=0 dv=0
Position2: "Single Positioning lookup 6 subtable" dx=0 dy=0 dh=0 dv=0
Position2: "Single Positioning lookup 2 subtable" dx=115 dy=0 dh=0 dv=0
EndChar

StartChar: g
Encoding: 103 103 74
Width: 977
VWidth: 1305
GlyphClass: 2
Flags: W
LayerCount: 2
Fore
SplineSet
372.799804688 537.599609375 m 128,-1,1
 372.799804688 362.400390625 372.799804688 362.400390625 449.299804688 299.200195312 c 0,2,3
 493.400390625 262.400390625 493.400390625 262.400390625 560 262.400390625 c 128,-1,4
 626.599609375 262.400390625 626.599609375 262.400390625 670.700195312 299.200195312 c 0,5,6
 747.200195312 362.400390625 747.200195312 362.400390625 747.200195312 537.599609375 c 128,-1,7
 747.200195312 712.799804688 747.200195312 712.799804688 670.700195312 776 c 0,8,9
 626.599609375 812.799804688 626.599609375 812.799804688 560 812.799804688 c 128,-1,10
 493.400390625 812.799804688 493.400390625 812.799804688 449.299804688 776 c 0,11,0
 372.799804688 712.799804688 372.799804688 712.799804688 372.799804688 537.599609375 c 128,-1,1
747.200195312 279.200195312 m 1,12,-1
 738.200195312 279.200195312 l 1,13,14
 656.299804688 166.400390625 656.299804688 166.400390625 542 166.400390625 c 0,15,16
 435.799804688 166.400390625 435.799804688 166.400390625 361.099609375 231.200195312 c 0,17,18
 257.599609375 322.400390625 257.599609375 322.400390625 257.599609375 537.599609375 c 128,-1,19
 257.599609375 752.799804688 257.599609375 752.799804688 361.099609375 844 c 0,20,21
 435.799804688 908.799804688 435.799804688 908.799804688 542 908.799804688 c 0,22,23
 656.299804688 908.799804688 656.299804688 908.799804688 738.200195312 796 c 1,24,-1
 747.200195312 796 l 1,25,-1
 747.200195312 896 l 1,26,-1
 862.400390625 896 l 1,27,-1
 862.400390625 204.799804688 l 2,28,29
 862.400390625 68 862.400390625 68 807.5 -13.599609375 c 0,30,31
 722 -140.799804688 722 -140.799804688 538.400390625 -140.799804688 c 0,32,33
 434 -140.799804688 434 -140.799804688 326 -128.799804688 c 1,34,-1
 326 -32.7998046875 l 1,35,36
 447.5 -44.7998046875 447.5 -44.7998046875 538.400390625 -44.7998046875 c 0,37,38
 652.700195312 -44.7998046875 652.700195312 -44.7998046875 707.599609375 33.599609375 c 0,39,40
 747.200195312 90.400390625 747.200195312 90.400390625 747.200195312 204.799804688 c 2,41,-1
 747.200195312 279.200195312 l 1,12,-1
EndSplineSet
Substitution2: "'ss11' Style Set 11 lookup 112 subtable" g.long
Position2: "Single Positioning lookup 18 subtable" dx=-115 dy=0 dh=0 dv=0
Position2: "Single Positioning lookup 17 subtable" dx=-115 dy=0 dh=0 dv=0
Position2: "Single Positioning lookup 16 subtable" dx=0 dy=0 dh=0 dv=0
Position2: "Single Positioning lookup 13 subtable" dx=-115 dy=0 dh=0 dv=0
Position2: "Single Positioning lookup 8 subtable" dx=115 dy=0 dh=0 dv=0
Position2: "Single Positioning lookup 7 subtable" dx=115 dy=0 dh=0 dv=0
Position2: "Single Positioning lookup 6 subtable" dx=0 dy=0 dh=0 dv=0
Position2: "Single Positioning lookup 2 subtable" dx=115 dy=0 dh=0 dv=0
EndChar

StartChar: h
Encoding: 104 104 75
Width: 979
VWidth: 1369
GlyphClass: 2
Flags: W
LayerCount: 2
Fore
SplineSet
594 972.799804688 m 0,0,1
 658.799804688 972.799804688 658.799804688 972.799804688 712.799804688 949.599609375 c 128,-1,2
 766.799804688 926.400390625 766.799804688 926.400390625 801.900390625 887.200195312 c 0,3,4
 824.400390625 862.400390625 824.400390625 862.400390625 837.900390625 836 c 128,-1,5
 851.400390625 809.599609375 851.400390625 809.599609375 856.349609375 777.599609375 c 128,-1,6
 861.299804688 745.599609375 861.299804688 745.599609375 862.650390625 724.799804688 c 128,-1,7
 864 704 864 704 864 666.400390625 c 2,8,-1
 864 140.799804688 l 1,9,-1
 748.799804688 140.799804688 l 1,10,-1
 748.799804688 666.400390625 l 2,11,12
 748.799804688 710.400390625 748.799804688 710.400390625 747.450195312 732 c 128,-1,13
 746.099609375 753.599609375 746.099609375 753.599609375 736.650390625 780.400390625 c 128,-1,14
 727.200195312 807.200195312 727.200195312 807.200195312 708.299804688 827.200195312 c 0,15,16
 659.700195312 876.799804688 659.700195312 876.799804688 576 876.799804688 c 128,-1,17
 492.299804688 876.799804688 492.299804688 876.799804688 443.700195312 827.200195312 c 0,18,19
 424.799804688 807.200195312 424.799804688 807.200195312 415.349609375 780.400390625 c 128,-1,20
 405.900390625 753.599609375 405.900390625 753.599609375 404.549804688 732 c 128,-1,21
 403.200195312 710.400390625 403.200195312 710.400390625 403.200195312 666.400390625 c 2,22,-1
 403.200195312 140.799804688 l 1,23,-1
 288 140.799804688 l 1,24,-1
 288 1267.20019531 l 1,25,-1
 403.200195312 1267.20019531 l 1,26,-1
 403.200195312 870.400390625 l 1,27,-1
 412.200195312 870.400390625 l 1,28,29
 445.5 916.799804688 445.5 916.799804688 494.549804688 944.799804688 c 128,-1,30
 543.599609375 972.799804688 543.599609375 972.799804688 594 972.799804688 c 0,0,1
EndSplineSet
Position2: "Single Positioning lookup 18 subtable" dx=-115 dy=0 dh=0 dv=0
Position2: "Single Positioning lookup 17 subtable" dx=-115 dy=0 dh=0 dv=0
Position2: "Single Positioning lookup 16 subtable" dx=0 dy=0 dh=0 dv=0
Position2: "Single Positioning lookup 13 subtable" dx=-115 dy=0 dh=0 dv=0
Position2: "Single Positioning lookup 8 subtable" dx=115 dy=0 dh=0 dv=0
Position2: "Single Positioning lookup 7 subtable" dx=115 dy=0 dh=0 dv=0
Position2: "Single Positioning lookup 6 subtable" dx=0 dy=0 dh=0 dv=0
Position2: "Single Positioning lookup 2 subtable" dx=115 dy=0 dh=0 dv=0
EndChar

StartChar: i
Encoding: 105 105 76
Width: 967
VWidth: 1371
GlyphClass: 2
Flags: W
LayerCount: 2
Fore
SplineSet
535.200195312 1281.59960938 m 128,-1,1
 580.200195312 1281.59960938 580.200195312 1281.59960938 608.099609375 1256.79980469 c 128,-1,2
 636 1232 636 1232 636 1192 c 128,-1,3
 636 1152 636 1152 608.099609375 1127.20019531 c 128,-1,4
 580.200195312 1102.40039062 580.200195312 1102.40039062 535.200195312 1102.40039062 c 128,-1,5
 490.200195312 1102.40039062 490.200195312 1102.40039062 462.299804688 1127.20019531 c 128,-1,6
 434.400390625 1152 434.400390625 1152 434.400390625 1192 c 128,-1,7
 434.400390625 1232 434.400390625 1232 462.299804688 1256.79980469 c 128,-1,0
 490.200195312 1281.59960938 490.200195312 1281.59960938 535.200195312 1281.59960938 c 128,-1,1
506.400390625 142.400390625 m 1,8,-1
 506.400390625 865.599609375 l 1,9,-1
 276 865.599609375 l 1,10,-1
 276 961.599609375 l 1,11,-1
 621.599609375 961.599609375 l 1,12,-1
 621.599609375 142.400390625 l 1,13,-1
 506.400390625 142.400390625 l 1,8,-1
EndSplineSet
Substitution2: "'ss07' Style Set 7 lookup 108 subtable" i.flyingdot
Position2: "Single Positioning lookup 23 subtable" dx=115 dy=0 dh=0 dv=0
Position2: "Single Positioning lookup 21 subtable" dx=-115 dy=0 dh=0 dv=0
Position2: "Single Positioning lookup 15 subtable" dx=115 dy=0 dh=0 dv=0
Position2: "Single Positioning lookup 12 subtable" dx=115 dy=0 dh=0 dv=0
Position2: "Single Positioning lookup 10 subtable" dx=115 dy=0 dh=0 dv=0
Position2: "Single Positioning lookup 5 subtable" dx=115 dy=0 dh=0 dv=0
Position2: "Single Positioning lookup 4 subtable" dx=115 dy=0 dh=0 dv=0
Position2: "Single Positioning lookup 3 subtable" dx=115 dy=0 dh=0 dv=0
Position2: "Single Positioning lookup 1 subtable" dx=115 dy=0 dh=0 dv=0
Position2: "Single Positioning lookup 0 subtable" dx=115 dy=0 dh=0 dv=0
EndChar

StartChar: j
Encoding: 106 106 77
Width: 969
VWidth: 1344
GlyphClass: 2
Flags: W
LayerCount: 2
Fore
SplineSet
623.799804688 243.200195312 m 2,0,-1
 623.799804688 838.400390625 l 1,1,-1
 393.400390625 838.400390625 l 1,2,-1
 393.400390625 934.400390625 l 1,3,-1
 739 934.400390625 l 1,4,-1
 739 243.200195312 l 2,5,6
 739 106.400390625 739 106.400390625 684.099609375 24.7998046875 c 0,7,8
 598.599609375 -102.400390625 598.599609375 -102.400390625 415 -102.400390625 c 0,9,10
 310.599609375 -102.400390625 310.599609375 -102.400390625 202.599609375 -90.400390625 c 1,11,-1
 202.599609375 5.599609375 l 1,12,13
 324.099609375 -6.400390625 324.099609375 -6.400390625 415 -6.400390625 c 0,14,15
 529.299804688 -6.400390625 529.299804688 -6.400390625 584.200195312 72 c 0,16,17
 623.799804688 128.799804688 623.799804688 128.799804688 623.799804688 243.200195312 c 2,0,-1
652.599609375 1254.40039062 m 128,-1,19
 697.599609375 1254.40039062 697.599609375 1254.40039062 725.5 1229.59960938 c 128,-1,20
 753.400390625 1204.79980469 753.400390625 1204.79980469 753.400390625 1164.79980469 c 128,-1,21
 753.400390625 1124.79980469 753.400390625 1124.79980469 725.5 1100 c 128,-1,22
 697.599609375 1075.20019531 697.599609375 1075.20019531 652.599609375 1075.20019531 c 128,-1,23
 607.599609375 1075.20019531 607.599609375 1075.20019531 579.700195312 1100 c 128,-1,24
 551.799804688 1124.79980469 551.799804688 1124.79980469 551.799804688 1164.79980469 c 128,-1,25
 551.799804688 1204.79980469 551.799804688 1204.79980469 579.700195312 1229.59960938 c 128,-1,18
 607.599609375 1254.40039062 607.599609375 1254.40039062 652.599609375 1254.40039062 c 128,-1,19
EndSplineSet
Substitution2: "'ss11' Style Set 11 lookup 112 subtable" j.long
Substitution2: "'ss07' Style Set 7 lookup 108 subtable" j.flyingdot
Position2: "Single Positioning lookup 18 subtable" dx=-115 dy=0 dh=0 dv=0
Position2: "Single Positioning lookup 17 subtable" dx=-115 dy=0 dh=0 dv=0
Position2: "Single Positioning lookup 16 subtable" dx=0 dy=0 dh=0 dv=0
Position2: "Single Positioning lookup 13 subtable" dx=-115 dy=0 dh=0 dv=0
Position2: "Single Positioning lookup 8 subtable" dx=115 dy=0 dh=0 dv=0
Position2: "Single Positioning lookup 7 subtable" dx=115 dy=0 dh=0 dv=0
Position2: "Single Positioning lookup 6 subtable" dx=0 dy=0 dh=0 dv=0
Position2: "Single Positioning lookup 2 subtable" dx=115 dy=0 dh=0 dv=0
EndChar

StartChar: k
Encoding: 107 107 78
Width: 984
VWidth: 1369
GlyphClass: 2
Flags: W
LayerCount: 2
Fore
SplineSet
408.5 140.799804688 m 1,0,-1
 293.299804688 140.799804688 l 1,1,-1
 293.299804688 1267.20019531 l 1,2,-1
 408.5 1267.20019531 l 1,3,-1
 408.5 622.400390625 l 1,4,-1
 777.5 960 l 1,5,-1
 922.400390625 960 l 1,6,-1
 595.700195312 656.799804688 l 1,7,-1
 964.700195312 140.799804688 l 1,8,-1
 824.299804688 140.799804688 l 1,9,-1
 521 588.799804688 l 1,10,-1
 408.5 488.799804688 l 1,11,-1
 408.5 140.799804688 l 1,0,-1
EndSplineSet
Position2: "Single Positioning lookup 18 subtable" dx=-115 dy=0 dh=0 dv=0
Position2: "Single Positioning lookup 17 subtable" dx=-115 dy=0 dh=0 dv=0
Position2: "Single Positioning lookup 16 subtable" dx=0 dy=0 dh=0 dv=0
Position2: "Single Positioning lookup 13 subtable" dx=-115 dy=0 dh=0 dv=0
Position2: "Single Positioning lookup 8 subtable" dx=115 dy=0 dh=0 dv=0
Position2: "Single Positioning lookup 7 subtable" dx=115 dy=0 dh=0 dv=0
Position2: "Single Positioning lookup 6 subtable" dx=0 dy=0 dh=0 dv=0
Position2: "Single Positioning lookup 2 subtable" dx=115 dy=0 dh=0 dv=0
EndChar

StartChar: l
Encoding: 108 108 79
Width: 992
VWidth: 1368
GlyphClass: 2
Flags: W
LayerCount: 2
Fore
SplineSet
876.799804688 130.400390625 m 1,0,1
 791.299804688 126.400390625 791.299804688 126.400390625 752.599609375 126.400390625 c 0,2,3
 656.299804688 126.400390625 656.299804688 126.400390625 596.900390625 180.799804688 c 0,4,5
 566.299804688 208.799804688 566.299804688 208.799804688 551 246 c 128,-1,6
 535.700195312 283.200195312 535.700195312 283.200195312 533.450195312 305.200195312 c 128,-1,7
 531.200195312 327.200195312 531.200195312 327.200195312 531.200195312 362.400390625 c 2,8,-1
 531.200195312 1265.59960938 l 1,9,-1
 646.400390625 1265.59960938 l 1,10,-1
 646.400390625 362.400390625 l 2,11,12
 646.400390625 337.599609375 646.400390625 337.599609375 647.299804688 324 c 128,-1,13
 648.200195312 310.400390625 648.200195312 310.400390625 654.049804688 291.200195312 c 128,-1,14
 659.900390625 272 659.900390625 272 671.599609375 257.599609375 c 0,15,16
 701.299804688 222.400390625 701.299804688 222.400390625 761.599609375 222.400390625 c 0,17,18
 822.799804688 222.400390625 822.799804688 222.400390625 876.799804688 226.400390625 c 1,19,-1
 876.799804688 130.400390625 l 1,0,1
EndSplineSet
Substitution2: "'ss09' Style Set 9 lookup 110 subtable" l.base
Substitution2: "'ss08' Style Set 8 lookup 109 subtable" l.zstyle
Position2: "Single Positioning lookup 21 subtable" dx=-115 dy=0 dh=0 dv=0
Position2: "Single Positioning lookup 12 subtable" dx=115 dy=0 dh=0 dv=0
Position2: "Single Positioning lookup 11 subtable" dx=0 dy=0 dh=0 dv=0
Position2: "Single Positioning lookup 10 subtable" dx=115 dy=0 dh=0 dv=0
Position2: "Single Positioning lookup 9 subtable" dx=-115 dy=0 dh=0 dv=0
Position2: "Single Positioning lookup 3 subtable" dx=115 dy=0 dh=0 dv=0
Position2: "Single Positioning lookup 1 subtable" dx=115 dy=0 dh=0 dv=0
EndChar

StartChar: m
Encoding: 109 109 80
Width: 979
VWidth: 1332
GlyphClass: 2
Flags: W
LayerCount: 2
Fore
SplineSet
430.200195312 936 m 0,0,1
 484.200195312 936 484.200195312 936 526.950195312 911.599609375 c 128,-1,2
 569.700195312 887.200195312 569.700195312 887.200195312 594.900390625 847.200195312 c 1,3,4
 671.400390625 936 671.400390625 936 775.799804688 936 c 0,5,6
 874.799804688 936 874.799804688 936 932.400390625 867.200195312 c 0,7,8
 954 840.799804688 954 840.799804688 964.799804688 808.799804688 c 128,-1,9
 975.599609375 776.799804688 975.599609375 776.799804688 977.400390625 754 c 128,-1,10
 979.200195312 731.200195312 979.200195312 731.200195312 979.200195312 688 c 2,11,-1
 979.200195312 104 l 1,12,-1
 864 104 l 1,13,-1
 864 688 l 2,14,15
 864 722.400390625 864 722.400390625 863.099609375 738.400390625 c 128,-1,16
 862.200195312 754.400390625 862.200195312 754.400390625 855.900390625 774.400390625 c 128,-1,17
 849.599609375 794.400390625 849.599609375 794.400390625 837 807.200195312 c 0,18,19
 804.599609375 840 804.599609375 840 748.799804688 840 c 128,-1,20
 693 840 693 840 660.599609375 807.200195312 c 0,21,22
 648 794.400390625 648 794.400390625 641.700195312 774.400390625 c 128,-1,23
 635.400390625 754.400390625 635.400390625 754.400390625 634.5 738.400390625 c 128,-1,24
 633.599609375 722.400390625 633.599609375 722.400390625 633.599609375 688 c 2,25,-1
 633.599609375 104 l 1,26,-1
 518.400390625 104 l 1,27,-1
 518.400390625 688 l 2,28,29
 518.400390625 722.400390625 518.400390625 722.400390625 517.5 738.400390625 c 128,-1,30
 516.599609375 754.400390625 516.599609375 754.400390625 510.299804688 774.400390625 c 128,-1,31
 504 794.400390625 504 794.400390625 491.400390625 807.200195312 c 0,32,33
 459 840 459 840 403.200195312 840 c 128,-1,34
 347.400390625 840 347.400390625 840 315 807.200195312 c 0,35,36
 302.400390625 794.400390625 302.400390625 794.400390625 296.099609375 774.400390625 c 128,-1,37
 289.799804688 754.400390625 289.799804688 754.400390625 288.900390625 738.400390625 c 128,-1,38
 288 722.400390625 288 722.400390625 288 688 c 2,39,-1
 288 104 l 1,40,-1
 172.799804688 104 l 1,41,-1
 172.799804688 923.200195312 l 1,42,-1
 288 923.200195312 l 1,43,-1
 288 863.200195312 l 1,44,-1
 297 863.200195312 l 1,45,46
 352.799804688 936 352.799804688 936 430.200195312 936 c 0,0,1
EndSplineSet
Substitution2: "Single Substitution lookup 73 subtable" mm
Substitution2: "Single Substitution lookup 72 subtable" liga1
Position2: "Single Positioning lookup 22 subtable" dx=115 dy=0 dh=0 dv=0
Position2: "Single Positioning lookup 20 subtable" dx=-115 dy=0 dh=0 dv=0
Position2: "Single Positioning lookup 19 subtable" dx=0 dy=0 dh=0 dv=0
Position2: "Single Positioning lookup 14 subtable" dx=0 dy=0 dh=0 dv=0
EndChar

StartChar: n
Encoding: 110 110 81
Width: 979
VWidth: 1332
GlyphClass: 2
Flags: W
LayerCount: 2
Fore
SplineSet
594 936 m 0,0,1
 658.799804688 936 658.799804688 936 712.799804688 912.799804688 c 128,-1,2
 766.799804688 889.599609375 766.799804688 889.599609375 801.900390625 850.400390625 c 0,3,4
 824.400390625 825.599609375 824.400390625 825.599609375 837.900390625 799.200195312 c 128,-1,5
 851.400390625 772.799804688 851.400390625 772.799804688 856.349609375 740.799804688 c 128,-1,6
 861.299804688 708.799804688 861.299804688 708.799804688 862.650390625 688 c 128,-1,7
 864 667.200195312 864 667.200195312 864 629.599609375 c 2,8,-1
 864 104 l 1,9,-1
 748.799804688 104 l 1,10,-1
 748.799804688 629.599609375 l 2,11,12
 748.799804688 673.599609375 748.799804688 673.599609375 747.450195312 695.200195312 c 128,-1,13
 746.099609375 716.799804688 746.099609375 716.799804688 736.650390625 743.599609375 c 128,-1,14
 727.200195312 770.400390625 727.200195312 770.400390625 708.299804688 790.400390625 c 0,15,16
 659.700195312 840 659.700195312 840 576 840 c 128,-1,17
 492.299804688 840 492.299804688 840 443.700195312 790.400390625 c 0,18,19
 424.799804688 770.400390625 424.799804688 770.400390625 415.349609375 743.599609375 c 128,-1,20
 405.900390625 716.799804688 405.900390625 716.799804688 404.549804688 695.200195312 c 128,-1,21
 403.200195312 673.599609375 403.200195312 673.599609375 403.200195312 629.599609375 c 2,22,-1
 403.200195312 104 l 1,23,-1
 288 104 l 1,24,-1
 288 923.200195312 l 1,25,-1
 403.200195312 923.200195312 l 1,26,-1
 403.200195312 833.599609375 l 1,27,-1
 412.200195312 833.599609375 l 1,28,29
 445.5 880 445.5 880 494.549804688 908 c 128,-1,30
 543.599609375 936 543.599609375 936 594 936 c 0,0,1
EndSplineSet
Position2: "Single Positioning lookup 18 subtable" dx=-115 dy=0 dh=0 dv=0
Position2: "Single Positioning lookup 17 subtable" dx=-115 dy=0 dh=0 dv=0
Position2: "Single Positioning lookup 16 subtable" dx=0 dy=0 dh=0 dv=0
Position2: "Single Positioning lookup 13 subtable" dx=-115 dy=0 dh=0 dv=0
Position2: "Single Positioning lookup 8 subtable" dx=115 dy=0 dh=0 dv=0
Position2: "Single Positioning lookup 7 subtable" dx=115 dy=0 dh=0 dv=0
Position2: "Single Positioning lookup 6 subtable" dx=0 dy=0 dh=0 dv=0
Position2: "Single Positioning lookup 2 subtable" dx=115 dy=0 dh=0 dv=0
EndChar

StartChar: o
Encoding: 111 111 82
Width: 979
VWidth: 1331
GlyphClass: 2
Flags: W
LayerCount: 2
Fore
SplineSet
576 934.400390625 m 128,-1,1
 659.700195312 934.400390625 659.700195312 934.400390625 725.849609375 900.400390625 c 128,-1,2
 792 866.400390625 792 866.400390625 834.299804688 806.400390625 c 0,3,4
 869.400390625 755.200195312 869.400390625 755.200195312 881.099609375 685.200195312 c 128,-1,5
 892.799804688 615.200195312 892.799804688 615.200195312 892.799804688 512 c 128,-1,6
 892.799804688 408.799804688 892.799804688 408.799804688 881.099609375 338.799804688 c 128,-1,7
 869.400390625 268.799804688 869.400390625 268.799804688 834.299804688 217.599609375 c 0,8,9
 792 157.599609375 792 157.599609375 725.849609375 123.599609375 c 128,-1,10
 659.700195312 89.599609375 659.700195312 89.599609375 576 89.599609375 c 128,-1,11
 492.299804688 89.599609375 492.299804688 89.599609375 426.150390625 123.599609375 c 128,-1,12
 360 157.599609375 360 157.599609375 317.700195312 217.599609375 c 0,13,14
 282.599609375 268.799804688 282.599609375 268.799804688 270.900390625 338.799804688 c 128,-1,15
 259.200195312 408.799804688 259.200195312 408.799804688 259.200195312 512 c 128,-1,16
 259.200195312 615.200195312 259.200195312 615.200195312 270.900390625 685.200195312 c 128,-1,17
 282.599609375 755.200195312 282.599609375 755.200195312 317.700195312 806.400390625 c 0,18,19
 360 866.400390625 360 866.400390625 426.150390625 900.400390625 c 128,-1,0
 492.299804688 934.400390625 492.299804688 934.400390625 576 934.400390625 c 128,-1,1
576 838.400390625 m 128,-1,21
 469.799804688 838.400390625 469.799804688 838.400390625 417.599609375 760 c 0,22,23
 397.799804688 730.400390625 397.799804688 730.400390625 387.900390625 686 c 128,-1,24
 378 641.599609375 378 641.599609375 376.200195312 606.400390625 c 128,-1,25
 374.400390625 571.200195312 374.400390625 571.200195312 374.400390625 512 c 128,-1,26
 374.400390625 452.799804688 374.400390625 452.799804688 376.200195312 417.599609375 c 128,-1,27
 378 382.400390625 378 382.400390625 387.900390625 338 c 128,-1,28
 397.799804688 293.599609375 397.799804688 293.599609375 417.599609375 264 c 0,29,30
 469.799804688 185.599609375 469.799804688 185.599609375 576 185.599609375 c 128,-1,31
 682.200195312 185.599609375 682.200195312 185.599609375 734.400390625 264 c 0,32,33
 754.200195312 293.599609375 754.200195312 293.599609375 764.099609375 338 c 128,-1,34
 774 382.400390625 774 382.400390625 775.799804688 417.599609375 c 128,-1,35
 777.599609375 452.799804688 777.599609375 452.799804688 777.599609375 512 c 128,-1,36
 777.599609375 571.200195312 777.599609375 571.200195312 775.799804688 606.400390625 c 128,-1,37
 774 641.599609375 774 641.599609375 764.099609375 686 c 128,-1,38
 754.200195312 730.400390625 754.200195312 730.400390625 734.400390625 760 c 0,39,20
 682.200195312 838.400390625 682.200195312 838.400390625 576 838.400390625 c 128,-1,21
EndSplineSet
Position2: "Single Positioning lookup 18 subtable" dx=-115 dy=0 dh=0 dv=0
Position2: "Single Positioning lookup 17 subtable" dx=-115 dy=0 dh=0 dv=0
Position2: "Single Positioning lookup 16 subtable" dx=0 dy=0 dh=0 dv=0
Position2: "Single Positioning lookup 13 subtable" dx=-115 dy=0 dh=0 dv=0
Position2: "Single Positioning lookup 8 subtable" dx=115 dy=0 dh=0 dv=0
Position2: "Single Positioning lookup 7 subtable" dx=115 dy=0 dh=0 dv=0
Position2: "Single Positioning lookup 6 subtable" dx=0 dy=0 dh=0 dv=0
Position2: "Single Positioning lookup 2 subtable" dx=115 dy=0 dh=0 dv=0
EndChar

StartChar: p
Encoding: 112 112 83
Width: 1000
VWidth: 1294
GlyphClass: 2
Flags: WO
LayerCount: 2
Fore
SplineSet
610 99.2001953125 m 4,0,1
 494.799804688 99.2001953125 494.799804688 99.2001953125 413.799804688 212 c 5,2,-1
 404.799804688 212 l 5,3,-1
 404.799804688 -195.19921875 l 5,4,-1
 289.599609375 -195.19921875 l 5,5,-1
 289.599609375 931.200195312 l 5,6,-1
 404.799804688 931.200195312 l 5,7,-1
 404.799804688 831.200195312 l 5,8,-1
 413.799804688 831.200195312 l 5,9,10
 494.799804688 944 494.799804688 944 610 944 c 4,11,12
 699.099609375 944 699.099609375 944 768.400390625 894 c 132,-1,13
 837.700195312 844 837.700195312 844 869.200195312 754.400390625 c 4,14,15
 880.900390625 720.80078125 880.900390625 720.80078125 886.75 679.200195312 c 132,-1,16
 892.599609375 637.600585938 892.599609375 637.600585938 893.5 608.400390625 c 132,-1,17
 894.400390625 579.200195312 894.400390625 579.200195312 894.400390625 521.600585938 c 132,-1,18
 894.400390625 464 894.400390625 464 893.5 434.80078125 c 132,-1,19
 892.599609375 405.600585938 892.599609375 405.600585938 886.75 364 c 132,-1,20
 880.900390625 322.400390625 880.900390625 322.400390625 869.200195312 288.80078125 c 4,21,22
 837.700195312 199.200195312 837.700195312 199.200195312 768.400390625 149.200195312 c 132,-1,23
 699.099609375 99.2001953125 699.099609375 99.2001953125 610 99.2001953125 c 4,0,1
592 195.200195312 m 132,-1,25
 652.299804688 195.200195312 652.299804688 195.200195312 694.150390625 230 c 132,-1,26
 736 264.80078125 736 264.80078125 755.799804688 316.80078125 c 4,27,28
 779.200195312 380 779.200195312 380 779.200195312 521.600585938 c 132,-1,29
 779.200195312 663.200195312 779.200195312 663.200195312 755.799804688 726.400390625 c 4,30,31
 736 778.400390625 736 778.400390625 694.150390625 813.200195312 c 132,-1,32
 652.299804688 848 652.299804688 848 592 848 c 132,-1,33
 531.700195312 848 531.700195312 848 489.849609375 813.200195312 c 132,-1,34
 448 778.400390625 448 778.400390625 428.200195312 726.400390625 c 4,35,36
 404.799804688 663.200195312 404.799804688 663.200195312 404.799804688 521.600585938 c 132,-1,37
 404.799804688 380 404.799804688 380 428.200195312 316.80078125 c 4,38,39
 448 264.80078125 448 264.80078125 489.849609375 230 c 132,-1,24
 531.700195312 195.200195312 531.700195312 195.200195312 592 195.200195312 c 132,-1,25
EndSplineSet
Position2: "Single Positioning lookup 18 subtable" dx=-115 dy=0 dh=0 dv=0
Position2: "Single Positioning lookup 17 subtable" dx=-115 dy=0 dh=0 dv=0
Position2: "Single Positioning lookup 16 subtable" dx=0 dy=0 dh=0 dv=0
Position2: "Single Positioning lookup 13 subtable" dx=-115 dy=0 dh=0 dv=0
Position2: "Single Positioning lookup 8 subtable" dx=115 dy=0 dh=0 dv=0
Position2: "Single Positioning lookup 7 subtable" dx=115 dy=0 dh=0 dv=0
Position2: "Single Positioning lookup 6 subtable" dx=0 dy=0 dh=0 dv=0
Position2: "Single Positioning lookup 2 subtable" dx=115 dy=0 dh=0 dv=0
EndChar

StartChar: q
Encoding: 113 113 84
Width: 977
VWidth: 974
GlyphClass: 2
Flags: W
LayerCount: 2
Fore
SplineSet
510.799804688 103.200195312 m 0,0,1
 421.799804688 103 421.799804688 103 352.399414062 153.200195312 c 0,2,3
 282.799804688 203 282.799804688 203 251.599609375 292.80078125 c 0,4,5
 239.799804688 326 239.799804688 326 234.049804688 368 c 0,6,7
 227.799804688 409 227.799804688 409 227.299804688 438.80078125 c 0,8,9
 226.799804688 468 226.799804688 468 226.399414062 525.600585938 c 0,10,11
 226.799804688 583 226.799804688 583 227.299804688 612.400390625 c 0,12,13
 227.799804688 641 227.799804688 641 234.049804688 683.200195312 c 0,14,15
 239.799804688 724 239.799804688 724 251.599609375 758.400390625 c 0,16,17
 291.834960938 874.106445312 291.834960938 874.106445312 353.399414062 913.200195312 c 0,18,19
 420.799804688 956 420.799804688 956 548.799804688 952 c 0,20,21
 626.579101562 948.09765625 626.579101562 948.09765625 707 835.200195312 c 1,22,-1
 716 835.200195312 l 1,23,-1
 716 935.200195312 l 1,24,-1
 831.200195312 935.200195312 l 1,25,-1
 831.200195312 -191.19921875 l 1,26,-1
 716 -191.19921875 l 1,27,-1
 716 216 l 1,28,-1
 707 216 l 1,29,30
 625.799804688 103 625.799804688 103 510.799804688 103.200195312 c 0,0,1
528.799804688 199.200195312 m 0,31,32
 588.799804688 199 588.799804688 199 630.950195312 234 c 0,33,34
 672.799804688 269 672.799804688 269 692.599609375 320.80078125 c 0,35,36
 715.799804688 384 715.799804688 384 716 525.600585938 c 0,37,38
 715.799804688 667 715.799804688 667 692.599609375 730.400390625 c 0,39,40
 671.799804688 786 671.799804688 786 630.950195312 829.200195312 c 0,41,42
 609.799804688 852 609.799804688 852 528.799804688 852 c 0,43,44
 444.799804688 852 444.799804688 852 426.6171875 831.163085938 c 0,45,46
 384.799804688 782 384.799804688 782 365 730.400390625 c 0,47,48
 341.799804688 667 341.799804688 667 341.599609375 525.600585938 c 0,49,50
 341.799804688 384 341.799804688 384 365 320.80078125 c 0,51,52
 384.799804688 269 384.799804688 269 426.649414062 234 c 0,53,54
 468.799804688 199 468.799804688 199 528.799804688 199.200195312 c 0,31,32
EndSplineSet
Position2: "Single Positioning lookup 18 subtable" dx=-115 dy=0 dh=0 dv=0
Position2: "Single Positioning lookup 17 subtable" dx=-115 dy=0 dh=0 dv=0
Position2: "Single Positioning lookup 16 subtable" dx=0 dy=0 dh=0 dv=0
Position2: "Single Positioning lookup 13 subtable" dx=-115 dy=0 dh=0 dv=0
Position2: "Single Positioning lookup 8 subtable" dx=115 dy=0 dh=0 dv=0
Position2: "Single Positioning lookup 7 subtable" dx=115 dy=0 dh=0 dv=0
Position2: "Single Positioning lookup 6 subtable" dx=0 dy=0 dh=0 dv=0
Position2: "Single Positioning lookup 2 subtable" dx=115 dy=0 dh=0 dv=0
EndChar

StartChar: r
Encoding: 114 114 85
Width: 979
VWidth: 1332
GlyphClass: 2
Flags: W
LayerCount: 2
Fore
SplineSet
702 840 m 0,0,1
 579.599609375 840 579.599609375 840 508.5 781.599609375 c 0,2,3
 471.599609375 751.200195312 471.599609375 751.200195312 448.200195312 714.400390625 c 128,-1,4
 424.799804688 677.599609375 424.799804688 677.599609375 415.799804688 632.400390625 c 128,-1,5
 406.799804688 587.200195312 406.799804688 587.200195312 405 559.200195312 c 128,-1,6
 403.200195312 531.200195312 403.200195312 531.200195312 403.200195312 484 c 2,7,-1
 403.200195312 104 l 1,8,-1
 288 104 l 1,9,-1
 288 923.200195312 l 1,10,-1
 403.200195312 923.200195312 l 1,11,-1
 403.200195312 796 l 1,12,-1
 412.200195312 796 l 1,13,14
 468 863.200195312 468 863.200195312 535.950195312 899.599609375 c 128,-1,15
 603.900390625 936 603.900390625 936 702 936 c 0,16,17
 768.599609375 936 768.599609375 936 864 925.599609375 c 1,18,-1
 864 829.599609375 l 1,19,20
 768.599609375 840 768.599609375 840 702 840 c 0,0,1
EndSplineSet
Substitution2: "'ss09' Style Set 9 lookup 110 subtable" r.base
Position2: "Single Positioning lookup 18 subtable" dx=-115 dy=0 dh=0 dv=0
Position2: "Single Positioning lookup 17 subtable" dx=-115 dy=0 dh=0 dv=0
Position2: "Single Positioning lookup 16 subtable" dx=0 dy=0 dh=0 dv=0
Position2: "Single Positioning lookup 13 subtable" dx=-115 dy=0 dh=0 dv=0
Position2: "Single Positioning lookup 8 subtable" dx=115 dy=0 dh=0 dv=0
Position2: "Single Positioning lookup 7 subtable" dx=115 dy=0 dh=0 dv=0
Position2: "Single Positioning lookup 6 subtable" dx=0 dy=0 dh=0 dv=0
Position2: "Single Positioning lookup 2 subtable" dx=115 dy=0 dh=0 dv=0
EndChar

StartChar: s
Encoding: 115 115 86
Width: 979
VWidth: 1331
GlyphClass: 2
Flags: W
LayerCount: 2
Fore
SplineSet
568.400390625 89.599609375 m 0,0,1
 464.900390625 89.599609375 464.900390625 89.599609375 288.5 107.200195312 c 1,2,-1
 288.5 203.200195312 l 1,3,4
 456.799804688 185.599609375 456.799804688 185.599609375 568.400390625 185.599609375 c 0,5,6
 617 185.599609375 617 185.599609375 654.799804688 196.400390625 c 128,-1,7
 692.599609375 207.200195312 692.599609375 207.200195312 715.549804688 224.400390625 c 128,-1,8
 738.5 241.599609375 738.5 241.599609375 752.900390625 264 c 128,-1,9
 767.299804688 286.400390625 767.299804688 286.400390625 772.700195312 307.200195312 c 128,-1,10
 778.099609375 328 778.099609375 328 778.099609375 348.799804688 c 0,11,12
 778.099609375 396 778.099609375 396 753.349609375 431.200195312 c 128,-1,13
 728.599609375 466.400390625 728.599609375 466.400390625 688.099609375 484.799804688 c 0,14,15
 648.5 503.200195312 648.5 503.200195312 556.700195312 510.799804688 c 128,-1,16
 464.900390625 518.400390625 464.900390625 518.400390625 419.900390625 534.400390625 c 0,17,18
 356.900390625 556 356.900390625 556 312.799804688 605.599609375 c 128,-1,19
 268.700195312 655.200195312 268.700195312 655.200195312 268.700195312 723.200195312 c 0,20,21
 268.700195312 812 268.700195312 812 347.450195312 873.200195312 c 128,-1,22
 426.200195312 934.400390625 426.200195312 934.400390625 572.900390625 934.400390625 c 0,23,24
 672.799804688 934.400390625 672.799804688 934.400390625 855.5 917.599609375 c 1,25,-1
 855.5 821.599609375 l 1,26,27
 671 838.400390625 671 838.400390625 572.900390625 838.400390625 c 0,28,29
 473 838.400390625 473 838.400390625 428.450195312 804.400390625 c 128,-1,30
 383.900390625 770.400390625 383.900390625 770.400390625 383.900390625 723.200195312 c 0,31,32
 383.900390625 687.200195312 383.900390625 687.200195312 406.400390625 661.599609375 c 128,-1,33
 428.900390625 636 428.900390625 636 463.099609375 624 c 128,-1,34
 497.299804688 612 497.299804688 612 593.599609375 603.200195312 c 128,-1,35
 689.900390625 594.400390625 689.900390625 594.400390625 743.900390625 569.599609375 c 0,36,37
 810.5 539.200195312 810.5 539.200195312 851.900390625 481.200195312 c 128,-1,38
 893.299804688 423.200195312 893.299804688 423.200195312 893.299804688 348.799804688 c 0,39,40
 893.299804688 298.400390625 893.299804688 298.400390625 872.599609375 252.799804688 c 128,-1,41
 851.900390625 207.200195312 851.900390625 207.200195312 813.200195312 170.400390625 c 128,-1,42
 774.5 133.599609375 774.5 133.599609375 711.049804688 111.599609375 c 128,-1,43
 647.599609375 89.599609375 647.599609375 89.599609375 568.400390625 89.599609375 c 0,0,1
EndSplineSet
Position2: "Single Positioning lookup 18 subtable" dx=-115 dy=0 dh=0 dv=0
Position2: "Single Positioning lookup 17 subtable" dx=-115 dy=0 dh=0 dv=0
Position2: "Single Positioning lookup 16 subtable" dx=0 dy=0 dh=0 dv=0
Position2: "Single Positioning lookup 13 subtable" dx=-115 dy=0 dh=0 dv=0
Position2: "Single Positioning lookup 8 subtable" dx=115 dy=0 dh=0 dv=0
Position2: "Single Positioning lookup 7 subtable" dx=115 dy=0 dh=0 dv=0
Position2: "Single Positioning lookup 6 subtable" dx=0 dy=0 dh=0 dv=0
Position2: "Single Positioning lookup 2 subtable" dx=115 dy=0 dh=0 dv=0
EndChar

StartChar: t
Encoding: 116 116 87
Width: 972
VWidth: 1355
GlyphClass: 2
Flags: W
LayerCount: 2
Fore
SplineSet
857.599609375 125.599609375 m 1,0,1
 761.299804688 113.599609375 761.299804688 113.599609375 684.799804688 113.599609375 c 0,2,3
 612.799804688 113.599609375 612.799804688 113.599609375 553.849609375 136.799804688 c 128,-1,4
 494.900390625 160 494.900390625 160 458 200 c 0,5,6
 429.200195312 230.400390625 429.200195312 230.400390625 414.799804688 271.200195312 c 128,-1,7
 400.400390625 312 400.400390625 312 398.599609375 339.200195312 c 128,-1,8
 396.799804688 366.400390625 396.799804688 366.400390625 396.799804688 414.400390625 c 2,9,-1
 396.799804688 844.799804688 l 1,10,-1
 166.400390625 844.799804688 l 1,11,-1
 166.400390625 945.599609375 l 1,12,-1
 396.799804688 945.599609375 l 1,13,-1
 396.799804688 1150.40039062 l 1,14,-1
 512 1150.40039062 l 1,15,-1
 512 945.599609375 l 1,16,-1
 857.599609375 945.599609375 l 1,17,-1
 857.599609375 844.799804688 l 1,18,-1
 512 844.799804688 l 1,19,-1
 512 422.400390625 l 2,20,21
 512 378.400390625 512 378.400390625 513.349609375 356.799804688 c 128,-1,22
 514.700195312 335.200195312 514.700195312 335.200195312 523.700195312 307.200195312 c 128,-1,23
 532.700195312 279.200195312 532.700195312 279.200195312 550.700195312 259.200195312 c 0,24,25
 597.5 209.599609375 597.5 209.599609375 693.799804688 209.599609375 c 0,26,27
 757.700195312 209.599609375 757.700195312 209.599609375 857.599609375 221.599609375 c 1,28,-1
 857.599609375 125.599609375 l 1,0,1
EndSplineSet
Position2: "Single Positioning lookup 18 subtable" dx=-115 dy=0 dh=0 dv=0
Position2: "Single Positioning lookup 17 subtable" dx=-115 dy=0 dh=0 dv=0
Position2: "Single Positioning lookup 16 subtable" dx=0 dy=0 dh=0 dv=0
Position2: "Single Positioning lookup 13 subtable" dx=-115 dy=0 dh=0 dv=0
Position2: "Single Positioning lookup 8 subtable" dx=115 dy=0 dh=0 dv=0
Position2: "Single Positioning lookup 7 subtable" dx=115 dy=0 dh=0 dv=0
Position2: "Single Positioning lookup 6 subtable" dx=0 dy=0 dh=0 dv=0
Position2: "Single Positioning lookup 2 subtable" dx=115 dy=0 dh=0 dv=0
EndChar

StartChar: u
Encoding: 117 117 88
Width: 979
VWidth: 1329
GlyphClass: 2
Flags: W
LayerCount: 2
Fore
SplineSet
558 88 m 0,0,1
 493.200195312 88 493.200195312 88 439.200195312 111.200195312 c 128,-1,2
 385.200195312 134.400390625 385.200195312 134.400390625 350.099609375 173.599609375 c 0,3,4
 327.599609375 198.400390625 327.599609375 198.400390625 314.099609375 224.799804688 c 128,-1,5
 300.599609375 251.200195312 300.599609375 251.200195312 295.650390625 283.200195312 c 128,-1,6
 290.700195312 315.200195312 290.700195312 315.200195312 289.349609375 336 c 128,-1,7
 288 356.799804688 288 356.799804688 288 394.400390625 c 2,8,-1
 288 920 l 1,9,-1
 403.200195312 920 l 1,10,-1
 403.200195312 394.400390625 l 2,11,12
 403.200195312 350.400390625 403.200195312 350.400390625 404.549804688 328.799804688 c 128,-1,13
 405.900390625 307.200195312 405.900390625 307.200195312 415.349609375 280.400390625 c 128,-1,14
 424.799804688 253.599609375 424.799804688 253.599609375 443.700195312 233.599609375 c 0,15,16
 492.299804688 184 492.299804688 184 576 184 c 128,-1,17
 659.700195312 184 659.700195312 184 708.299804688 233.599609375 c 0,18,19
 727.200195312 253.599609375 727.200195312 253.599609375 736.650390625 280.400390625 c 128,-1,20
 746.099609375 307.200195312 746.099609375 307.200195312 747.450195312 328.799804688 c 128,-1,21
 748.799804688 350.400390625 748.799804688 350.400390625 748.799804688 394.400390625 c 2,22,-1
 748.799804688 920 l 1,23,-1
 864 920 l 1,24,-1
 864 100.799804688 l 1,25,-1
 748.799804688 100.799804688 l 1,26,-1
 748.799804688 190.400390625 l 1,27,-1
 739.799804688 190.400390625 l 1,28,29
 706.5 144 706.5 144 657.450195312 116 c 128,-1,30
 608.400390625 88 608.400390625 88 558 88 c 0,0,1
EndSplineSet
Position2: "Single Positioning lookup 18 subtable" dx=-115 dy=0 dh=0 dv=0
Position2: "Single Positioning lookup 17 subtable" dx=-115 dy=0 dh=0 dv=0
Position2: "Single Positioning lookup 16 subtable" dx=0 dy=0 dh=0 dv=0
Position2: "Single Positioning lookup 13 subtable" dx=-115 dy=0 dh=0 dv=0
Position2: "Single Positioning lookup 8 subtable" dx=115 dy=0 dh=0 dv=0
Position2: "Single Positioning lookup 7 subtable" dx=115 dy=0 dh=0 dv=0
Position2: "Single Positioning lookup 6 subtable" dx=0 dy=0 dh=0 dv=0
Position2: "Single Positioning lookup 2 subtable" dx=115 dy=0 dh=0 dv=0
EndChar

StartChar: v
Encoding: 118 118 89
Width: 979
VWidth: 1331
GlyphClass: 2
Flags: W
LayerCount: 2
Fore
SplineSet
580.5 236.799804688 m 1,0,1
 702.900390625 502.400390625 702.900390625 502.400390625 792.900390625 921.599609375 c 1,2,-1
 910.799804688 921.599609375 l 1,3,4
 859.5 683.200195312 859.5 683.200195312 793.349609375 482.799804688 c 128,-1,5
 727.200195312 282.400390625 727.200195312 282.400390625 628.200195312 102.400390625 c 1,6,-1
 523.799804688 102.400390625 l 1,7,8
 424.799804688 282.400390625 424.799804688 282.400390625 358.650390625 482.799804688 c 128,-1,9
 292.5 683.200195312 292.5 683.200195312 241.200195312 921.599609375 c 1,10,-1
 359.099609375 921.599609375 l 1,11,12
 449.099609375 503.200195312 449.099609375 503.200195312 571.5 236.799804688 c 1,13,-1
 580.5 236.799804688 l 1,0,1
EndSplineSet
Position2: "Single Positioning lookup 18 subtable" dx=-115 dy=0 dh=0 dv=0
Position2: "Single Positioning lookup 17 subtable" dx=-115 dy=0 dh=0 dv=0
Position2: "Single Positioning lookup 16 subtable" dx=0 dy=0 dh=0 dv=0
Position2: "Single Positioning lookup 13 subtable" dx=-115 dy=0 dh=0 dv=0
Position2: "Single Positioning lookup 8 subtable" dx=115 dy=0 dh=0 dv=0
Position2: "Single Positioning lookup 7 subtable" dx=115 dy=0 dh=0 dv=0
Position2: "Single Positioning lookup 6 subtable" dx=0 dy=0 dh=0 dv=0
Position2: "Single Positioning lookup 2 subtable" dx=115 dy=0 dh=0 dv=0
EndChar

StartChar: w
Encoding: 119 119 90
Width: 979
VWidth: 1331
GlyphClass: 2
Flags: W
LayerCount: 2
Fore
SplineSet
520.200195312 716 m 1,0,-1
 631.799804688 716 l 1,1,-1
 779.400390625 214.400390625 l 1,2,-1
 788.400390625 214.400390625 l 1,3,4
 881.099609375 531.200195312 881.099609375 531.200195312 881.099609375 921.599609375 c 1,5,-1
 996.299804688 921.599609375 l 1,6,7
 996.299804688 510.400390625 996.299804688 510.400390625 862.200195312 102.400390625 c 1,8,-1
 723.599609375 102.400390625 l 1,9,-1
 580.5 572 l 1,10,-1
 571.5 572 l 1,11,-1
 428.400390625 102.400390625 l 1,12,-1
 289.799804688 102.400390625 l 1,13,14
 155.700195312 510.400390625 155.700195312 510.400390625 155.700195312 921.599609375 c 1,15,-1
 270.900390625 921.599609375 l 1,16,17
 270.900390625 531.200195312 270.900390625 531.200195312 363.599609375 214.400390625 c 1,18,-1
 372.599609375 214.400390625 l 1,19,-1
 520.200195312 716 l 1,0,-1
EndSplineSet
Substitution2: "'ss10' Style Set 10 lookup 111 subtable" w.straight
Position2: "Single Positioning lookup 22 subtable" dx=115 dy=0 dh=0 dv=0
Position2: "Single Positioning lookup 20 subtable" dx=-115 dy=0 dh=0 dv=0
Position2: "Single Positioning lookup 19 subtable" dx=0 dy=0 dh=0 dv=0
Position2: "Single Positioning lookup 14 subtable" dx=0 dy=0 dh=0 dv=0
EndChar

StartChar: x
Encoding: 120 120 91
Width: 979
VWidth: 1331
GlyphClass: 2
Flags: W
LayerCount: 2
Fore
SplineSet
571.5 617.599609375 m 1,0,-1
 580.5 617.599609375 l 1,1,-1
 781.200195312 921.599609375 l 1,2,-1
 931.5 921.599609375 l 1,3,-1
 642.599609375 543.200195312 l 1,4,-1
 642.599609375 535.200195312 l 1,5,-1
 951.299804688 102.400390625 l 1,6,-1
 800.099609375 102.400390625 l 1,7,-1
 580.5 460.799804688 l 1,8,-1
 571.5 460.799804688 l 1,9,-1
 351.900390625 102.400390625 l 1,10,-1
 200.700195312 102.400390625 l 1,11,-1
 509.400390625 535.200195312 l 1,12,-1
 509.400390625 543.200195312 l 1,13,-1
 220.5 921.599609375 l 1,14,-1
 370.799804688 921.599609375 l 1,15,-1
 571.5 617.599609375 l 1,0,-1
EndSplineSet
Position2: "Single Positioning lookup 18 subtable" dx=-115 dy=0 dh=0 dv=0
Position2: "Single Positioning lookup 17 subtable" dx=-115 dy=0 dh=0 dv=0
Position2: "Single Positioning lookup 16 subtable" dx=0 dy=0 dh=0 dv=0
Position2: "Single Positioning lookup 13 subtable" dx=-115 dy=0 dh=0 dv=0
Position2: "Single Positioning lookup 8 subtable" dx=115 dy=0 dh=0 dv=0
Position2: "Single Positioning lookup 7 subtable" dx=115 dy=0 dh=0 dv=0
Position2: "Single Positioning lookup 6 subtable" dx=0 dy=0 dh=0 dv=0
Position2: "Single Positioning lookup 2 subtable" dx=115 dy=0 dh=0 dv=0
EndChar

StartChar: y
Encoding: 121 121 92
Width: 979
VWidth: 1304
GlyphClass: 2
Flags: W
LayerCount: 2
Fore
SplineSet
602.150390625 267.200195312 m 1,0,1
 687.650390625 500.799804688 687.650390625 500.799804688 793.849609375 894.400390625 c 1,2,-1
 911.75 894.400390625 l 1,3,4
 907.25 879.200195312 907.25 879.200195312 890.599609375 818.799804688 c 128,-1,5
 873.950195312 758.400390625 873.950195312 758.400390625 869.450195312 741.200195312 c 128,-1,6
 864.950195312 724 864.950195312 724 849.650390625 670 c 128,-1,7
 834.349609375 616 834.349609375 616 827.599609375 594 c 128,-1,8
 820.849609375 572 820.849609375 572 806.450195312 522.799804688 c 128,-1,9
 792.049804688 473.599609375 792.049804688 473.599609375 782.599609375 445.599609375 c 128,-1,10
 773.150390625 417.599609375 773.150390625 417.599609375 757.849609375 371.200195312 c 128,-1,11
 742.549804688 324.799804688 742.549804688 324.799804688 729.5 288.799804688 c 128,-1,12
 716.450195312 252.799804688 716.450195312 252.799804688 699.799804688 208 c 128,-1,13
 683.150390625 163.200195312 683.150390625 163.200195312 666.049804688 119.200195312 c 0,14,15
 644.450195312 64.7998046875 644.450195312 64.7998046875 632.299804688 37.2001953125 c 128,-1,16
 620.150390625 9.599609375 620.150390625 9.599609375 597.650390625 -25.599609375 c 128,-1,17
 575.150390625 -60.7998046875 575.150390625 -60.7998046875 549.049804688 -79.2001953125 c 0,18,19
 464.450195312 -142.400390625 464.450195312 -142.400390625 288.049804688 -142.400390625 c 1,20,-1
 288.049804688 -46.400390625 l 1,21,22
 416.75 -46.400390625 416.75 -46.400390625 464.450195312 -13.599609375 c 0,23,24
 485.150390625 -0 485.150390625 -0 502.700195312 28 c 128,-1,25
 520.25 56 520.25 56 530.599609375 80 c 128,-1,26
 540.950195312 104 540.950195312 104 569.75 177.599609375 c 1,27,-1
 522.950195312 177.599609375 l 1,28,29
 425.75 334.400390625 425.75 334.400390625 360.5 508.799804688 c 128,-1,30
 295.25 683.200195312 295.25 683.200195312 241.25 894.400390625 c 1,31,-1
 359.150390625 894.400390625 l 1,32,33
 452.75 512 452.75 512 593.150390625 267.200195312 c 1,34,-1
 602.150390625 267.200195312 l 1,0,1
EndSplineSet
Substitution2: "'ss11' Style Set 11 lookup 112 subtable" y.long
Position2: "Single Positioning lookup 18 subtable" dx=-115 dy=0 dh=0 dv=0
Position2: "Single Positioning lookup 17 subtable" dx=-115 dy=0 dh=0 dv=0
Position2: "Single Positioning lookup 16 subtable" dx=0 dy=0 dh=0 dv=0
Position2: "Single Positioning lookup 13 subtable" dx=-115 dy=0 dh=0 dv=0
Position2: "Single Positioning lookup 8 subtable" dx=115 dy=0 dh=0 dv=0
Position2: "Single Positioning lookup 7 subtable" dx=115 dy=0 dh=0 dv=0
Position2: "Single Positioning lookup 6 subtable" dx=0 dy=0 dh=0 dv=0
Position2: "Single Positioning lookup 2 subtable" dx=115 dy=0 dh=0 dv=0
EndChar

StartChar: z
Encoding: 122 122 93
Width: 979
VWidth: 1331
GlyphClass: 2
Flags: W
LayerCount: 2
Fore
SplineSet
306 825.599609375 m 1,0,-1
 306 921.599609375 l 1,1,-1
 846 921.599609375 l 1,2,-1
 846 849.599609375 l 1,3,-1
 418.5 206.400390625 l 1,4,-1
 418.5 198.400390625 l 1,5,-1
 864 198.400390625 l 1,6,-1
 864 102.400390625 l 1,7,-1
 288 102.400390625 l 1,8,-1
 288 176 l 1,9,-1
 715.5 817.599609375 l 1,10,-1
 715.5 825.599609375 l 1,11,-1
 306 825.599609375 l 1,0,-1
EndSplineSet
Position2: "Single Positioning lookup 18 subtable" dx=-115 dy=0 dh=0 dv=0
Position2: "Single Positioning lookup 17 subtable" dx=-115 dy=0 dh=0 dv=0
Position2: "Single Positioning lookup 16 subtable" dx=0 dy=0 dh=0 dv=0
Position2: "Single Positioning lookup 13 subtable" dx=-115 dy=0 dh=0 dv=0
Position2: "Single Positioning lookup 8 subtable" dx=115 dy=0 dh=0 dv=0
Position2: "Single Positioning lookup 7 subtable" dx=115 dy=0 dh=0 dv=0
Position2: "Single Positioning lookup 6 subtable" dx=0 dy=0 dh=0 dv=0
Position2: "Single Positioning lookup 2 subtable" dx=115 dy=0 dh=0 dv=0
EndChar

StartChar: braceleft
Encoding: 123 123 94
Width: 979
VWidth: 1369
GlyphClass: 2
Flags: W
LayerCount: 2
Fore
SplineSet
490.5 699 m 1,0,1
 568.799804688 672.599609375 568.799804688 672.599609375 601.200195312 625.400390625 c 128,-1,2
 633.599609375 578.200195312 633.599609375 578.200195312 633.599609375 489.400390625 c 2,3,-1
 633.599609375 287 l 2,4,5
 633.599609375 195.799804688 633.599609375 195.799804688 691.200195312 158.599609375 c 128,-1,6
 748.799804688 121.400390625 748.799804688 121.400390625 864 121.400390625 c 1,7,-1
 864 25.400390625 l 1,8,9
 702.900390625 25.400390625 702.900390625 25.400390625 610.650390625 89.400390625 c 128,-1,10
 518.400390625 153.400390625 518.400390625 153.400390625 518.400390625 287 c 2,11,-1
 518.400390625 489.400390625 l 2,12,13
 518.400390625 580.599609375 518.400390625 580.599609375 460.799804688 617.799804688 c 128,-1,14
 403.200195312 655 403.200195312 655 288 655 c 1,15,-1
 288 751 l 1,16,17
 402.299804688 751 402.299804688 751 460.349609375 788.200195312 c 128,-1,18
 518.400390625 825.400390625 518.400390625 825.400390625 518.400390625 916.599609375 c 2,19,-1
 518.400390625 1119 l 2,20,21
 518.400390625 1252.59960938 518.400390625 1252.59960938 610.650390625 1316.59960938 c 128,-1,22
 702.900390625 1380.59960938 702.900390625 1380.59960938 864 1380.59960938 c 1,23,-1
 864 1284.59960938 l 1,24,25
 749.700195312 1284.59960938 749.700195312 1284.59960938 691.650390625 1247.40039062 c 128,-1,26
 633.599609375 1210.20019531 633.599609375 1210.20019531 633.599609375 1119 c 2,27,-1
 633.599609375 916.599609375 l 2,28,29
 633.599609375 827.799804688 633.599609375 827.799804688 601.200195312 780.599609375 c 128,-1,30
 568.799804688 733.400390625 568.799804688 733.400390625 490.5 707 c 1,31,-1
 490.5 699 l 1,0,1
EndSplineSet
EndChar

StartChar: bar
Encoding: 124 124 95
Width: 979
VWidth: 1356
GlyphClass: 2
Flags: W
LayerCount: 2
Fore
SplineSet
633.599609375 1356.79980469 m 1,0,-1
 633.599609375 -76.7998046875 l 1,1,-1
 518.400390625 -76.7998046875 l 1,2,-1
 518.400390625 1356.79980469 l 1,3,-1
 633.599609375 1356.79980469 l 1,0,-1
EndSplineSet
Substitution2: "Single Substitution lookup 79 subtable" bar2
Substitution2: "Single Substitution lookup 78 subtable" bar1
EndChar

StartChar: braceright
Encoding: 125 125 96
Width: 979
VWidth: 1369
GlyphClass: 2
Flags: W
LayerCount: 2
Fore
SplineSet
661.5 699 m 1,0,-1
 661.5 707 l 1,1,2
 583.200195312 733.400390625 583.200195312 733.400390625 550.799804688 780.599609375 c 128,-1,3
 518.400390625 827.799804688 518.400390625 827.799804688 518.400390625 916.599609375 c 2,4,-1
 518.400390625 1119 l 2,5,6
 518.400390625 1210.20019531 518.400390625 1210.20019531 460.349609375 1247.40039062 c 128,-1,7
 402.299804688 1284.59960938 402.299804688 1284.59960938 288 1284.59960938 c 1,8,-1
 288 1380.59960938 l 1,9,10
 449.099609375 1380.59960938 449.099609375 1380.59960938 541.349609375 1316.59960938 c 128,-1,11
 633.599609375 1252.59960938 633.599609375 1252.59960938 633.599609375 1119 c 2,12,-1
 633.599609375 916.599609375 l 2,13,14
 633.599609375 825.400390625 633.599609375 825.400390625 691.650390625 788.200195312 c 128,-1,15
 749.700195312 751 749.700195312 751 864 751 c 1,16,-1
 864 655 l 1,17,18
 748.799804688 655 748.799804688 655 691.200195312 617.799804688 c 128,-1,19
 633.599609375 580.599609375 633.599609375 580.599609375 633.599609375 489.400390625 c 2,20,-1
 633.599609375 287 l 2,21,22
 633.599609375 153.400390625 633.599609375 153.400390625 541.349609375 89.400390625 c 128,-1,23
 449.099609375 25.400390625 449.099609375 25.400390625 288 25.400390625 c 1,24,-1
 288 121.400390625 l 1,25,26
 403.200195312 121.400390625 403.200195312 121.400390625 460.799804688 158.599609375 c 128,-1,27
 518.400390625 195.799804688 518.400390625 195.799804688 518.400390625 287 c 2,28,-1
 518.400390625 489.400390625 l 2,29,30
 518.400390625 578.200195312 518.400390625 578.200195312 550.799804688 625.400390625 c 128,-1,31
 583.200195312 672.599609375 583.200195312 672.599609375 661.5 699 c 1,0,-1
EndSplineSet
EndChar

StartChar: tilde
Encoding: 126 126 97
Width: 979
VWidth: 1344
GlyphClass: 2
Flags: W
LayerCount: 2
Fore
SplineSet
288 422.400390625 m 1,0,-1
 172.799804688 422.400390625 l 1,1,2
 172.799804688 479.200195312 172.799804688 479.200195312 177.75 522.400390625 c 128,-1,3
 182.700195312 565.599609375 182.700195312 565.599609375 196.650390625 606.799804688 c 128,-1,4
 210.599609375 648 210.599609375 648 234.900390625 674.400390625 c 128,-1,5
 259.200195312 700.799804688 259.200195312 700.799804688 299.700195312 716.799804688 c 128,-1,6
 340.200195312 732.799804688 340.200195312 732.799804688 395.099609375 732.799804688 c 0,7,8
 451.799804688 732.799804688 451.799804688 732.799804688 498.150390625 710.400390625 c 128,-1,9
 544.5 688 544.5 688 575.099609375 656 c 128,-1,10
 605.700195312 624 605.700195312 624 632.700195312 592 c 128,-1,11
 659.700195312 560 659.700195312 560 691.200195312 537.599609375 c 128,-1,12
 722.700195312 515.200195312 722.700195312 515.200195312 756.900390625 515.200195312 c 0,13,14
 782.099609375 515.200195312 782.099609375 515.200195312 800.099609375 520.799804688 c 128,-1,15
 818.099609375 526.400390625 818.099609375 526.400390625 829.799804688 540.799804688 c 128,-1,16
 841.5 555.200195312 841.5 555.200195312 848.700195312 570.400390625 c 128,-1,17
 855.900390625 585.599609375 855.900390625 585.599609375 859.049804688 613.599609375 c 128,-1,18
 862.200195312 641.599609375 862.200195312 641.599609375 863.099609375 665.599609375 c 128,-1,19
 864 689.599609375 864 689.599609375 864 729.599609375 c 1,20,-1
 979.200195312 729.599609375 l 1,21,22
 979.200195312 672.799804688 979.200195312 672.799804688 974.25 629.599609375 c 128,-1,23
 969.299804688 586.400390625 969.299804688 586.400390625 955.349609375 545.200195312 c 128,-1,24
 941.400390625 504 941.400390625 504 917.099609375 477.599609375 c 128,-1,25
 892.799804688 451.200195312 892.799804688 451.200195312 852.299804688 435.200195312 c 128,-1,26
 811.799804688 419.200195312 811.799804688 419.200195312 756.900390625 419.200195312 c 0,27,28
 700.200195312 419.200195312 700.200195312 419.200195312 653.849609375 441.599609375 c 128,-1,29
 607.5 464 607.5 464 576.900390625 496 c 128,-1,30
 546.299804688 528 546.299804688 528 519.299804688 560 c 128,-1,31
 492.299804688 592 492.299804688 592 460.799804688 614.400390625 c 128,-1,32
 429.299804688 636.799804688 429.299804688 636.799804688 395.099609375 636.799804688 c 0,33,34
 369.900390625 636.799804688 369.900390625 636.799804688 351.900390625 631.200195312 c 128,-1,35
 333.900390625 625.599609375 333.900390625 625.599609375 322.200195312 611.200195312 c 128,-1,36
 310.5 596.799804688 310.5 596.799804688 303.299804688 581.599609375 c 128,-1,37
 296.099609375 566.400390625 296.099609375 566.400390625 292.950195312 538.400390625 c 128,-1,38
 289.799804688 510.400390625 289.799804688 510.400390625 288.900390625 486.400390625 c 128,-1,39
 288 462.400390625 288 462.400390625 288 422.400390625 c 1,0,-1
EndSplineSet
EndChar

StartChar: exclamdown
Encoding: 161 161 99
Width: 979
VWidth: 1320
GlyphClass: 2
Flags: W
LayerCount: 2
Fore
SplineSet
576 1025.59960938 m 128,-1,1
 633.599609375 1025.59960938 633.599609375 1025.59960938 669.599609375 993.599609375 c 128,-1,2
 705.599609375 961.599609375 705.599609375 961.599609375 705.599609375 910.400390625 c 128,-1,3
 705.599609375 859.200195312 705.599609375 859.200195312 669.599609375 827.200195312 c 128,-1,4
 633.599609375 795.200195312 633.599609375 795.200195312 576 795.200195312 c 128,-1,5
 518.400390625 795.200195312 518.400390625 795.200195312 482.400390625 827.200195312 c 128,-1,6
 446.400390625 859.200195312 446.400390625 859.200195312 446.400390625 910.400390625 c 128,-1,7
 446.400390625 961.599609375 446.400390625 961.599609375 482.400390625 993.599609375 c 128,-1,0
 518.400390625 1025.59960938 518.400390625 1025.59960938 576 1025.59960938 c 128,-1,1
633.599609375 603.200195312 m 1,8,-1
 642.599609375 -113.599609375 l 1,9,-1
 509.400390625 -113.599609375 l 1,10,-1
 518.400390625 603.200195312 l 1,11,-1
 633.599609375 603.200195312 l 1,8,-1
EndSplineSet
EndChar

StartChar: cent
Encoding: 162 162 100
Width: 977
VWidth: 1331
GlyphClass: 2
Flags: W
LayerCount: 2
Fore
SplineSet
257.599609375 512 m 0,0,1
 257.599609375 597.599609375 257.599609375 597.599609375 264.349609375 654.799804688 c 128,-1,2
 271.099609375 712 271.099609375 712 293.599609375 761.599609375 c 0,3,4
 322.400390625 824.799804688 322.400390625 824.799804688 379.099609375 869.599609375 c 128,-1,5
 435.799804688 914.400390625 435.799804688 914.400390625 516.799804688 927.200195312 c 1,6,-1
 516.799804688 1126.40039062 l 1,7,-1
 632 1126.40039062 l 1,8,-1
 632 934.400390625 l 1,9,10
 736.400390625 932 736.400390625 932 844.400390625 916.799804688 c 1,11,-1
 844.400390625 820.799804688 l 1,12,13
 713 838.400390625 713 838.400390625 588.799804688 838.400390625 c 0,14,15
 458.299804688 838.400390625 458.299804688 838.400390625 401.599609375 724.799804688 c 0,16,17
 388.099609375 698.400390625 388.099609375 698.400390625 381.349609375 659.200195312 c 128,-1,18
 374.599609375 620 374.599609375 620 373.700195312 592 c 128,-1,19
 372.799804688 564 372.799804688 564 372.799804688 512 c 0,20,21
 372.799804688 457.599609375 372.799804688 457.599609375 373.700195312 428.400390625 c 128,-1,22
 374.599609375 399.200195312 374.599609375 399.200195312 382.25 358.400390625 c 128,-1,23
 389.900390625 317.599609375 389.900390625 317.599609375 404.299804688 290.400390625 c 0,24,25
 460.099609375 185.599609375 460.099609375 185.599609375 592.400390625 185.599609375 c 0,26,27
 712.099609375 185.599609375 712.099609375 185.599609375 862.400390625 206.400390625 c 1,28,-1
 862.400390625 109.599609375 l 1,29,30
 735.5 92.7998046875 735.5 92.7998046875 632 89.599609375 c 1,31,-1
 632 -102.400390625 l 1,32,-1
 516.799804688 -102.400390625 l 1,33,-1
 516.799804688 96.7998046875 l 1,34,35
 437.599609375 109.599609375 437.599609375 109.599609375 382.25 152.400390625 c 128,-1,36
 326.900390625 195.200195312 326.900390625 195.200195312 296.299804688 256.799804688 c 0,37,38
 271.099609375 307.200195312 271.099609375 307.200195312 264.349609375 364.799804688 c 128,-1,39
 257.599609375 422.400390625 257.599609375 422.400390625 257.599609375 512 c 0,0,1
EndSplineSet
EndChar

StartChar: sterling
Encoding: 163 163 101
Width: 972
VWidth: 1371
GlyphClass: 2
Flags: W
LayerCount: 2
Fore
SplineSet
281.599609375 238.400390625 m 1,0,-1
 281.599609375 660.799804688 l 1,1,-1
 166.400390625 660.799804688 l 1,2,-1
 166.400390625 756.799804688 l 1,3,-1
 281.599609375 756.799804688 l 1,4,-1
 281.599609375 859.200195312 l 2,5,6
 281.599609375 948.799804688 281.599609375 948.799804688 287.900390625 1006.40039062 c 128,-1,7
 294.200195312 1064 294.200195312 1064 317.599609375 1114.40039062 c 0,8,9
 351.799804688 1188.79980469 351.799804688 1188.79980469 425.599609375 1235.20019531 c 128,-1,10
 499.400390625 1281.59960938 499.400390625 1281.59960938 607.400390625 1281.59960938 c 0,11,12
 692.900390625 1281.59960938 692.900390625 1281.59960938 830.599609375 1269.59960938 c 1,13,-1
 830.599609375 1173.59960938 l 1,14,15
 691.099609375 1185.59960938 691.099609375 1185.59960938 607.400390625 1185.59960938 c 0,16,17
 476.900390625 1185.59960938 476.900390625 1185.59960938 425.599609375 1080.79980469 c 0,18,19
 412.099609375 1053.59960938 412.099609375 1053.59960938 405.349609375 1012.79980469 c 128,-1,20
 398.599609375 972 398.599609375 972 397.700195312 942.799804688 c 128,-1,21
 396.799804688 913.599609375 396.799804688 913.599609375 396.799804688 859.200195312 c 2,22,-1
 396.799804688 756.799804688 l 1,23,-1
 742.400390625 756.799804688 l 1,24,-1
 742.400390625 660.799804688 l 1,25,-1
 396.799804688 660.799804688 l 1,26,-1
 396.799804688 238.400390625 l 1,27,-1
 857.599609375 238.400390625 l 1,28,-1
 857.599609375 142.400390625 l 1,29,-1
 166.400390625 142.400390625 l 1,30,-1
 166.400390625 238.400390625 l 1,31,-1
 281.599609375 238.400390625 l 1,0,-1
EndSplineSet
EndChar

StartChar: currency
Encoding: 164 164 102
Width: 979
VWidth: 1344
GlyphClass: 2
Flags: W
LayerCount: 2
Fore
SplineSet
576 745.599609375 m 128,-1,1
 492.299804688 745.599609375 492.299804688 745.599609375 440.549804688 700 c 128,-1,2
 388.799804688 654.400390625 388.799804688 654.400390625 388.799804688 576 c 128,-1,3
 388.799804688 497.599609375 388.799804688 497.599609375 440.549804688 452 c 128,-1,4
 492.299804688 406.400390625 492.299804688 406.400390625 576 406.400390625 c 128,-1,5
 659.700195312 406.400390625 659.700195312 406.400390625 711.450195312 452 c 128,-1,6
 763.200195312 497.599609375 763.200195312 497.599609375 763.200195312 576 c 128,-1,7
 763.200195312 654.400390625 763.200195312 654.400390625 711.450195312 700 c 128,-1,0
 659.700195312 745.599609375 659.700195312 745.599609375 576 745.599609375 c 128,-1,1
198 841.599609375 m 1,8,-1
 277.200195312 912 l 1,9,-1
 404.099609375 798.400390625 l 1,10,11
 479.700195312 841.599609375 479.700195312 841.599609375 576 841.599609375 c 128,-1,12
 672.299804688 841.599609375 672.299804688 841.599609375 747.900390625 798.400390625 c 1,13,-1
 874.799804688 912 l 1,14,-1
 954 841.599609375 l 1,15,-1
 827.099609375 729.599609375 l 1,16,17
 878.400390625 662.400390625 878.400390625 662.400390625 878.400390625 576 c 128,-1,18
 878.400390625 489.599609375 878.400390625 489.599609375 827.099609375 422.400390625 c 1,19,-1
 954 310.400390625 l 1,20,-1
 874.799804688 240 l 1,21,-1
 747.900390625 353.599609375 l 1,22,23
 672.299804688 310.400390625 672.299804688 310.400390625 576 310.400390625 c 128,-1,24
 479.700195312 310.400390625 479.700195312 310.400390625 404.099609375 353.599609375 c 1,25,-1
 277.200195312 240 l 1,26,-1
 198 310.400390625 l 1,27,-1
 324.900390625 422.400390625 l 1,28,29
 273.599609375 489.599609375 273.599609375 489.599609375 273.599609375 576 c 128,-1,30
 273.599609375 662.400390625 273.599609375 662.400390625 324.900390625 729.599609375 c 1,31,-1
 198 841.599609375 l 1,8,-1
EndSplineSet
EndChar

StartChar: yen
Encoding: 165 165 103
Width: 979
VWidth: 1369
GlyphClass: 2
Flags: W
LayerCount: 2
Fore
SplineSet
159.299804688 1267.20019531 m 1,0,-1
 271.799804688 1267.20019531 l 1,1,2
 366.299804688 926.400390625 366.299804688 926.400390625 562.5 732.799804688 c 1,3,-1
 589.5 732.799804688 l 1,4,5
 785.700195312 926.400390625 785.700195312 926.400390625 880.200195312 1267.20019531 c 1,6,-1
 992.700195312 1267.20019531 l 1,7,8
 917.099609375 968.799804688 917.099609375 968.799804688 738 755.200195312 c 1,9,-1
 864 755.200195312 l 1,10,-1
 864 659.200195312 l 1,11,-1
 648.900390625 659.200195312 l 1,12,-1
 633.599609375 644.799804688 l 1,13,-1
 633.599609375 544 l 1,14,-1
 864 544 l 1,15,-1
 864 448 l 1,16,-1
 633.599609375 448 l 1,17,-1
 633.599609375 140.799804688 l 1,18,-1
 518.400390625 140.799804688 l 1,19,-1
 518.400390625 448 l 1,20,-1
 288 448 l 1,21,-1
 288 544 l 1,22,-1
 518.400390625 544 l 1,23,-1
 518.400390625 644.799804688 l 1,24,-1
 503.099609375 659.200195312 l 1,25,-1
 288 659.200195312 l 1,26,-1
 288 755.200195312 l 1,27,-1
 414 755.200195312 l 1,28,29
 234.900390625 968.799804688 234.900390625 968.799804688 159.299804688 1267.20019531 c 1,0,-1
EndSplineSet
EndChar

StartChar: brokenbar
Encoding: 166 166 104
Width: 979
VWidth: 1369
GlyphClass: 2
Flags: W
LayerCount: 2
Fore
SplineSet
633.599609375 448 m 1,0,-1
 633.599609375 38.400390625 l 1,1,-1
 518.400390625 38.400390625 l 1,2,-1
 518.400390625 448 l 1,3,-1
 633.599609375 448 l 1,0,-1
633.599609375 1369.59960938 m 1,4,-1
 633.599609375 960 l 1,5,-1
 518.400390625 960 l 1,6,-1
 518.400390625 1369.59960938 l 1,7,-1
 633.599609375 1369.59960938 l 1,4,-1
EndSplineSet
EndChar

StartChar: section
Encoding: 167 167 105
Width: 979
VWidth: 1343
GlyphClass: 2
Flags: W
LayerCount: 2
Fore
SplineSet
583.200195312 409.400390625 m 0,0,1
 640.799804688 409.400390625 640.799804688 409.400390625 683.099609375 426.200195312 c 128,-1,2
 725.400390625 443 725.400390625 443 746.099609375 469.799804688 c 128,-1,3
 766.799804688 496.599609375 766.799804688 496.599609375 776.25 523.400390625 c 128,-1,4
 785.700195312 550.200195312 785.700195312 550.200195312 785.700195312 577.400390625 c 0,5,6
 785.700195312 659 785.700195312 659 725.849609375 699 c 128,-1,7
 666 739 666 739 566.099609375 739 c 0,8,9
 509.400390625 739 509.400390625 739 467.549804688 722.599609375 c 128,-1,10
 425.700195312 706.200195312 425.700195312 706.200195312 405 679.400390625 c 128,-1,11
 384.299804688 652.599609375 384.299804688 652.599609375 375.299804688 626.200195312 c 128,-1,12
 366.299804688 599.799804688 366.299804688 599.799804688 366.299804688 571.799804688 c 0,13,14
 366.299804688 515.799804688 366.299804688 515.799804688 398.25 477.799804688 c 128,-1,15
 430.200195312 439.799804688 430.200195312 439.799804688 477.450195312 424.599609375 c 128,-1,16
 524.700195312 409.400390625 524.700195312 409.400390625 583.200195312 409.400390625 c 0,0,1
402.299804688 346.200195312 m 0,17,18
 333 379 333 379 292.049804688 438.200195312 c 128,-1,19
 251.099609375 497.400390625 251.099609375 497.400390625 251.099609375 571.799804688 c 0,20,21
 251.099609375 637.400390625 251.099609375 637.400390625 289.799804688 695.400390625 c 128,-1,22
 328.5 753.400390625 328.5 753.400390625 401.400390625 789.400390625 c 1,23,24
 338.400390625 824.599609375 338.400390625 824.599609375 302.849609375 877.799804688 c 128,-1,25
 267.299804688 931 267.299804688 931 267.299804688 995.799804688 c 0,26,27
 267.299804688 1045.40039062 267.299804688 1045.40039062 288 1090.59960938 c 128,-1,28
 308.700195312 1135.79980469 308.700195312 1135.79980469 347.400390625 1172.59960938 c 128,-1,29
 386.099609375 1209.40039062 386.099609375 1209.40039062 449.549804688 1231 c 128,-1,30
 513 1252.59960938 513 1252.59960938 592.200195312 1252.59960938 c 0,31,32
 686.700195312 1252.59960938 686.700195312 1252.59960938 828 1230.20019531 c 1,33,-1
 828 1131.79980469 l 1,34,35
 688.5 1156.59960938 688.5 1156.59960938 592.200195312 1156.59960938 c 0,36,37
 543.599609375 1156.59960938 543.599609375 1156.59960938 505.799804688 1145.79980469 c 128,-1,38
 468 1135 468 1135 445.049804688 1118.20019531 c 128,-1,39
 422.099609375 1101.40039062 422.099609375 1101.40039062 407.700195312 1079.40039062 c 128,-1,40
 393.299804688 1057.40039062 393.299804688 1057.40039062 387.900390625 1037 c 128,-1,41
 382.5 1016.59960938 382.5 1016.59960938 382.5 995.799804688 c 0,42,43
 382.5 914.200195312 382.5 914.200195312 458.099609375 863.799804688 c 0,44,45
 490.5 843 490.5 843 541.349609375 837.799804688 c 128,-1,46
 592.200195312 832.599609375 592.200195312 832.599609375 650.25 827.400390625 c 128,-1,47
 708.299804688 822.200195312 708.299804688 822.200195312 751.5 802.200195312 c 0,48,49
 818.099609375 771 818.099609375 771 859.5 712.200195312 c 128,-1,50
 900.900390625 653.400390625 900.900390625 653.400390625 900.900390625 577.400390625 c 0,51,52
 900.900390625 511.799804688 900.900390625 511.799804688 862.200195312 453.400390625 c 128,-1,53
 823.5 395 823.5 395 750.599609375 359.799804688 c 1,54,55
 811.799804688 326.200195312 811.799804688 326.200195312 848.25 272.599609375 c 128,-1,56
 884.700195312 219 884.700195312 219 884.700195312 152.599609375 c 0,57,58
 884.700195312 103 884.700195312 103 864 58.2001953125 c 128,-1,59
 843.299804688 13.400390625 843.299804688 13.400390625 804.599609375 -23 c 128,-1,60
 765.900390625 -59.400390625 765.900390625 -59.400390625 702.450195312 -81 c 128,-1,61
 639 -102.599609375 639 -102.599609375 559.799804688 -102.599609375 c 0,62,63
 455.400390625 -102.599609375 455.400390625 -102.599609375 288 -71.400390625 c 1,64,-1
 288 27 l 1,65,66
 450.900390625 -6.599609375 450.900390625 -6.599609375 559.799804688 -6.599609375 c 0,67,68
 608.400390625 -6.599609375 608.400390625 -6.599609375 646.200195312 4.2001953125 c 128,-1,69
 684 15 684 15 706.950195312 31.400390625 c 128,-1,70
 729.900390625 47.7998046875 729.900390625 47.7998046875 744.299804688 69.7998046875 c 128,-1,71
 758.700195312 91.7998046875 758.700195312 91.7998046875 764.099609375 111.799804688 c 128,-1,72
 769.5 131.799804688 769.5 131.799804688 769.5 152.599609375 c 0,73,74
 769.5 201.400390625 769.5 201.400390625 744.75 238.200195312 c 128,-1,75
 720 275 720 275 679.5 293.400390625 c 0,76,77
 641.700195312 310.200195312 641.700195312 310.200195312 546.75 316.599609375 c 128,-1,78
 451.799804688 323 451.799804688 323 402.299804688 346.200195312 c 0,17,18
EndSplineSet
EndChar

StartChar: dieresis
Encoding: 168 168 106
Width: 979
VWidth: 1478
GlyphClass: 2
Flags: W
LayerCount: 2
Fore
SplineSet
777.599609375 1337.59960938 m 128,-1,1
 822.599609375 1337.59960938 822.599609375 1337.59960938 850.5 1312.79980469 c 128,-1,2
 878.400390625 1288 878.400390625 1288 878.400390625 1248 c 128,-1,3
 878.400390625 1208 878.400390625 1208 850.5 1183.20019531 c 128,-1,4
 822.599609375 1158.40039062 822.599609375 1158.40039062 777.599609375 1158.40039062 c 128,-1,5
 732.599609375 1158.40039062 732.599609375 1158.40039062 704.700195312 1183.20019531 c 128,-1,6
 676.799804688 1208 676.799804688 1208 676.799804688 1248 c 128,-1,7
 676.799804688 1288 676.799804688 1288 704.700195312 1312.79980469 c 128,-1,0
 732.599609375 1337.59960938 732.599609375 1337.59960938 777.599609375 1337.59960938 c 128,-1,1
374.400390625 1337.59960938 m 128,-1,9
 419.400390625 1337.59960938 419.400390625 1337.59960938 447.299804688 1312.79980469 c 128,-1,10
 475.200195312 1288 475.200195312 1288 475.200195312 1248 c 128,-1,11
 475.200195312 1208 475.200195312 1208 447.299804688 1183.20019531 c 128,-1,12
 419.400390625 1158.40039062 419.400390625 1158.40039062 374.400390625 1158.40039062 c 128,-1,13
 329.400390625 1158.40039062 329.400390625 1158.40039062 301.5 1183.20019531 c 128,-1,14
 273.599609375 1208 273.599609375 1208 273.599609375 1248 c 128,-1,15
 273.599609375 1288 273.599609375 1288 301.5 1312.79980469 c 128,-1,8
 329.400390625 1337.59960938 329.400390625 1337.59960938 374.400390625 1337.59960938 c 128,-1,9
EndSplineSet
EndChar

StartChar: copyright
Encoding: 169 169 107
Width: 979
VWidth: 1369
GlyphClass: 2
Flags: W
LayerCount: 2
Fore
SplineSet
730.799804688 452.799804688 m 1,0,1
 655.200195312 440 655.200195312 440 593.099609375 440 c 0,2,3
 478.799804688 440 478.799804688 440 426.599609375 489.599609375 c 0,4,5
 402.299804688 512.799804688 402.299804688 512.799804688 390.150390625 551.200195312 c 128,-1,6
 378 589.599609375 378 589.599609375 376.200195312 619.200195312 c 128,-1,7
 374.400390625 648.799804688 374.400390625 648.799804688 374.400390625 707.200195312 c 0,8,9
 374.400390625 823.200195312 374.400390625 823.200195312 395.099609375 870.400390625 c 0,10,11
 438.299804688 968 438.299804688 968 594 968 c 0,12,13
 655.200195312 968 655.200195312 968 730.799804688 952.799804688 c 1,14,-1
 730.799804688 856.799804688 l 1,15,16
 657 872 657 872 592.200195312 872 c 0,17,18
 553.5 872 553.5 872 533.25 864.799804688 c 128,-1,19
 513 857.599609375 513 857.599609375 503.099609375 837.599609375 c 0,20,21
 489.599609375 810.400390625 489.599609375 810.400390625 489.599609375 707.200195312 c 0,22,23
 489.599609375 633.599609375 489.599609375 633.599609375 493.650390625 600.400390625 c 128,-1,24
 497.700195312 567.200195312 497.700195312 567.200195312 513 552.799804688 c 0,25,26
 521.099609375 544.799804688 521.099609375 544.799804688 534.599609375 540.799804688 c 128,-1,27
 548.099609375 536.799804688 548.099609375 536.799804688 559.349609375 536.400390625 c 128,-1,28
 570.599609375 536 570.599609375 536 593.099609375 536 c 0,29,30
 657 536 657 536 730.799804688 548.799804688 c 1,31,-1
 730.799804688 452.799804688 l 1,0,1
576 1111.20019531 m 0,32,33
 461.700195312 1111.20019531 461.700195312 1111.20019531 385.200195312 1060.40039062 c 128,-1,34
 308.700195312 1009.59960938 308.700195312 1009.59960938 273.599609375 924.799804688 c 0,35,36
 237.599609375 836.799804688 237.599609375 836.799804688 237.599609375 704 c 128,-1,37
 237.599609375 571.200195312 237.599609375 571.200195312 273.599609375 483.200195312 c 0,38,39
 308.700195312 397.599609375 308.700195312 397.599609375 384.75 347.200195312 c 128,-1,40
 460.799804688 296.799804688 460.799804688 296.799804688 576 296.799804688 c 0,41,42
 690.299804688 296.799804688 690.299804688 296.799804688 766.799804688 347.599609375 c 128,-1,43
 843.299804688 398.400390625 843.299804688 398.400390625 878.400390625 483.200195312 c 0,44,45
 914.400390625 571.200195312 914.400390625 571.200195312 914.400390625 704 c 128,-1,46
 914.400390625 836.799804688 914.400390625 836.799804688 878.400390625 924.799804688 c 0,47,48
 843.299804688 1010.40039062 843.299804688 1010.40039062 767.25 1060.79980469 c 128,-1,49
 691.200195312 1111.20019531 691.200195312 1111.20019531 576 1111.20019531 c 0,32,33
576 1176.79980469 m 128,-1,51
 716.400390625 1176.79980469 716.400390625 1176.79980469 814.049804688 1113.20019531 c 128,-1,52
 911.700195312 1049.59960938 911.700195312 1049.59960938 954 945.599609375 c 0,53,54
 993.599609375 849.599609375 993.599609375 849.599609375 993.599609375 704 c 128,-1,55
 993.599609375 558.400390625 993.599609375 558.400390625 954 462.400390625 c 0,56,57
 911.700195312 358.400390625 911.700195312 358.400390625 814.049804688 294.799804688 c 128,-1,58
 716.400390625 231.200195312 716.400390625 231.200195312 576 231.200195312 c 128,-1,59
 435.599609375 231.200195312 435.599609375 231.200195312 337.950195312 294.799804688 c 128,-1,60
 240.299804688 358.400390625 240.299804688 358.400390625 198 462.400390625 c 0,61,62
 158.400390625 558.400390625 158.400390625 558.400390625 158.400390625 704 c 128,-1,63
 158.400390625 849.599609375 158.400390625 849.599609375 198 945.599609375 c 0,64,65
 240.299804688 1049.59960938 240.299804688 1049.59960938 337.950195312 1113.20019531 c 128,-1,50
 435.599609375 1176.79980469 435.599609375 1176.79980469 576 1176.79980469 c 128,-1,51
EndSplineSet
EndChar

StartChar: ordfeminine
Encoding: 170 170 108
Width: 972
VWidth: 1459
GlyphClass: 2
Flags: W
LayerCount: 2
Fore
SplineSet
626.599609375 1115.20019531 m 2,0,-1
 626.599609375 1152 l 1,1,-1
 522.200195312 1152 l 2,2,3
 474.5 1152 474.5 1152 453.799804688 1144.79980469 c 0,4,5
 423.200195312 1134.40039062 423.200195312 1134.40039062 404.299804688 1106 c 128,-1,6
 385.400390625 1077.59960938 385.400390625 1077.59960938 385.400390625 1040 c 0,7,8
 385.400390625 993.599609375 385.400390625 993.599609375 414.200195312 960.799804688 c 128,-1,9
 443 928 443 928 490.700195312 928 c 0,10,11
 530.299804688 928 530.299804688 928 560 945.200195312 c 128,-1,12
 589.700195312 962.400390625 589.700195312 962.400390625 605.900390625 990.400390625 c 0,13,14
 626.599609375 1027.20019531 626.599609375 1027.20019531 626.599609375 1115.20019531 c 2,0,-1
617.599609375 898.400390625 m 1,15,16
 584.299804688 864.799804688 584.299804688 864.799804688 551 848.400390625 c 128,-1,17
 517.700195312 832 517.700195312 832 470.900390625 832 c 0,18,19
 386.299804688 832 386.299804688 832 328.25 893.599609375 c 128,-1,20
 270.200195312 955.200195312 270.200195312 955.200195312 270.200195312 1040 c 0,21,22
 270.200195312 1107.20019531 270.200195312 1107.20019531 309.799804688 1160 c 128,-1,23
 349.400390625 1212.79980469 349.400390625 1212.79980469 411.5 1233.59960938 c 0,24,25
 454.700195312 1248 454.700195312 1248 522.200195312 1248 c 2,26,-1
 626.599609375 1248 l 1,27,28
 626.599609375 1301.59960938 626.599609375 1301.59960938 621.200195312 1319.20019531 c 0,29,30
 611.299804688 1349.59960938 611.299804688 1349.59960938 584.75 1362.79980469 c 128,-1,31
 558.200195312 1376 558.200195312 1376 505.099609375 1376 c 0,32,33
 474.5 1376 474.5 1376 303.5 1365.59960938 c 1,34,-1
 303.5 1462.40039062 l 1,35,36
 463.700195312 1472 463.700195312 1472 505.099609375 1472 c 0,37,38
 689.599609375 1472 689.599609375 1472 731.900390625 1344 c 0,39,40
 741.799804688 1313.59960938 741.799804688 1313.59960938 741.799804688 1262.40039062 c 2,41,-1
 741.799804688 844.799804688 l 1,42,-1
 626.599609375 844.799804688 l 1,43,-1
 626.599609375 898.400390625 l 1,44,-1
 617.599609375 898.400390625 l 1,15,16
EndSplineSet
EndChar

StartChar: guillemotleft
Encoding: 171 171 109
Width: 974
VWidth: 1344
GlyphClass: 2
Flags: W
LayerCount: 2
Fore
SplineSet
280.950195312 580 m 1,0,-1
 280.950195312 572 l 1,1,-1
 550.950195312 260 l 1,2,-1
 457.349609375 205.599609375 l 1,3,-1
 168.450195312 548.799804688 l 1,4,-1
 168.450195312 603.200195312 l 1,5,-1
 457.349609375 946.400390625 l 1,6,-1
 550.950195312 892 l 1,7,-1
 280.950195312 580 l 1,0,-1
626.549804688 580 m 1,8,-1
 626.549804688 572 l 1,9,-1
 896.549804688 260 l 1,10,-1
 802.950195312 205.599609375 l 1,11,-1
 514.049804688 548.799804688 l 1,12,-1
 514.049804688 603.200195312 l 1,13,-1
 802.950195312 946.400390625 l 1,14,-1
 896.549804688 892 l 1,15,-1
 626.549804688 580 l 1,8,-1
EndSplineSet
EndChar

StartChar: logicalnot
Encoding: 172 172 110
Width: 979
VWidth: 1343
GlyphClass: 2
Flags: W
LayerCount: 2
Fore
SplineSet
979.200195312 726 m 1,0,-1
 979.200195312 422 l 1,1,-1
 864 422 l 1,2,-1
 864 630 l 1,3,-1
 172.799804688 630 l 1,4,-1
 172.799804688 726 l 1,5,-1
 979.200195312 726 l 1,0,-1
EndSplineSet
EndChar

StartChar: uni00AD
Encoding: 173 173 111
Width: 979
VWidth: 1344
GlyphClass: 2
Flags: W
LayerCount: 2
Fore
SplineSet
172.799804688 624 m 1,0,-1
 979.200195312 624 l 1,1,-1
 979.200195312 528 l 1,2,-1
 172.799804688 528 l 1,3,-1
 172.799804688 624 l 1,0,-1
EndSplineSet
EndChar

StartChar: registered
Encoding: 174 174 112
Width: 979
VWidth: 1369
GlyphClass: 2
Flags: W
LayerCount: 2
Fore
SplineSet
648 806.400390625 m 128,-1,1
 648 837.599609375 648 837.599609375 636.75 850.799804688 c 128,-1,2
 625.5 864 625.5 864 593.099609375 864 c 2,3,-1
 518.400390625 864 l 1,4,-1
 518.400390625 748.799804688 l 1,5,-1
 593.099609375 748.799804688 l 2,6,7
 625.5 748.799804688 625.5 748.799804688 636.75 762 c 128,-1,0
 648 775.200195312 648 775.200195312 648 806.400390625 c 128,-1,1
763.200195312 806.400390625 m 0,8,9
 763.200195312 719.200195312 763.200195312 719.200195312 698.400390625 677.599609375 c 1,10,-1
 785.700195312 448 l 1,11,-1
 664.200195312 448 l 1,12,-1
 595.799804688 652.799804688 l 1,13,-1
 518.400390625 652.799804688 l 1,14,-1
 518.400390625 448 l 1,15,-1
 403.200195312 448 l 1,16,-1
 403.200195312 960 l 1,17,-1
 593.099609375 960 l 2,18,19
 673.200195312 960 673.200195312 960 718.200195312 919.200195312 c 128,-1,20
 763.200195312 878.400390625 763.200195312 878.400390625 763.200195312 806.400390625 c 0,8,9
576 1111.20019531 m 0,21,22
 461.700195312 1111.20019531 461.700195312 1111.20019531 385.200195312 1060.40039062 c 128,-1,23
 308.700195312 1009.59960938 308.700195312 1009.59960938 273.599609375 924.799804688 c 0,24,25
 237.599609375 836.799804688 237.599609375 836.799804688 237.599609375 704 c 128,-1,26
 237.599609375 571.200195312 237.599609375 571.200195312 273.599609375 483.200195312 c 0,27,28
 308.700195312 397.599609375 308.700195312 397.599609375 384.75 347.200195312 c 128,-1,29
 460.799804688 296.799804688 460.799804688 296.799804688 576 296.799804688 c 0,30,31
 690.299804688 296.799804688 690.299804688 296.799804688 766.799804688 347.599609375 c 128,-1,32
 843.299804688 398.400390625 843.299804688 398.400390625 878.400390625 483.200195312 c 0,33,34
 914.400390625 571.200195312 914.400390625 571.200195312 914.400390625 704 c 128,-1,35
 914.400390625 836.799804688 914.400390625 836.799804688 878.400390625 924.799804688 c 0,36,37
 843.299804688 1010.40039062 843.299804688 1010.40039062 767.25 1060.79980469 c 128,-1,38
 691.200195312 1111.20019531 691.200195312 1111.20019531 576 1111.20019531 c 0,21,22
576 1176.79980469 m 128,-1,40
 716.400390625 1176.79980469 716.400390625 1176.79980469 814.049804688 1113.20019531 c 128,-1,41
 911.700195312 1049.59960938 911.700195312 1049.59960938 954 945.599609375 c 0,42,43
 993.599609375 849.599609375 993.599609375 849.599609375 993.599609375 704 c 128,-1,44
 993.599609375 558.400390625 993.599609375 558.400390625 954 462.400390625 c 0,45,46
 911.700195312 358.400390625 911.700195312 358.400390625 814.049804688 294.799804688 c 128,-1,47
 716.400390625 231.200195312 716.400390625 231.200195312 576 231.200195312 c 128,-1,48
 435.599609375 231.200195312 435.599609375 231.200195312 337.950195312 294.799804688 c 128,-1,49
 240.299804688 358.400390625 240.299804688 358.400390625 198 462.400390625 c 0,50,51
 158.400390625 558.400390625 158.400390625 558.400390625 158.400390625 704 c 128,-1,52
 158.400390625 849.599609375 158.400390625 849.599609375 198 945.599609375 c 0,53,54
 240.299804688 1049.59960938 240.299804688 1049.59960938 337.950195312 1113.20019531 c 128,-1,39
 435.599609375 1176.79980469 435.599609375 1176.79980469 576 1176.79980469 c 128,-1,40
EndSplineSet
EndChar

StartChar: macron
Encoding: 175 175 113
Width: 979
VWidth: 1497
GlyphClass: 2
Flags: W
LayerCount: 2
Fore
SplineSet
288 1392 m 1,0,-1
 864 1392 l 1,1,-1
 864 1296 l 1,2,-1
 288 1296 l 1,3,-1
 288 1392 l 1,0,-1
EndSplineSet
EndChar

StartChar: degree
Encoding: 176 176 114
Width: 979
VWidth: 1488
GlyphClass: 2
Flags: W
LayerCount: 2
Fore
SplineSet
576 1478.40039062 m 128,-1,1
 666 1478.40039062 666 1478.40039062 723.599609375 1426 c 128,-1,2
 781.200195312 1373.59960938 781.200195312 1373.59960938 781.200195312 1296 c 128,-1,3
 781.200195312 1218.40039062 781.200195312 1218.40039062 723.599609375 1166 c 128,-1,4
 666 1113.59960938 666 1113.59960938 576 1113.59960938 c 128,-1,5
 486 1113.59960938 486 1113.59960938 428.400390625 1166 c 128,-1,6
 370.799804688 1218.40039062 370.799804688 1218.40039062 370.799804688 1296 c 128,-1,7
 370.799804688 1373.59960938 370.799804688 1373.59960938 428.400390625 1426 c 128,-1,0
 486 1478.40039062 486 1478.40039062 576 1478.40039062 c 128,-1,1
576 1398.40039062 m 128,-1,9
 527.400390625 1398.40039062 527.400390625 1398.40039062 497.700195312 1371.59960938 c 128,-1,10
 468 1344.79980469 468 1344.79980469 468 1296 c 128,-1,11
 468 1247.20019531 468 1247.20019531 497.700195312 1220.40039062 c 128,-1,12
 527.400390625 1193.59960938 527.400390625 1193.59960938 576 1193.59960938 c 128,-1,13
 624.599609375 1193.59960938 624.599609375 1193.59960938 654.299804688 1220.40039062 c 128,-1,14
 684 1247.20019531 684 1247.20019531 684 1296 c 128,-1,15
 684 1344.79980469 684 1344.79980469 654.299804688 1371.59960938 c 128,-1,8
 624.599609375 1398.40039062 624.599609375 1398.40039062 576 1398.40039062 c 128,-1,9
EndSplineSet
EndChar

StartChar: plusminus
Encoding: 177 177 115
Width: 979
VWidth: 1370
GlyphClass: 2
Flags: W
LayerCount: 2
Fore
SplineSet
633.599609375 854.799804688 m 1,0,-1
 979.200195312 854.799804688 l 1,1,-1
 979.200195312 758.799804688 l 1,2,-1
 633.599609375 758.799804688 l 1,3,-1
 633.599609375 550.799804688 l 1,4,-1
 518.400390625 550.799804688 l 1,5,-1
 518.400390625 758.799804688 l 1,6,-1
 172.799804688 758.799804688 l 1,7,-1
 172.799804688 854.799804688 l 1,8,-1
 518.400390625 854.799804688 l 1,9,-1
 518.400390625 1062.79980469 l 1,10,-1
 633.599609375 1062.79980469 l 1,11,-1
 633.599609375 854.799804688 l 1,0,-1
172.799804688 445.200195312 m 1,12,-1
 979.200195312 445.200195312 l 1,13,-1
 979.200195312 349.200195312 l 1,14,-1
 172.799804688 349.200195312 l 1,15,-1
 172.799804688 445.200195312 l 1,12,-1
EndSplineSet
EndChar

StartChar: uni00B2
Encoding: 178 178 116
Width: 973
VWidth: 1460
GlyphClass: 2
Flags: W
LayerCount: 2
Fore
SplineSet
281.900390625 1452 m 1,0,1
 399.799804688 1473.59960938 399.799804688 1473.59960938 500.599609375 1473.59960938 c 0,2,3
 622.099609375 1473.59960938 622.099609375 1473.59960938 687.799804688 1419.59960938 c 128,-1,4
 753.5 1365.59960938 753.5 1365.59960938 753.5 1285.59960938 c 0,5,6
 753.5 1243.20019531 753.5 1243.20019531 736.400390625 1206.79980469 c 128,-1,7
 719.299804688 1170.40039062 719.299804688 1170.40039062 687.799804688 1143.59960938 c 128,-1,8
 656.299804688 1116.79980469 656.299804688 1116.79980469 626.599609375 1098.79980469 c 128,-1,9
 596.900390625 1080.79980469 596.900390625 1080.79980469 557.299804688 1063.20019531 c 0,10,11
 529.400390625 1050.40039062 529.400390625 1050.40039062 522.650390625 1047.59960938 c 128,-1,12
 515.900390625 1044.79980469 515.900390625 1044.79980469 492.5 1033.59960938 c 128,-1,13
 469.099609375 1022.40039062 469.099609375 1022.40039062 460.549804688 1015.59960938 c 128,-1,14
 452 1008.79980469 452 1008.79980469 437.150390625 997.599609375 c 128,-1,15
 422.299804688 986.400390625 422.299804688 986.400390625 414.200195312 975.200195312 c 128,-1,16
 406.099609375 964 406.099609375 964 400.700195312 950.400390625 c 1,17,-1
 400.700195312 942.400390625 l 1,18,-1
 742.700195312 942.400390625 l 1,19,-1
 742.700195312 846.400390625 l 1,20,-1
 276.5 846.400390625 l 1,21,-1
 276.5 894.400390625 l 2,22,23
 276.5 1053.59960938 276.5 1053.59960938 492.5 1144.79980469 c 0,24,25
 524.900390625 1158.40039062 524.900390625 1158.40039062 544.700195312 1168.79980469 c 128,-1,26
 564.5 1179.20019531 564.5 1179.20019531 589.25 1196.40039062 c 128,-1,27
 614 1213.59960938 614 1213.59960938 626.150390625 1236 c 128,-1,28
 638.299804688 1258.40039062 638.299804688 1258.40039062 638.299804688 1285.59960938 c 0,29,30
 638.299804688 1300 638.299804688 1300 633.799804688 1313.20019531 c 128,-1,31
 629.299804688 1326.40039062 629.299804688 1326.40039062 616.700195312 1342.40039062 c 128,-1,32
 604.099609375 1358.40039062 604.099609375 1358.40039062 574.400390625 1368 c 128,-1,33
 544.700195312 1377.59960938 544.700195312 1377.59960938 500.599609375 1377.59960938 c 0,34,35
 403.400390625 1377.59960938 403.400390625 1377.59960938 281.900390625 1356 c 1,36,-1
 281.900390625 1452 l 1,0,1
EndSplineSet
EndChar

